<svg width="276" height="254" viewBox="0 0 276 254" fill="none" xmlns="http://www.w3.org/2000/svg">
<path d="M56.2746 130.564C40.906 132.469 32.8654 128.545 22.8442 123.269C12.8665 118.016 9.48328 107.966 0.596473 84.2007L0.355395 83.5808C0.396913 83.6836 2.08116 86.2547 8.48599 95.7171C16.492 107.545 32.8101 112.429 42.8128 112.333C50.815 112.256 70.0809 105.262 78.7136 101.774L87.0587 122.431C81.9202 124.507 68.5695 129.04 56.2746 130.564Z" fill="black"/>
<path d="M198.358 73.1638C210.737 63.8592 213.795 55.451 217.34 44.6948C220.869 33.9853 216.322 24.4053 206.207 1.1361L205.95 0.522728C205.992 0.625498 206.566 3.64504 208.531 14.901C210.988 28.971 202.641 43.819 195.378 50.6979C189.568 56.201 170.85 64.5518 162.218 68.0393L170.563 88.696C175.701 86.6201 188.454 80.6075 198.358 73.1638Z" fill="black"/>
<path d="M87.8647 125.826C87.0577 120.988 80.6365 106.751 77.6513 100.545C80.2539 97.2222 86.8512 89.584 92.4195 85.6131C99.3799 80.6494 116.396 73.0578 128.177 69.3743C137.602 66.4274 155.149 66.0091 162.745 66.1683C165.631 73.6092 171.665 88.9595 172.709 90.833C174.014 93.175 179.89 96.1804 186.651 104.925C193.411 113.67 193.383 123.365 193.087 127.071C192.791 130.776 189.003 142.707 188.15 145.92C187.296 149.134 184.458 167.853 184.103 172.301C183.748 176.748 185.439 183.596 185.753 185.262C186.005 186.595 186.454 189.147 186.282 193.161C185.578 200.144 182.563 203.963 181.2 205.691L181.131 205.778C179.471 207.883 175.593 211.601 167.079 213.606C158.565 215.611 150.459 210.638 148.911 209.47C147.364 208.302 145.934 205.652 143.823 202.201C141.712 198.75 125.416 182.382 118.051 177.467C110.686 172.553 96.1467 164.081 92.5469 158.722C88.9472 153.362 86.6276 143.182 86.9174 137.685C87.2073 132.189 88.8734 131.874 87.8647 125.826Z" fill="#FA4821"/>
<path d="M95.5467 148.768C94.4257 145.994 94.2236 141.054 95.7528 136.85C95.9168 136.665 96.3065 136.268 96.5532 136.168C96.8615 136.044 98.2193 135.854 104.155 138.118C110.09 140.383 116.163 146.536 118.766 149.43C121.369 152.323 127.407 166.38 128.41 170.638C129.212 174.043 128.792 173.95 128.481 173.478C125.222 171.328 118.22 166.721 116.289 165.492C113.876 163.957 105.219 160.282 101.631 158.504C98.0439 156.725 96.6677 151.543 95.5467 148.768Z" fill="black"/>
<path d="M185.265 112.524C184.144 109.749 180.858 106.056 176.838 104.093C176.591 104.074 176.035 104.059 175.789 104.159C175.48 104.283 174.372 105.09 171.674 110.842C168.977 116.593 168.883 125.238 169.02 129.128C169.157 133.018 174.578 147.324 176.814 151.083C178.603 154.09 178.84 153.731 178.735 153.176C179.587 149.365 181.423 141.188 181.959 138.963C182.629 136.182 186.304 127.525 187.65 123.754C188.995 119.983 186.386 115.299 185.265 112.524Z" fill="black"/>
<path d="M149.691 182.482C149.391 187.843 158.014 193.331 162.604 196.172C163.367 196.581 165.516 198.067 166.046 198.11C166.787 198.169 167.404 197.92 168.08 196.929C168.756 195.939 170.023 187.537 170.142 186.055C170.26 184.572 170.485 178.026 167.941 174.392C165.396 170.758 157.499 172.514 156.574 172.887C155.649 173.261 150.04 176.244 149.691 182.482Z" fill="black"/>
</svg>
