<svg width="187" height="259" viewBox="0 0 187 259" fill="none" xmlns="http://www.w3.org/2000/svg">
<path d="M-0.0002408 14.519L18.4489 0.627876L21.2544 23.5508L-0.0002408 14.519ZM34.2598 11.6185C41.6338 12.3645 49.2473 13.6607 56.955 15.5061L56.0236 19.3962C48.4822 17.5906 41.0454 16.3254 33.8572 15.5982L34.2598 11.6185ZM78.9877 22.2281C86.0798 24.8665 93.1404 27.9652 100.058 31.5253L98.228 35.082C91.4544 31.5962 84.5396 28.5613 77.593 25.9771L78.9877 22.2281ZM119.844 43.2968C126.151 47.6069 132.227 52.3495 137.969 57.5261L135.291 60.497C129.688 55.4462 123.754 50.8136 117.587 46.5995L119.844 43.2968ZM153.937 74.1688C158.796 80.0552 163.243 86.3558 167.183 93.0712L163.733 95.0955C159.905 88.5714 155.581 82.4448 150.852 76.7151L153.937 74.1688ZM177.172 113.889C179.848 120.926 182 128.322 183.55 136.077L179.628 136.861C178.121 129.325 176.032 122.142 173.433 115.312L177.172 113.889ZM186.268 158.993C186.574 166.418 186.358 174.119 185.569 182.093L181.589 181.699C182.359 173.905 182.57 166.392 182.271 159.157L186.268 158.993ZM181.917 204.721C180.316 211.934 178.267 219.345 175.74 226.954L171.944 225.693C174.43 218.208 176.442 210.929 178.012 203.854L181.917 204.721ZM167.593 248.297C166.095 251.781 164.5 255.302 162.805 258.862L159.194 257.142C160.867 253.628 162.441 250.153 163.919 246.717L167.593 248.297Z" fill="black"/>
</svg>
