<svg width="189" height="247" viewBox="0 0 189 247" fill="none" xmlns="http://www.w3.org/2000/svg">
<path d="M34.0002 246.019L11.5094 240.775L27.2962 223.919L34.0002 246.019ZM12.7293 218.839C10.0197 212.192 7.61886 204.694 5.70506 196.584L9.59813 195.665C11.4676 203.588 13.8072 210.887 16.4334 217.329L12.7293 218.839ZM1.87106 173.576C1.11748 166.054 0.812659 158.245 1.0628 150.287L5.06082 150.412C4.81644 158.187 5.11417 165.821 5.85114 173.177L1.87106 173.576ZM3.40749 127.1C4.72254 119.542 6.60757 111.966 9.14944 104.485L12.9368 105.772C10.4657 113.044 8.63011 120.418 7.34829 127.786L3.40749 127.1ZM18.4841 83.08C22.1187 76.377 26.3963 69.8542 31.386 63.6035L34.5122 66.099C29.6741 72.1597 25.5261 78.4846 22.0004 84.9866L18.4841 83.08ZM47.5077 46.6806C53.125 41.7165 59.3376 37.0327 66.1904 32.6898L68.3316 36.0684C61.6546 40.3 55.6121 44.8568 50.1565 49.6779L47.5077 46.6806ZM86.6451 21.6702C93.4149 18.5897 100.663 15.7894 108.417 13.3043L109.638 17.1135C102.026 19.5531 94.9236 22.2979 88.3018 25.311L86.6451 21.6702ZM130.836 7.33457C138.062 5.76976 145.652 4.44464 153.624 3.3793L154.154 7.34405C146.283 8.39588 138.798 9.7029 131.683 11.2439L130.836 7.33457ZM176.662 1.11049C180.507 0.858634 184.429 0.66128 188.43 0.520176L188.571 4.51769C184.609 4.65741 180.727 4.85277 176.924 5.10193L176.662 1.11049Z" fill="black"/>
</svg>
