<svg width="193" height="220" viewBox="0 0 193 220" fill="none" xmlns="http://www.w3.org/2000/svg">
<path d="M181.5 219.019L192.254 198.582L169.177 199.487L181.5 219.019ZM184.943 183.165C185.48 175.779 185.924 167.608 185.987 158.942L181.987 158.913C181.925 167.462 181.486 175.541 180.954 182.875L184.943 183.165ZM185.03 134.693C184.307 126.788 183.123 118.704 181.298 110.615L177.396 111.495C179.177 119.39 180.337 127.299 181.047 135.057L185.03 134.693ZM174.055 87.3178C171.038 79.9018 167.309 72.6281 162.724 65.6417L159.379 67.8365C163.811 74.5888 167.422 81.6297 170.35 88.8255L174.055 87.3178ZM147.242 46.6644C141.705 41.1549 135.417 35.9767 128.284 31.2235L126.066 34.5522C132.984 39.1625 139.07 44.1759 144.42 49.4998L147.242 46.6644ZM106.909 19.4923C99.9242 16.361 92.3486 13.5572 84.1351 11.1272L83.0003 14.9629C91.0527 17.3452 98.46 20.0881 105.273 23.1423L106.909 19.4923ZM60.3628 5.5061C52.8357 4.12931 44.8721 3.01873 36.4473 2.19812L36.0595 6.17928C44.3799 6.98973 52.2326 8.08535 59.6431 9.44082L60.3628 5.5061ZM12.3186 0.697159C8.3035 0.578658 4.19776 0.518438 -0.000550254 0.518437L-0.000551455 4.51844C4.15953 4.51844 8.22591 4.57811 12.2006 4.69542L12.3186 0.697159Z" fill="black"/>
</svg>
