<svg width="134" height="339" viewBox="0 0 134 339" fill="none" xmlns="http://www.w3.org/2000/svg">
<path d="M63.7005 14.1737C55.8524 12.6059 37.0172 14.1737 27.5995 22.0126C20.1962 28.1748 12.7929 40.1499 13.0144 53.3684C13.3894 55.8459 13.8152 58.7454 14.2712 61.9537C17.1817 82.4313 21.3206 115.493 21.3206 131.758C21.3206 155.275 15.0425 175.656 15.0425 202.308C15.0425 228.961 15.0425 244.639 27.5995 261.884C40.1565 279.13 71.8767 278.656 82.536 275.995C95.093 272.859 113.929 254.045 120.207 238.368C126.486 222.69 115.498 196.037 99.8019 175.656C84.1056 155.275 82.536 109.809 82.536 97.2665C82.536 84.7242 84.1056 39.2583 82.536 34.5549C80.9664 29.8515 71.5486 15.7415 63.7005 14.1737Z" fill="white"/>
<path fill-rule="evenodd" clip-rule="evenodd" d="M27.5995 4.76689C41.7257 0.0635238 58.9916 -1.50427 68.4094 1.63131C77.8271 4.76689 87.2449 15.7414 91.9538 25.1482C96.6626 34.5549 95.093 51.8006 95.093 58.0718V112.944C95.093 128.622 107.65 163.114 113.929 170.953C120.207 178.792 132.344 207.031 132.764 211.715C134.764 234 131.822 258.522 129.625 269.723C124.764 294.5 109.852 315.596 107.65 318.325C102.264 325 93.7827 333.429 87.2638 336.5C78.5893 340.586 68.4094 340.274 52.7131 329.299C37.0168 318.325 7.19395 296.376 2.48507 254.045C-2.22381 211.715 4.0547 181.927 5.62432 175.656C7.19395 169.385 10.3337 147.436 10.3337 131.758C10.3337 116.08 4.82223 71.5 4.05516 56.504C3.91185 53.7022 5.48167 34.5549 6.97997 25.1482C9.75726 17.6813 16.0604 8.60884 27.5995 4.76689ZM27.5995 22.0126C37.0172 14.1737 55.8524 12.6059 63.7005 14.1737C71.5486 15.7415 80.9664 29.8515 82.536 34.5549C84.1056 39.2583 82.536 84.7242 82.536 97.2665C82.536 109.809 84.1056 155.275 99.8019 175.656C115.498 196.037 126.486 222.69 120.207 238.368C113.929 254.045 95.093 272.859 82.536 275.995C71.8767 278.656 40.1565 279.13 27.5995 261.884C15.0425 244.639 15.0425 228.961 15.0425 202.308C15.0425 175.656 21.3206 155.275 21.3206 131.758C21.3206 115.493 17.1817 82.4313 14.2712 61.9537C13.4559 59.0649 13.0616 56.1884 13.0144 53.3684C12.7929 40.1499 20.1962 28.1748 27.5995 22.0126Z" fill="#FA4821"/>
</svg>
