<svg width="366" height="388" viewBox="0 0 366 388" fill="none" xmlns="http://www.w3.org/2000/svg">
<path d="M36.2424 135.114C31.3129 103.833 29.1309 78.0986 52.4596 66.1378C75.7883 54.177 109.014 51.5343 125.43 59.2489C141.846 66.9634 173.824 92.9728 179.488 101.949C185.153 110.926 226.293 168.557 236.992 181.135C247.69 193.713 294.533 207.078 302.655 211.993C310.778 216.909 327.825 229.999 335.724 250.87C343.624 271.741 343.278 283.675 341.074 292.139C339.037 299.962 328.832 321.431 293.603 324.143C272.777 325.747 258.261 326.615 228.57 298.661C198.879 270.706 177.14 249.783 164.956 242.41C155.209 236.512 117.407 220.449 99.7243 213.155C77.8064 199.553 40.7605 163.784 36.2424 135.114Z" fill="black"/>
<ellipse cx="270.104" cy="259.714" rx="43.2366" ry="64.0543" transform="rotate(-57.1485 270.104 259.714)" fill="white"/>
</svg>
