<svg width="198" height="299" viewBox="0 0 198 299" fill="none" xmlns="http://www.w3.org/2000/svg">
<path d="M151.266 13.8297C158.786 15.2567 174.919 23.4121 180.45 33.7513C184.797 41.8788 187.054 55.1654 182.105 66.8173C180.882 68.8814 179.462 71.3017 177.904 73.9854C167.962 91.1141 152.406 118.97 146.558 133.405C138.103 154.276 136.34 174.619 126.758 198.273C117.175 221.927 111.538 235.841 94.2067 246.638C76.8749 257.434 48.9265 245.622 40.4344 239.432C30.4304 232.139 18.9653 208.599 20.5687 192.509C22.2637 175.501 39.9623 156.632 61.2043 144.181C82.4462 131.729 100.184 91.9418 104.694 80.8105C109.203 69.6792 124.158 28.7645 127.241 25.1539C130.323 21.5433 143.745 12.4027 151.266 13.8297Z" fill="white"/>
<path fill-rule="evenodd" clip-rule="evenodd" d="M186.65 18.4457C175.819 9.19845 161.077 1.60657 151.601 1.00732C142.125 0.408078 129.831 6.76593 122.275 13.4234C114.718 20.0808 109.909 35.95 107.654 41.5157L87.9257 90.2152C82.2889 104.129 58.3744 129.607 50.3726 134.933C44.2637 139 24.7637 158.5 19.2638 165.5C8.47063 179.238 1.59832 206.046 0.946654 216.956C-1.23627 253.501 2.36566 264.676 2.95241 267.981C5.26373 281.001 10.6871 288.888 14.2637 292.001C18.3464 295.555 29.8463 301.553 47.7062 297.45C65.5661 293.347 99.8944 284.577 119.288 248.7C138.682 212.822 143.826 184.131 144.689 178.001C145.552 171.872 150.661 151.265 156.297 137.351C161.934 123.437 187.46 75.8404 188.92 72.8175C190.764 69 194.764 59 197.601 43.9389C197.823 36.3146 195.498 25.9993 186.65 18.4457ZM180.45 33.7513C174.919 23.4121 158.786 15.2567 151.266 13.8297C143.745 12.4027 130.323 21.5433 127.241 25.1539C124.158 28.7645 109.203 69.6792 104.694 80.8105C100.184 91.9418 82.4462 131.729 61.2043 144.181C39.9623 156.632 22.2637 175.501 20.5687 192.509C18.9653 208.599 30.4304 232.139 40.4344 239.432C48.9265 245.622 76.8749 257.434 94.2067 246.638C111.538 235.841 117.175 221.927 126.758 198.273C136.34 174.619 138.103 154.276 146.558 133.405C152.406 118.97 167.962 91.1141 177.904 73.9854C179.666 71.7144 181.049 69.303 182.105 66.8173C187.054 55.1654 184.797 41.8788 180.45 33.7513Z" fill="#FA4821"/>
</svg>
