<svg width="365" height="272" viewBox="0 0 365 272" fill="none" xmlns="http://www.w3.org/2000/svg">
<path d="M272.861 25.9813C301.363 30.2126 324.301 35.3203 328.339 58.831C332.377 82.3418 325.631 111.911 314.466 124.065C303.3 136.22 272.015 156.909 262.679 159.385C253.344 161.862 192.108 181.901 178.276 187.769C164.444 193.636 140.093 230.672 133.615 236.387C127.137 242.103 111.132 253.343 90.8606 254.523C70.5889 255.703 60.377 252.616 55.195 247.395C50.0131 242.175 30.7336 217.71 38.6985 198.011C46.6635 178.311 46.1688 166.651 78.5206 148.477C110.872 130.303 134.955 117.12 144.672 108.547C152.446 101.689 176.679 73.2362 187.824 59.8672C209.408 41.2512 239.908 21.0894 272.861 25.9813Z" fill="black"/>
<ellipse cx="101.037" cy="195.139" rx="39.3424" ry="58.2851" transform="rotate(50.2511 101.037 195.139)" fill="white"/>
</svg>
