<svg width="185" height="310" viewBox="0 0 185 310" fill="none" xmlns="http://www.w3.org/2000/svg">
<path d="M129.975 35.0509C113.072 16.3108 103.53 4.23828 79.118 10.5055C58.8807 15.7009 45.0302 31.7387 38.2571 52.2496C28.8961 80.5977 34.8773 99.1375 37.5966 107.148C40.3159 115.159 55.3826 169.543 57.8081 182.477C60.2335 195.412 45.0212 231.129 43.9925 238.625C42.9637 246.121 42.523 263.245 51.4893 278.605C60.4555 293.964 67.6579 299.917 73.9782 301.166C80.2985 302.416 107.491 304.62 118 289.26C128.509 273.9 137.254 268.608 134.829 236.199C132.403 203.789 130.345 179.83 131.888 168.586C133.122 159.591 142.13 128.12 146.48 113.509C149.046 93.1119 145.468 52.2274 129.975 35.0509Z" fill="black"/>
<ellipse rx="34.4584" ry="51.0495" transform="matrix(-0.994258 -0.107007 -0.107007 0.994258 89.8749 242.394)" fill="white"/>
</svg>
