<svg width="249" height="292" viewBox="0 0 249 292" fill="none" xmlns="http://www.w3.org/2000/svg">
<path d="M204.655 278.379C216.541 275.706 227.684 263.838 231.535 251.933C234.563 242.574 233.944 229.507 226.541 218.206C224.866 216.27 223.391 212.682 221.247 210.159C207.563 194.051 185.954 167.739 177.08 153.685C164.25 133.365 158.549 112.334 144.008 89.3045C129.467 66.2753 120.913 52.7287 100.667 44.6703C80.4212 36.6118 53.3037 54.3068 45.5564 62.4153C36.4298 71.9674 30.4381 98.4874 33.5729 115.455C36.7078 132.423 60.7313 149.465 85.3974 158.522C110.063 167.579 136.223 206.009 143.066 216.846C149.909 227.684 173.359 267.824 177.28 271.033C181.201 274.241 192.769 281.052 204.655 278.379Z" fill="white"/>
<path fill-rule="evenodd" clip-rule="evenodd" d="M239.541 271.033C229.916 282.795 219.278 291.783 207.434 291.782C197.302 291.782 183.48 289.855 174.284 284.293C165.088 278.731 157.034 262.974 153.612 257.556L123.675 210.143C115.122 196.596 85.4668 173.636 75.7715 170.284C66.0761 166.932 40.6932 148.708 37.2765 145.327C26.5412 134.706 11.6161 104.688 8.33802 93.4943C5.05991 82.301 0.787476 52.7057 0.787476 39.525C0.787476 35.9426 3.54109 20.7057 8.98923 13.5043C12.4744 8.89763 22.6791 -0.82387 42.2131 0.105271C61.7471 1.03441 99.4605 3.74803 126.619 37.7578C153.777 71.7675 164.61 100.927 166.677 107.201C168.744 113.475 178.009 134.152 186.562 147.698C195.116 161.245 230.699 206.586 233.038 209.3C235.541 212.206 243.781 229.043 247.62 237.987C249.041 256.706 247.404 261.425 239.541 271.033ZM231.535 251.933C227.684 263.838 216.541 275.706 204.655 278.379C192.769 281.052 181.201 274.241 177.28 271.033C173.359 267.824 149.909 227.684 143.066 216.846C136.223 206.009 110.063 167.579 85.3974 158.522C60.7313 149.465 36.7078 132.423 33.5729 115.455C30.4381 98.4874 36.4298 71.9674 45.5564 62.4153C53.3037 54.3068 80.4212 36.6118 100.667 44.6703C120.913 52.7287 129.467 66.2753 144.008 89.3045C158.549 112.334 164.25 133.365 177.08 153.685C185.954 167.739 207.563 194.051 221.247 210.159C223.527 212.21 224.962 215.795 226.541 218.206C233.944 229.507 234.563 242.574 231.535 251.933Z" fill="#FA4821"/>
</svg>
