<svg width="221" height="313" viewBox="0 0 221 313" fill="none" xmlns="http://www.w3.org/2000/svg">
<path d="M201.928 73.9864C197.035 49.6534 191.632 30.1446 171.229 27.7051C150.826 25.2657 125.686 32.3697 115.721 42.5093C105.756 52.649 89.3336 80.4722 87.614 88.6123C85.8944 96.7524 71.3484 150.312 66.9093 162.469C62.4703 174.627 31.6805 197.204 27.0487 203.028C22.417 208.852 13.4516 223.115 13.328 240.606C13.2044 258.096 16.3092 266.745 21.0282 270.974C25.7472 275.202 47.6408 290.711 64.2373 282.993C80.8337 275.275 90.8862 275.187 105.098 246.557C119.309 217.927 129.591 196.629 136.538 187.893C142.096 180.904 165.507 158.806 176.518 148.63C188.924 132.665 206.414 96.289 201.928 73.9864Z" fill="black"/>
<ellipse rx="33.8889" ry="50.2058" transform="matrix(-0.8005 -0.599332 -0.599332 0.8005 63.966 229.239)" fill="white"/>
</svg>
