<svg width="317" height="250" viewBox="0 0 317 250" fill="none" xmlns="http://www.w3.org/2000/svg">
<ellipse cx="158.077" cy="126.344" rx="139.636" ry="31.8633" transform="rotate(14.6397 158.077 126.344)" fill="black"/>
<path d="M103.238 73.0089C111.051 43.0991 141.631 25.1862 171.541 32.9993L193.797 38.8131C223.707 46.6261 241.62 77.2064 233.807 107.116L229.479 123.685L98.9099 89.5774L103.238 73.0089Z" fill="black"/>
<path d="M81.7487 121.902C80.9974 128.486 81.5452 141.221 88.5215 147.886L89.1101 156.757C89.5025 162.671 92.3374 174.066 96.7897 182.978C101.242 191.89 119.687 210.269 139.636 215.48C159.584 220.69 169.639 215.568 177.17 212.693C184.702 209.817 197.085 199.491 201.226 194.762C204.539 190.978 208.471 183.094 210.023 179.625C210.707 179.48 213.123 178.884 217.318 177.656C222.562 176.12 225.993 174.11 228.321 168.907C230.649 163.703 232.11 154.399 230.811 148.248C229.772 143.327 225.57 142.359 223.598 142.489L216.966 167.878L206.992 165.272C209.44 155.903 214.296 136.572 214.139 134.207C213.942 131.25 211.696 128.726 207.399 126.635C203.102 124.544 121.26 104.134 118.54 103.423C115.82 102.712 109.669 104.011 108.051 106.495C106.757 108.481 101.986 128.48 99.7613 138.23L88.8806 135.388L95.7494 109.093C94.8426 108.856 92.4377 108.422 90.072 108.578C87.115 108.775 82.5 115.318 81.7487 121.902Z" fill="#FA4821"/>
<path d="M117.507 184.516C109.347 182.384 99.4947 168.188 93.7027 156.989C94.1361 157.802 96.9583 160.099 104.78 162.788C114.556 166.149 120.905 164.094 125.005 163.228C129.106 162.362 134.35 160.826 137.977 161.774C141.604 162.721 144.994 164.575 147.437 170.056C149.879 175.538 142.307 182.277 136.826 184.72C131.345 187.162 125.668 186.648 117.507 184.516Z" fill="black"/>
<path d="M168.562 197.852C176.723 199.983 192.259 192.418 202.788 185.483C202.013 185.98 198.427 186.604 190.29 185.124C180.119 183.274 175.586 178.377 172.433 175.616C169.28 172.855 165.457 168.951 161.83 168.004C158.203 167.056 154.339 167.015 149.528 170.602C144.717 174.188 148.026 183.77 151.612 188.581C155.198 193.392 160.402 195.72 168.562 197.852Z" fill="black"/>
</svg>
