<svg width="283" height="332" viewBox="0 0 283 332" fill="none" xmlns="http://www.w3.org/2000/svg">
<circle cx="209.542" cy="34.542" r="11.542" fill="black"/>
<circle cx="136.542" cy="270.542" r="11.542" fill="black"/>
<circle cx="62.542" cy="243.542" r="11.542" fill="black"/>
<circle cx="11.542" cy="138.542" r="11.542" fill="black"/>
<circle cx="26.542" cy="80.542" r="11.542" fill="black"/>
<circle cx="254.542" cy="80.542" r="11.542" fill="black"/>
<circle cx="23.542" cy="196.542" r="11.542" fill="black"/>
<circle cx="209.542" cy="243.542" r="11.542" fill="black"/>
<circle cx="270.542" cy="140.542" r="11.542" fill="black"/>
<circle cx="69.542" cy="34.542" r="11.542" fill="black"/>
<circle cx="136.542" cy="11.542" r="11.542" fill="black"/>
<path d="M270.5 230.5L271.82 243.487L259.913 238.137L270.5 230.5ZM262.998 247.762C260.836 251.347 258.489 254.836 255.954 258.201L254.148 256.84C256.635 253.54 258.939 250.115 261.062 246.595L262.998 247.762ZM247.834 267.836C244.965 270.879 241.91 273.774 238.668 276.493L237.216 274.76C240.387 272.1 243.378 269.266 246.189 266.285L247.834 267.836ZM228.529 283.994C225.042 286.255 221.38 288.326 217.54 290.182L216.556 288.147C220.31 286.332 223.89 284.308 227.299 282.097L228.529 283.994ZM205.866 294.953C201.963 296.273 197.906 297.385 193.693 298.269L193.228 296.056C197.354 295.191 201.325 294.102 205.141 292.811L205.866 294.953ZM181.246 300.157C177.18 300.547 172.987 300.737 168.666 300.713L168.678 298.452C172.925 298.476 177.042 298.289 181.03 297.906L181.246 300.157ZM156.093 300.059C154.036 299.86 151.953 299.615 149.845 299.322L150.156 297.082C152.234 297.371 154.286 297.613 156.311 297.809L156.093 300.059Z" fill="black"/>
<path d="M261.422 191.001L263.675 215.884L237.609 198.562L261.422 191.001Z" fill="black"/>
</svg>
