<svg width="439" height="395" viewBox="0 0 439 395" fill="none" xmlns="http://www.w3.org/2000/svg">
<mask id="path-1-inside-1_129_2436" fill="white">
<path d="M393.832 219.23C393.832 196.147 389.286 173.291 380.453 151.965C371.619 130.64 358.672 111.263 342.35 94.9414C326.029 78.6196 306.652 65.6725 285.326 56.8392C264.001 48.0059 241.145 43.4595 218.062 43.4595C194.98 43.4595 172.123 48.0059 150.798 56.8392C129.472 65.6725 110.096 78.6196 93.7739 94.9414C77.4521 111.263 64.505 130.64 55.6717 151.965C46.8384 173.291 42.292 196.147 42.292 219.23L218.062 219.23H393.832Z"/>
</mask>
<path d="M393.832 219.23C393.832 196.147 389.286 173.291 380.453 151.965C371.619 130.64 358.672 111.263 342.35 94.9414C326.029 78.6196 306.652 65.6725 285.326 56.8392C264.001 48.0059 241.145 43.4595 218.062 43.4595C194.98 43.4595 172.123 48.0059 150.798 56.8392C129.472 65.6725 110.096 78.6196 93.7739 94.9414C77.4521 111.263 64.505 130.64 55.6717 151.965C46.8384 173.291 42.292 196.147 42.292 219.23L218.062 219.23H393.832Z" stroke="black" stroke-width="6" stroke-dasharray="12 12" mask="url(#path-1-inside-1_129_2436)"/>
<path d="M205.507 219.989L225.064 204.277L225.064 235.702L205.507 219.989Z" fill="#FA4821"/>
<path d="M412.182 219.989L431.738 204.277L431.738 235.702L412.182 219.989Z" fill="#FA4821"/>
<circle cx="291.46" cy="19.3153" r="11.5892" fill="#FA4821"/>
<circle cx="218.062" cy="11.5892" r="11.5892" fill="#FA4821"/>
<circle cx="144.663" cy="19.3153" r="11.5892" fill="#FA4821"/>
<circle cx="87.683" cy="54.0829" r="11.5892" fill="#FA4821"/>
<circle cx="47.1205" cy="105.269" r="11.5892" fill="#FA4821"/>
<circle cx="23.9423" cy="165.147" r="11.5892" fill="#FA4821"/>
<circle cx="12.3529" cy="220.196" r="11.5892" fill="#FA4821"/>
<circle cx="352.304" cy="54.0829" r="11.5892" fill="#FA4821"/>
<circle cx="393.832" cy="105.269" r="11.5892" fill="#FA4821"/>
<circle cx="419.908" cy="165.147" r="11.5892" fill="#FA4821"/>
</svg>
