<svg width="217" height="226" viewBox="0 0 217 226" fill="none" xmlns="http://www.w3.org/2000/svg">
<path d="M50.9626 125.577L147.426 67.8134L172.988 110.501C188.939 137.139 180.276 171.664 153.638 187.615C127.001 203.566 92.4758 194.902 76.5248 168.265L50.9626 125.577Z" fill="black"/>
<rect x="39.3142" y="140.084" width="146.683" height="20.0317" rx="10.0158" transform="rotate(-30.9139 39.3142 140.084)" fill="#FA4821"/>
<path d="M26.1225 80.9511C26.4744 84.0543 46.0017 116.874 55.7214 132.896L152.737 76.6839C142.704 60.3477 122.327 27.4093 121.087 26.3443C119.536 25.0131 113.445 21.1292 109.179 20.2943C104.913 19.4594 96.8778 20.5052 92.1107 22.6066C87.3437 24.7081 83.5725 28.4726 79.4097 36.6142C75.2469 44.7558 68.8731 46.6896 64.8264 48.7363C60.7797 50.7829 56.7911 49.7821 49.6986 49.8868C42.6061 49.9914 34.1243 54.6938 29.4635 62.0039C24.8028 69.3139 25.6826 77.0719 26.1225 80.951L26.1225 80.9511Z" fill="#FA4821"/>
<path d="M120.96 175.55C115.003 179.117 100.929 176.637 90.965 173.513C91.6957 173.732 94.6798 173.41 100.771 170.368C108.386 166.566 110.821 161.623 112.668 158.699C114.514 155.776 116.621 151.787 119.269 150.201C121.916 148.616 124.964 147.7 129.615 149.46C134.266 151.22 133.901 159.62 132.194 164.278C130.487 168.936 126.917 171.983 120.96 175.55Z" fill="#FA4821"/>
<path d="M158.431 153.111C164.388 149.544 168.846 135.966 170.796 125.708C170.645 126.456 168.951 128.934 163.394 132.868C156.447 137.785 150.94 137.598 147.491 137.846C144.042 138.093 139.531 138.067 136.884 139.653C134.236 141.238 131.989 143.492 131.345 148.423C130.701 153.354 138.278 156.998 143.19 157.692C148.102 158.387 152.474 156.678 158.431 153.111Z" fill="#FA4821"/>
</svg>
