<svg width="1011" height="1004" viewBox="0 0 1011 1004" fill="none" xmlns="http://www.w3.org/2000/svg">
<path d="M899.779 513.201C900.112 509.89 900.725 506.993 901.618 504.51C902.44 502.084 903.209 500.199 903.923 498.856C904.701 497.519 905.09 496.851 905.09 496.851L906.504 496.221C906.504 496.221 906.943 496.33 907.822 496.547C908.758 496.834 909.983 497.118 911.499 497.399C913.072 497.75 914.804 498.117 916.695 498.5C918.65 498.89 920.614 499.184 922.588 499.383L922.373 507.273C918.871 506.921 916.101 506.963 914.063 507.402C912.025 507.84 910.547 508.785 909.629 510.236C908.704 511.751 908.108 513.846 907.839 516.521C907.531 519.577 907.953 522.096 909.105 524.077C910.256 526.058 912.01 527.168 914.366 527.405C916.149 527.584 917.748 527.037 919.163 525.764C920.571 524.555 921.925 522.922 923.225 520.866C924.583 518.88 925.956 516.735 927.346 514.43C928.806 512.069 930.418 509.787 932.183 507.584C933.942 505.445 935.949 503.718 938.204 502.401C940.453 501.147 943.074 500.671 946.067 500.972C949.76 501.344 952.931 502.756 955.578 505.21C958.22 507.727 960.148 510.944 961.362 514.861C962.633 518.848 963.019 523.325 962.519 528.292C962.205 531.412 961.704 534.16 961.015 536.535C960.383 538.98 959.774 540.881 959.187 542.237C958.6 543.593 958.307 544.271 958.307 544.271L956.998 544.814C956.998 544.814 956.25 544.578 954.754 544.106C953.321 543.641 951.35 543.089 948.842 542.45C946.39 541.882 943.741 541.358 940.895 540.879L941.033 533.753L941.692 532.951C941.692 532.951 942.039 533.018 942.733 533.152C943.428 533.286 944.22 533.398 945.112 533.488C947.977 533.776 950.089 533.249 951.446 531.906C952.797 530.627 953.642 528.3 953.981 524.925C954.257 522.187 953.816 519.859 952.658 517.941C951.493 516.087 949.924 515.061 947.95 514.863C946.294 514.696 944.772 515.122 943.383 516.14C942.052 517.228 940.78 518.676 939.569 520.484C938.358 522.292 937.103 524.224 935.802 526.28C934.253 528.89 932.584 531.424 930.793 533.881C929.002 536.338 926.937 538.317 924.599 539.819C922.325 541.327 919.564 541.918 916.316 541.591C912.496 541.207 909.233 539.753 906.528 537.229C903.88 534.776 901.959 531.495 900.764 527.387C899.569 523.279 899.24 518.55 899.779 513.201Z" fill="white"/>
<path d="M933.029 587.341C934.556 587.818 935.762 587.926 936.648 587.667C937.534 587.407 938.148 586.727 938.491 585.627C938.663 585.077 938.764 584.539 938.794 584.012C938.886 583.504 938.931 583.25 938.931 583.25L944.075 585.459C943.728 587.429 943.412 589.409 943.127 591.398C942.883 593.467 942.657 595.374 942.447 597.119C942.299 598.883 942.164 600.283 942.042 601.317C941.902 602.413 941.831 602.961 941.831 602.961L940.108 603.328C939.428 602.714 938.25 601.977 936.573 601.119C934.878 600.322 932.846 599.42 930.479 598.413C928.172 597.425 925.664 596.441 922.952 595.46C920.302 594.499 917.603 593.59 914.854 592.732C909.905 591.188 906.83 592.34 905.629 596.189C905.19 597.594 905.128 599.083 905.442 600.656C905.797 602.309 906.191 603.84 906.623 605.248L925.501 611.14C927.273 611.693 928.52 611.78 929.241 611.402C930.005 611.104 930.665 610.17 931.221 608.6C931.298 608.356 931.372 608.01 931.444 607.564C931.559 607.197 931.626 606.983 931.645 606.922L936.639 609.285C936.255 611.378 935.91 613.449 935.605 615.5C935.343 617.63 935.076 619.558 934.806 621.284C934.596 623.029 934.421 624.449 934.281 625.545C934.14 626.641 934.069 627.189 934.069 627.189L932.346 627.556C931.563 626.842 929.732 625.835 926.852 624.534C924.034 623.253 920.586 621.841 916.508 620.3C912.43 618.76 908.069 617.265 903.426 615.816C902.265 615.453 901.263 615.442 900.419 615.783C899.557 616.184 898.963 616.904 898.639 617.942C898.41 618.675 898.313 619.416 898.348 620.164C898.444 620.932 898.547 621.567 898.658 622.071C898.769 622.575 898.824 622.827 898.824 622.827L896.563 623.63C896.563 623.63 896.221 623.222 895.537 622.405C894.914 621.607 894.175 620.538 893.319 619.199C892.506 617.939 891.782 616.607 891.147 615.202C890.574 613.816 890.337 612.536 890.436 611.36C892.19 605.739 895.514 603.357 900.409 604.214L901.004 603.596C899.549 600.526 898.444 597.835 897.691 595.522C896.919 593.27 896.647 591.777 896.876 591.044C898.325 586.401 900.408 583.162 903.126 581.329C905.844 579.495 909.066 579.16 912.793 580.323L933.029 587.341Z" fill="white"/>
<path d="M852.338 658.603L857.082 662.121C856.379 663.781 856.238 665.021 856.66 665.841C857.051 666.718 858.238 667.745 860.22 668.921C861.251 669.568 862.534 670.355 864.069 671.283C865.548 672.179 867.083 673.106 868.673 674.064C870.208 674.992 871.591 675.798 872.821 676.482L896.561 689.693C898.463 690.751 899.948 691.174 901.017 690.964C902.056 690.809 903.01 689.949 903.882 688.383L904.488 687.292L905.095 687.19L909.223 690.037C908.214 692.771 907.252 695.422 906.337 697.989C905.477 700.586 904.783 702.69 904.253 704.3C903.748 705.996 903.496 706.845 903.496 706.845L902.237 707.133C902.237 707.133 901.728 706.666 900.709 705.733C899.715 704.887 898.634 704.066 897.466 703.269L896.859 703.372C897.659 706.673 898.158 709.331 898.355 711.345C898.609 713.39 898.58 714.693 898.269 715.252C896.433 718.551 894.075 721.011 891.196 722.632C888.285 724.308 885.043 725.067 881.469 724.91C877.95 724.783 874.346 723.693 870.655 721.639C867.355 719.803 864.674 717.578 862.612 714.966C860.575 712.441 859.138 709.627 858.301 706.525C857.489 703.509 857.314 700.336 857.776 697.004C858.263 693.76 859.409 690.516 861.214 687.272C861.432 686.88 861.74 686.393 862.138 685.809C862.505 685.28 862.841 684.808 863.146 684.392C863.395 683.945 863.52 683.721 863.52 683.721C862.289 683.036 861.031 682.336 859.745 681.62C858.372 680.929 857.014 680.21 855.672 679.464C853.491 678.25 851.887 677.578 850.862 677.446C849.836 677.315 848.95 677.92 848.203 679.263C847.861 679.878 847.531 680.537 847.213 681.239C846.865 681.997 846.612 682.516 846.457 682.795L846.028 682.776L841.424 679.006C841.611 678.671 841.966 678.099 842.488 677.291C842.924 676.508 843.45 675.629 844.066 674.654C844.595 673.703 845.14 672.724 845.7 671.718C846.26 670.711 846.758 669.816 847.194 669.033C848.065 667.467 848.908 665.886 849.724 664.289C850.483 662.661 851.131 661.3 851.666 660.206C852.114 659.137 852.338 658.603 852.338 658.603ZM866.375 693.989C864.85 696.729 864.675 699.415 865.848 702.045C867.077 704.706 869.593 707.095 873.395 709.211C876.136 710.736 878.715 711.695 881.133 712.088C883.519 712.538 885.602 712.415 887.38 711.72C889.183 711.112 890.552 709.969 891.485 708.291C891.921 707.508 892.198 706.417 892.317 705.019C892.492 703.651 892.468 702.247 892.246 700.804C890.127 699.479 887.84 698.06 885.386 696.548C882.9 695.091 880.415 693.635 877.929 692.179C875.469 690.809 873.204 689.549 871.135 688.398C870.569 688.888 869.791 689.628 868.802 690.615C867.869 691.634 867.06 692.759 866.375 693.989Z" fill="white"/>
<path d="M816.2 755.652C819.08 752.22 822.255 749.83 825.726 748.482C829.156 747.183 832.721 746.916 836.423 747.683C840.083 748.498 843.629 750.346 847.061 753.226C849.757 755.488 851.863 758.007 853.377 760.782C854.892 763.557 855.825 766.428 856.175 769.396C856.574 772.404 856.355 775.354 855.518 778.243C854.729 781.174 853.307 783.865 851.25 786.317C844.338 794.553 836.715 795.174 828.381 788.181C827.646 787.564 826.947 786.852 826.286 786.047C825.584 785.291 825.054 784.678 824.695 784.21L824.553 782.587L840.535 763.541C837.07 760.8 833.765 759.363 830.619 759.229C827.48 759.186 824.682 760.43 822.223 762.962C819.764 765.494 817.846 769.273 816.469 774.3L815.742 774.568L811.152 772.72C811.239 771.123 811.459 769.218 811.81 767.007C812.211 764.837 812.776 762.721 813.504 760.658C814.232 758.596 815.131 756.927 816.2 755.652ZM844.58 766.935L836.714 777.503C836.27 778.133 836.084 778.603 836.156 778.915C836.237 779.317 836.596 779.785 837.233 780.32C838.998 781.801 840.675 782.54 842.265 782.537C843.855 782.534 845.287 781.773 846.563 780.253C848.167 778.341 848.822 776.217 848.527 773.88C848.239 771.634 846.924 769.319 844.58 766.935Z" fill="white"/>
<path d="M786.17 799.097C784.787 800.434 784.14 801.652 784.229 802.749C784.27 803.888 785.096 805.41 786.708 807.316L799.041 821.906C800.446 823.568 801.616 824.506 802.552 824.721C803.529 824.984 804.628 824.599 805.85 823.566C806.143 823.319 806.44 823.026 806.741 822.687C807.034 822.44 807.181 822.316 807.181 822.316L807.981 822.519L810.64 826.556C808.828 828.675 807.085 830.777 805.412 832.862C803.738 834.947 802.345 836.67 801.232 838.03C800.111 839.48 799.551 840.205 799.551 840.205L798.333 840.103C798.333 840.103 798.097 839.674 797.624 838.817C797.143 838.05 796.497 837.088 795.686 835.93C794.916 834.821 794.101 833.708 793.241 832.592L792.553 832.67C792.931 836.29 792.753 839.499 792.019 842.298C791.284 845.098 790.086 847.2 788.425 848.605C787.643 849.266 786.99 849.734 786.468 850.008C785.938 850.372 785.673 850.554 785.673 850.554L784.884 850.216C784.884 850.216 784.606 849.738 784.05 848.783C783.487 847.919 782.745 846.744 781.825 845.259C780.856 843.815 779.808 842.229 778.681 840.5C777.506 838.812 776.323 837.214 775.132 835.706L779.576 831.446C781.56 833.793 783.008 835.208 783.921 835.693C784.826 836.269 785.694 836.205 786.525 835.503C787.307 834.842 787.89 833.846 788.274 832.516C788.658 831.186 788.807 829.677 788.722 827.989C788.722 827.989 788.374 827.529 787.679 826.608C787.026 825.736 786.19 824.598 785.172 823.196C784.106 821.835 783.018 820.45 781.91 819.04C780.802 817.63 779.839 816.391 779.02 815.324C778.201 814.256 777.668 813.575 777.42 813.282C776.346 812.011 775.407 811.297 774.602 811.139C773.749 811.022 772.785 811.418 771.71 812.327C771.026 812.905 770.264 813.591 769.426 814.383C768.629 815.225 768.23 815.645 768.23 815.645L767.638 815.391L764.354 809.871C764.354 809.871 764.693 809.627 765.369 809.139C766.046 808.65 766.918 807.997 767.986 807.178C768.964 806.352 770.011 805.509 771.127 804.648C772.203 803.739 773.18 802.913 774.06 802.169C775.526 800.93 776.947 799.687 778.323 798.439C779.699 797.192 780.831 796.152 781.718 795.318C782.557 794.525 782.976 794.129 782.976 794.129L786.17 799.097Z" fill="white"/>
<path d="M732.056 835.065L734.655 840.344C733.125 841.52 732.243 842.708 732.009 843.908C731.775 845.108 732.097 846.415 732.974 847.829L744.875 866.995C745.706 868.211 746.609 868.818 747.586 868.814C748.563 868.81 750.102 868.194 752.202 866.965L752.832 867.252L754.762 871.817L750.293 875.721L750.698 876.374C753.547 881.084 755.219 885.658 755.715 890.096C756.157 894.568 755.429 898.673 753.532 902.412C751.635 906.152 748.62 909.304 744.488 911.87C741.66 913.625 739.191 914.744 737.08 915.226C735.002 915.763 733.964 916.031 733.964 916.031L732.878 915.01C732.878 915.01 732.738 914.118 732.458 912.333C732.179 910.548 731.785 908.457 731.276 906.061L732.103 905.209C732.103 905.209 732.635 905.217 733.7 905.234C734.745 905.339 736.071 905.231 737.68 904.91C739.323 904.643 740.987 903.987 742.672 902.94C744.521 901.792 745.773 900.412 746.429 898.799C747.065 897.275 747.063 895.392 746.426 893.152C745.822 890.965 744.557 888.323 742.633 885.224L740.385 881.421C738.428 882.637 736.678 883.761 735.135 884.794C733.592 885.828 732.358 886.631 731.434 887.205C730.489 887.867 730.016 888.198 730.016 888.198L729.518 887.942L726.941 881.972C726.941 881.972 727.376 881.702 728.246 881.161C729.15 880.676 730.38 879.987 731.936 879.096C733.492 878.206 735.222 877.169 737.125 875.988L723.595 853.652C722.009 851.097 720.073 850.528 717.79 851.946C716.539 852.722 715.414 853.458 714.415 854.154C713.416 854.85 712.916 855.198 712.916 855.198L712.387 855.074L709.861 849.185C709.861 849.185 710.313 848.942 711.216 848.456C712.086 847.916 713.191 847.268 714.529 846.512C715.78 845.736 717.074 844.97 718.413 844.214C719.718 843.404 720.805 842.728 721.675 842.188C722.817 841.479 724.013 840.737 725.264 839.96C726.481 839.129 727.616 838.349 728.67 837.62C729.69 836.836 730.509 836.214 731.128 835.754C731.746 835.295 732.056 835.065 732.056 835.065Z" fill="white"/>
<path d="M653.803 876.122C656.404 875.044 658.719 874.779 660.746 875.324C662.714 875.895 664.299 877.213 665.501 879.278L666.32 879.25C666.954 877.602 667.671 875.989 668.472 874.41C669.298 872.891 670.108 871.585 670.903 870.494C671.722 869.462 672.516 868.787 673.285 868.468C675.591 867.513 677.893 867.218 680.191 867.582C682.49 867.946 684.575 868.884 686.448 870.394C688.32 871.905 689.758 873.872 690.762 876.296C691.522 878.129 691.698 879.892 691.29 881.585C690.848 883.361 689.974 884.762 688.667 885.788L673.202 896.87L673.995 899.035C675.049 901.577 676.549 903.277 678.497 904.132C680.385 905.013 682.542 904.951 684.966 903.947C686.622 903.261 688.224 902.112 689.773 900.501C691.347 898.949 692.628 897.275 693.617 895.48L694.562 895.504L698.274 900.201C696.975 901.917 695.47 903.718 693.758 905.605C692.07 907.551 690.427 909.27 688.828 910.764C687.171 912.281 685.84 913.248 684.835 913.665C681.405 915.085 678.376 915.716 675.748 915.558C673.119 915.4 670.922 914.612 669.158 913.196C667.418 911.838 666.071 910.006 665.116 907.7C664.797 906.932 664.396 905.712 663.912 904.043C663.428 902.373 662.913 900.543 662.366 898.552C661.818 896.562 661.278 894.673 660.746 892.885C660.213 891.097 659.738 889.7 659.322 888.695C658.857 887.571 658.223 886.795 657.422 886.365C656.561 885.959 655.628 885.965 654.623 886.381C653.854 886.699 653.159 887.195 652.537 887.868C651.856 888.566 651.341 889.16 650.99 889.652L648.888 888.341C649.063 887.09 649.354 885.619 649.762 883.926C650.193 882.293 650.733 880.753 651.381 879.307C652.054 877.92 652.861 876.858 653.803 876.122ZM673.493 878.254C672.606 878.621 671.669 879.286 670.683 880.249C669.661 881.295 668.825 882.369 668.172 883.471L671.396 892.007L679.784 885.415C681.032 884.414 681.337 883.144 680.701 881.607C680.064 880.069 679.082 878.952 677.754 878.255C676.392 877.642 674.971 877.641 673.493 878.254Z" fill="white"/>
<path d="M586.338 904.019C584.863 904.554 583.868 905.279 583.353 906.193C582.783 907.18 582.576 908.438 582.73 909.968L584.804 926.448C585.204 929.236 586.006 931.222 587.211 932.407C588.424 933.655 590.077 934.129 592.167 933.829C593.181 933.684 594.226 933.308 595.303 932.701C596.316 932.103 597.257 931.45 598.125 930.744C598.93 930.046 599.559 929.471 600.011 929.018C599.893 927.29 599.742 925.339 599.56 923.167C599.314 921.004 599.1 918.837 598.918 916.664C598.681 914.565 598.476 912.687 598.303 911.031C598.13 909.374 597.994 908.198 597.894 907.501C597.657 905.854 597.272 904.745 596.738 904.176C596.212 903.669 595.443 903.488 594.429 903.634C593.986 903.698 593.447 903.775 592.814 903.866C592.189 904.02 591.877 904.097 591.877 904.097L591.633 903.744L591.738 897.716C591.738 897.716 592.312 897.666 593.462 897.566C594.611 897.466 595.982 897.333 597.575 897.17C599.096 896.951 600.489 896.751 601.756 896.57C603.403 896.333 605.114 896.088 606.888 895.833C608.589 895.525 610.037 895.252 611.232 895.016C612.426 894.78 613.024 894.662 613.024 894.662L613 900.581C611.19 901.035 609.987 901.66 609.39 902.457C608.739 903.326 608.54 904.648 608.795 906.422L611.686 926.567C611.995 928.721 612.557 930.16 613.372 930.884C614.123 931.616 615.386 931.855 617.16 931.601L618.395 931.424L618.844 931.844L619.078 936.854C616.227 937.715 613.535 938.554 611.001 939.37C608.413 940.259 606.287 940.984 604.622 941.547C602.902 942.181 602.043 942.499 602.043 942.499L601.146 941.657C601.146 941.657 601.204 940.938 601.321 939.499C601.384 938.132 601.36 936.616 601.251 934.951L600.925 934.706C600.255 935.449 599.409 936.314 598.387 937.301C597.311 938.361 596.23 939.389 595.144 940.385C594.005 941.454 592.933 942.319 591.928 942.98C590.933 943.705 590.151 944.108 589.58 944.19C586.033 944.699 583.023 944.452 580.552 943.449C578.08 942.445 576.246 940.704 575.05 938.225C574.435 938.895 573.621 939.756 572.608 940.806C571.595 941.857 570.514 942.885 569.365 943.89C568.225 944.959 567.126 945.86 566.068 946.594C565.018 947.391 564.177 947.835 563.543 947.926C558.982 948.58 555.307 947.976 552.518 946.113C549.675 944.323 547.981 941.527 547.435 937.726C547.299 936.776 547.185 935.305 547.093 933.314C547.001 931.323 546.914 929.137 546.831 926.757C546.685 924.386 546.557 922.141 546.447 920.023C546.337 917.905 546.195 916.245 546.023 915.041C545.777 913.33 545.383 912.158 544.839 911.525C544.242 910.964 543.404 910.761 542.327 910.916C541.757 910.998 541.128 911.12 540.441 911.284C539.753 911.447 539.409 911.529 539.409 911.529L539.164 911.176L539.283 905.243C539.283 905.243 539.667 905.22 540.437 905.174C541.134 905.074 542.025 904.979 543.111 904.887C544.188 904.733 545.333 904.601 546.546 904.492C547.686 904.328 548.731 904.178 549.682 904.042C550.569 903.914 551.609 903.733 552.804 903.497C553.935 903.27 555.039 903.079 556.116 902.924C557.184 902.707 558.094 902.511 558.845 902.339C559.532 902.176 559.876 902.094 559.876 902.094L560.057 908.081C558.636 908.543 557.659 909.169 557.125 909.956C556.601 910.807 556.457 912.057 556.693 913.704L558.767 930.184C559.103 932.981 559.874 934.972 561.079 936.156C562.292 937.405 563.976 937.874 566.13 937.565C567.143 937.42 568.161 937.08 569.184 936.545C570.143 936.02 571.025 935.408 571.83 934.711C572.635 934.013 573.291 933.402 573.798 932.877L571.965 911.318C571.738 909.735 571.348 908.594 570.795 907.898C570.252 907.265 569.442 907.025 568.365 907.18C567.858 907.253 567.292 907.366 566.668 907.52C566.043 907.675 565.731 907.752 565.731 907.752L565.487 907.399L565.605 901.466C565.605 901.466 565.958 901.448 566.664 901.411C567.361 901.311 568.252 901.215 569.339 901.124C570.352 900.979 571.434 900.856 572.583 900.756C573.723 900.592 574.737 900.447 575.624 900.319C576.574 900.183 577.647 899.997 578.841 899.761C579.963 899.47 581.09 899.212 582.221 898.985C583.352 898.758 584.294 898.558 585.045 898.386C585.787 898.15 586.158 898.032 586.158 898.032L586.338 904.019Z" fill="white"/>
<path d="M508.591 903.792L507.382 909.768C505.508 909.951 504.12 910.491 503.22 911.387C502.257 912.279 501.711 913.587 501.585 915.31L500.066 935.99C499.916 938.033 500.1 939.458 500.619 940.266C501.137 941.074 502.162 941.535 503.694 941.647C504.077 941.675 504.56 941.647 505.144 941.561C505.659 941.535 505.917 941.522 505.917 941.522L504.942 946.937C502.748 947.097 500.587 947.259 498.457 947.423C496.258 947.647 494.286 947.855 492.539 948.047C490.724 948.299 489.299 948.483 488.263 948.6C487.164 948.712 486.615 948.768 486.615 948.768L485.865 947.172C486.236 946.494 486.656 945.145 487.125 943.126C487.526 941.166 487.932 938.693 488.344 935.707C488.751 932.785 489.159 929.414 489.567 925.594C489.972 921.837 490.328 917.853 490.638 913.64C490.745 912.172 490.602 911.07 490.206 910.335C489.807 909.664 489.064 909.289 487.979 909.209C487.468 909.172 486.892 909.162 486.249 909.178C485.542 909.191 485.188 909.197 485.188 909.197L484.936 908.697L486.323 902.927C486.323 902.927 486.671 902.985 487.369 903.1C488.071 903.152 488.994 903.252 490.138 903.4C491.223 903.479 492.37 903.596 493.578 903.749C494.727 903.833 495.812 903.913 496.833 903.988C498.365 904.1 500.063 904.129 501.929 904.073C503.73 904.013 505.305 903.968 506.655 903.939C507.946 903.841 508.591 903.792 508.591 903.792ZM493.765 957.571C495.935 957.73 497.55 958.458 498.61 959.755C499.601 961.112 500.024 962.779 499.879 964.758C499.715 966.992 498.879 968.759 497.372 970.06C495.86 971.425 493.987 972.026 491.753 971.862C489.647 971.707 488.098 970.952 487.107 969.596C486.051 968.235 485.597 966.565 485.742 964.586C485.906 962.352 486.71 960.582 488.153 959.276C489.597 957.971 491.467 957.402 493.765 957.571Z" fill="white"/>
<path d="M445.945 902.159L444.231 907.799C442.65 907.9 441.494 908.177 440.761 908.628C439.965 909.068 439.412 909.781 439.101 910.765C438.717 911.801 438.381 913.105 438.093 914.679L430.082 958.497C429.783 960.134 429.722 961.359 429.898 962.172C430.012 962.973 430.492 963.549 431.339 963.899C432.174 964.312 433.485 964.617 435.271 964.813L435.58 965.26L434.098 970.161C430.881 969.964 427.653 969.829 424.413 969.757C421.11 969.674 417.795 969.653 414.47 969.696L414.137 967.781C414.613 966.957 415.221 965.409 415.961 963.137C416.691 960.928 417.509 958.053 418.417 954.51C419.325 950.968 420.299 946.884 421.34 942.26C422.369 937.699 423.416 932.685 424.48 927.22C425.544 921.754 426.629 915.999 427.734 909.955C428.01 908.444 428.023 907.308 427.771 906.546C427.446 905.836 426.748 905.383 425.678 905.188L422.527 904.807L422.347 904.188L424.404 898.807C426.03 899.169 427.844 899.566 429.847 899.997C431.85 900.428 433.576 900.776 435.024 901.041C436.346 901.283 437.994 901.519 439.969 901.75C441.955 901.918 443.947 902.054 445.945 902.159Z" fill="white"/>
<path d="M393.99 873.258C394.414 873.402 394.886 873.902 395.406 874.755C395.947 875.548 396.476 876.473 396.995 877.529C397.453 878.565 397.81 879.599 398.066 880.634C398.342 881.607 398.398 882.336 398.232 882.821L397.224 883.694C393.184 882.653 389.267 882.736 385.474 883.944C381.68 885.151 378.144 887.292 374.863 890.365C374.93 892.349 374.995 894.636 375.057 897.227C375.038 899.858 375.049 902.601 375.089 905.455C375.109 908.369 375.149 911.223 375.21 914.017C375.271 916.81 375.344 919.371 375.429 921.699C375.493 924.088 375.579 926.112 375.689 927.772C375.88 929.393 376.306 930.62 376.968 931.455C377.609 932.35 378.586 933.055 379.898 933.571L379.924 934.087L377.552 938.958C377.189 938.834 376.583 938.627 375.735 938.338C374.887 938.048 373.989 937.708 373.04 937.317C372.011 936.965 371.163 936.676 370.496 936.448C368.921 935.911 367.336 935.404 365.741 934.927C364.085 934.429 362.58 933.983 361.227 933.589C359.853 933.255 358.732 932.974 357.863 932.745C356.995 932.517 356.56 932.402 356.56 932.402L356.534 931.886L359.028 926.955C360.805 927.494 362.058 927.685 362.788 927.529C363.437 927.412 363.885 926.99 364.133 926.263C364.298 925.779 364.457 924.818 364.609 923.382C364.74 922.007 364.863 920.358 364.978 918.437C365.072 916.575 365.187 914.653 365.323 912.671C365.398 910.668 365.462 908.796 365.515 907.056C365.547 905.376 365.577 904 365.605 902.928C365.633 901.855 365.647 901.319 365.647 901.319L364.738 901.009C363.024 903.061 361.258 905.164 359.441 907.316C357.564 909.448 355.86 911.47 354.328 913.382C352.715 915.333 351.408 916.984 350.407 918.332C349.405 919.681 348.832 920.568 348.688 920.992C348.44 921.719 348.486 922.276 348.828 922.663C349.088 923.089 349.733 923.479 350.762 923.83L353.67 924.822L353.787 925.369L351.324 930.209C351.324 930.209 350.819 930.003 349.81 929.591C348.781 929.24 347.549 928.786 346.116 928.229C344.623 927.652 343.179 927.125 341.786 926.65C340.757 926.298 339.697 925.937 338.606 925.565C337.435 925.232 336.395 924.911 335.486 924.601C334.578 924.291 333.881 924.053 333.397 923.888L335.984 918.685C337.359 918.816 338.453 918.682 339.266 918.283C340.057 917.945 341.014 917.122 342.137 915.814L363.257 891.678C366.726 887.655 369.927 884.318 372.861 881.668C375.754 878.936 378.431 876.84 380.89 875.38C383.37 873.86 385.674 872.955 387.801 872.667C389.888 872.297 391.951 872.494 393.99 873.258Z" fill="white"/>
<path d="M282.904 840.766C285.624 842.684 287.845 844.643 289.568 846.641C291.276 848.55 292.539 850.146 293.358 851.428C294.139 852.763 294.53 853.43 294.53 853.43L294.383 854.971C294.383 854.971 294.073 855.3 293.452 855.959C292.741 856.633 291.891 857.56 290.901 858.742C289.822 859.939 288.651 861.266 287.388 862.724C286.087 864.235 284.865 865.801 283.722 867.422L276.957 863.356C278.986 860.479 280.31 858.046 280.931 856.056C281.551 854.066 281.455 852.314 280.643 850.801C279.778 849.251 278.247 847.702 276.05 846.153C273.54 844.382 271.139 843.511 268.848 843.54C266.556 843.568 264.728 844.55 263.364 846.485C262.331 847.95 262.021 849.61 262.434 851.468C262.794 853.289 263.55 855.271 264.701 857.414C265.763 859.573 266.956 861.824 268.279 864.167C269.618 866.599 270.812 869.125 271.862 871.745C272.86 874.328 273.377 876.926 273.415 879.537C273.401 882.111 272.527 884.627 270.793 887.085C268.654 890.119 265.865 892.185 262.427 893.284C258.936 894.347 255.187 894.444 251.179 893.575C247.082 892.721 242.994 890.856 238.914 887.979C236.352 886.171 234.206 884.384 232.477 882.616C230.658 880.863 229.303 879.398 228.41 878.221C227.518 877.043 227.072 876.454 227.072 876.454L227.242 875.047C227.242 875.047 227.815 874.512 228.962 873.441C230.072 872.423 231.522 870.978 233.311 869.107C235.011 867.252 236.77 865.203 238.586 862.96L244.724 866.584L245.098 867.553C245.098 867.553 244.869 867.822 244.411 868.36C243.953 868.899 243.465 869.534 242.949 870.266C241.289 872.62 240.71 874.718 241.212 876.56C241.662 878.365 243.273 880.245 246.045 882.2C248.293 883.786 250.537 884.547 252.777 884.481C254.963 884.379 256.628 883.517 257.772 881.896C258.731 880.536 259.109 879.001 258.905 877.291C258.612 875.596 257.976 873.777 256.998 871.834C256.019 869.891 254.954 867.847 253.803 865.704C252.291 863.072 250.906 860.372 249.647 857.604C248.388 854.837 247.68 852.066 247.522 849.292C247.327 846.57 248.17 843.875 250.052 841.208C252.265 838.07 255.135 835.943 258.663 834.829C262.101 833.729 265.902 833.669 270.067 834.649C274.232 835.629 278.511 837.668 282.904 840.766Z" fill="white"/>
<path d="M203.956 822.253C202.788 823.347 202.099 824.343 201.889 825.242C201.678 826.141 201.966 827.01 202.754 827.851C203.148 828.272 203.566 828.625 204.01 828.911C204.407 829.241 204.605 829.406 204.605 829.406L200.147 832.792C198.604 831.519 197.038 830.268 195.448 829.038C193.768 827.806 192.22 826.669 190.805 825.626C189.344 824.628 188.193 823.82 187.353 823.204C186.469 822.541 186.027 822.21 186.027 822.21L186.557 820.529C187.427 820.241 188.649 819.579 190.222 818.544C191.751 817.462 193.538 816.139 195.581 814.576C197.578 813.057 199.671 811.359 201.861 809.484C204.003 807.652 206.126 805.752 208.228 803.783C212.011 800.239 212.525 796.996 209.769 794.053C208.762 792.979 207.498 792.191 205.975 791.688C204.361 791.182 202.835 790.77 201.397 790.452L186.963 803.971C185.608 805.239 184.918 806.281 184.891 807.095C184.774 807.906 185.261 808.941 186.352 810.199C186.527 810.386 186.791 810.621 187.144 810.904C187.406 811.184 187.559 811.348 187.603 811.395L183.084 814.575C181.454 813.208 179.822 811.887 178.188 810.611C176.464 809.332 174.918 808.15 173.55 807.064C172.135 806.021 170.986 805.169 170.102 804.506C169.218 803.843 168.776 803.511 168.776 803.511L169.306 801.831C170.313 801.502 172.092 800.405 174.644 798.542C177.148 796.722 180.076 794.418 183.428 791.63C186.779 788.841 190.229 785.785 193.779 782.46C194.667 781.628 195.171 780.762 195.291 779.86C195.367 778.912 195.033 778.041 194.29 777.247C193.765 776.686 193.168 776.236 192.5 775.898C191.785 775.603 191.181 775.379 190.688 775.227C190.195 775.075 189.948 774.999 189.948 774.999L190.365 772.636C190.365 772.636 190.889 772.54 191.937 772.347C192.938 772.199 194.232 772.083 195.82 771.999C197.317 771.912 198.833 771.939 200.368 772.08C201.856 772.264 203.087 772.69 204.061 773.355C208.086 777.653 208.519 781.719 205.36 785.555L205.605 786.378C208.993 786.625 211.879 786.991 214.263 787.477C216.603 787.915 218.035 788.415 218.56 788.975C221.885 792.525 223.676 795.935 223.931 799.203C224.186 802.472 222.889 805.44 220.04 808.109L203.956 822.253Z" fill="white"/>
<path d="M194.789 730.423L189.4 732.84C188.297 731.415 187.284 730.686 186.362 730.652C185.406 730.565 183.93 731.098 181.935 732.251C180.866 732.834 179.552 733.569 177.992 734.454C176.487 735.305 174.928 736.191 173.314 737.109C171.755 737.994 170.375 738.806 169.177 739.545L146.043 753.791C144.19 754.932 143.094 756.02 142.755 757.056C142.382 758.037 142.666 759.29 143.605 760.816L144.26 761.879L144.052 762.458L139.55 764.667C137.658 762.449 135.817 760.314 134.026 758.26C132.181 756.239 130.685 754.605 129.54 753.356C128.307 752.086 127.691 751.451 127.691 751.451L128.055 750.211C128.055 750.211 128.711 749.995 130.023 749.563C131.248 749.11 132.493 748.569 133.759 747.939L133.966 747.361C130.695 746.443 128.133 745.578 126.28 744.766C124.372 743.986 123.25 743.324 122.914 742.779C120.934 739.564 119.942 736.304 119.937 733.001C119.898 729.642 120.821 726.443 122.707 723.402C124.538 720.396 127.252 717.785 130.849 715.57C134.064 713.59 137.315 712.339 140.602 711.818C143.801 711.276 146.958 711.399 150.074 712.186C153.101 712.953 155.955 714.352 158.635 716.385C161.227 718.397 163.496 720.983 165.442 724.144C165.677 724.525 165.952 725.032 166.267 725.665C166.548 726.244 166.795 726.768 167.009 727.237C167.278 727.673 167.412 727.891 167.412 727.891C168.611 727.153 169.837 726.398 171.09 725.626C172.365 724.766 173.656 723.933 174.964 723.128C177.089 721.819 178.46 720.75 179.076 719.919C179.692 719.089 179.597 718.02 178.792 716.712C178.423 716.112 178.009 715.502 177.552 714.882C177.061 714.207 176.732 713.733 176.564 713.461L176.791 713.096L182.331 710.925C182.532 711.252 182.857 711.841 183.306 712.692C183.776 713.455 184.286 714.343 184.835 715.358C185.406 716.284 185.993 717.238 186.597 718.219C187.201 719.2 187.738 720.072 188.208 720.834C189.148 722.36 190.115 723.869 191.109 725.362C192.157 726.821 193.028 728.051 193.72 729.053C194.433 729.966 194.789 730.423 194.789 730.423ZM157.059 725.36C155.415 722.69 153.159 721.223 150.291 720.96C147.368 720.73 144.054 721.756 140.348 724.038C137.678 725.683 135.58 727.463 134.055 729.38C132.495 731.242 131.584 733.118 131.321 735.009C130.969 736.88 131.297 738.632 132.303 740.267C132.773 741.03 133.589 741.805 134.751 742.593C135.858 743.415 137.095 744.081 138.462 744.592C140.654 743.392 143.01 742.092 145.53 740.69C148.015 739.235 150.501 737.779 152.987 736.323C155.385 734.847 157.592 733.488 159.608 732.246C159.457 731.512 159.193 730.472 158.815 729.127C158.383 727.814 157.797 726.559 157.059 725.36Z" fill="white"/>
<path d="M127.789 651.276C129.363 655.471 129.884 659.411 129.353 663.096C128.799 666.722 127.279 669.958 124.793 672.805C122.284 675.592 118.933 677.773 114.738 679.346C111.443 680.583 108.214 681.179 105.053 681.135C101.892 681.091 98.9332 680.492 96.1764 679.339C93.3597 678.208 90.8987 676.568 88.7934 674.419C86.6282 672.292 84.9835 669.731 83.8593 666.735C80.0821 656.668 83.2867 649.723 93.4732 645.901C94.372 645.564 95.3345 645.305 96.3607 645.125C97.3644 644.885 98.1584 644.724 98.7426 644.642L100.226 645.316L108.961 668.595C113.05 666.924 115.926 664.751 117.589 662.076C119.169 659.364 119.46 656.316 118.463 652.93C117.466 649.544 115.117 646.017 111.416 642.347L111.54 641.583L115.404 638.492C116.753 639.354 118.304 640.481 120.057 641.874C121.75 643.289 123.316 644.82 124.754 646.468C126.193 648.116 127.204 649.719 127.789 651.276ZM104.017 670.45L98.6779 658.406C98.3482 657.709 98.0297 657.316 97.7226 657.226C97.3331 657.099 96.7488 657.181 95.9698 657.474C93.8127 658.283 92.3447 659.381 91.566 660.767C90.7872 662.153 90.7464 663.774 91.4434 665.632C92.3202 667.969 93.8486 669.583 96.0286 670.474C98.1261 671.327 100.789 671.319 104.017 670.45Z" fill="white"/>
<path d="M104.882 604.551C104.396 602.689 103.654 601.528 102.653 601.067C101.641 600.544 99.9095 600.516 97.4577 600.983L78.692 604.563C76.5546 604.97 75.1626 605.529 74.5161 606.239C73.8068 606.96 73.602 608.107 73.9018 609.679C73.9737 610.056 74.0831 610.458 74.2299 610.887C74.3018 611.264 74.3378 611.452 74.3378 611.452L73.7676 612.05L68.9447 612.383C67.989 609.764 67.0139 607.213 66.0194 604.732C65.0248 602.25 64.2085 600.191 63.5704 598.553C62.8574 596.865 62.501 596.021 62.501 596.021L63.1878 595.01C63.1878 595.01 63.6773 595.015 64.6562 595.023C65.5604 594.981 66.7159 594.891 68.123 594.753C69.4672 594.627 70.8368 594.463 72.2318 594.263L72.5011 593.625C69.1627 592.177 66.4544 590.445 64.3762 588.431C62.298 586.417 61.055 584.341 60.6473 582.203C60.4555 581.198 60.3684 580.4 60.3863 579.81C60.3292 579.169 60.3007 578.849 60.3007 578.849L60.9831 578.328C60.9831 578.328 61.5355 578.32 62.6402 578.305C63.6701 578.239 65.0577 578.17 66.803 578.097C68.5364 577.962 70.4329 577.829 72.4926 577.696C74.5403 577.501 76.5132 577.255 78.4112 576.958L79.9395 582.922C76.9219 583.497 74.9776 584.063 74.1065 584.621C73.1606 585.127 72.7896 585.914 72.9934 586.983C73.1853 587.989 73.7663 588.986 74.7366 589.973C75.7068 590.961 76.948 591.832 78.46 592.586C78.46 592.586 79.0318 592.509 80.1754 592.356C81.2561 592.215 82.6572 592.046 84.3786 591.848C86.0879 591.587 87.8288 591.32 89.601 591.047C91.3733 590.774 92.9255 590.544 94.2577 590.355C95.5899 590.166 96.4446 590.035 96.8218 589.963C98.4563 589.651 99.54 589.184 100.073 588.561C100.593 587.876 100.722 586.841 100.458 585.458C100.29 584.578 100.067 583.578 99.7882 582.459C99.4467 581.351 99.2759 580.797 99.2759 580.797L99.7877 580.406L106.209 580.256C106.209 580.256 106.256 580.671 106.349 581.5C106.442 582.33 106.583 583.41 106.772 584.743C107.012 586 107.232 587.326 107.433 588.721C107.697 590.104 107.937 591.362 108.152 592.493C108.512 594.379 108.897 596.228 109.308 598.039C109.719 599.85 110.069 601.347 110.36 602.529C110.639 603.649 110.778 604.209 110.778 604.209L104.882 604.551Z" fill="white"/>
<path d="M100.014 539.142L94.1401 538.793C93.8742 536.882 93.2775 535.528 92.35 534.731C91.4226 533.934 90.1275 533.568 88.4647 533.632L65.9215 534.502C64.4531 534.623 63.4791 535.109 62.9996 535.96C62.5201 536.811 62.2953 538.453 62.3252 540.886L61.7644 541.292L56.8424 540.713L55.6572 534.899L54.8898 534.928C49.3874 535.077 44.5847 534.27 40.4816 532.507C36.376 530.68 33.1669 528.017 30.8543 524.52C28.5416 521.023 27.2914 516.844 27.1038 511.983C26.9754 508.658 27.2234 505.958 27.8478 503.885C28.4083 501.813 28.6886 500.778 28.6886 500.778L30.1127 500.339C30.1127 500.339 30.9577 500.658 32.6476 501.298C34.3375 501.937 36.3497 502.628 38.6841 503.37L39.0163 504.51C39.0163 504.51 38.7458 504.969 38.2048 505.887C37.5974 506.743 37.0355 507.949 36.5192 509.506C35.9389 511.066 35.6871 512.837 35.7636 514.819C35.8476 516.994 36.4284 518.765 37.5059 520.132C38.5171 521.438 40.1541 522.368 42.4172 522.921C44.6162 523.476 47.5384 523.684 51.1837 523.543L55.6001 523.468C55.5112 521.166 55.399 519.089 55.2634 517.237C55.1279 515.385 55.0391 513.915 54.9971 512.828C54.8887 511.679 54.8345 511.105 54.8345 511.105L55.303 510.798L61.7673 511.51C61.7673 511.51 61.7871 512.021 61.8266 513.044C61.8021 514.07 61.7925 515.48 61.7977 517.273C61.8029 519.066 61.8487 521.082 61.9351 523.32L88.0388 522.6C91.0445 522.484 92.4956 521.083 92.3918 518.397C92.3351 516.926 92.2512 515.584 92.1404 514.372C92.0295 513.159 91.974 512.553 91.974 512.553L92.3429 512.154L98.7113 512.869C98.7113 512.869 98.699 513.382 98.6746 514.408C98.7141 515.431 98.7315 516.711 98.7268 518.249C98.7836 519.719 98.8097 521.224 98.805 522.761C98.8643 524.296 98.9136 525.575 98.9532 526.598C99.005 527.941 99.0593 529.348 99.1161 530.819C99.2369 532.287 99.3539 533.66 99.4673 534.936C99.6446 536.211 99.78 537.23 99.8736 537.995C99.9672 538.76 100.014 539.142 100.014 539.142Z" fill="white"/>
<path d="M102.91 449.534C102.563 452.329 101.653 454.473 100.178 455.967C98.7108 457.397 96.7825 458.126 94.3932 458.152L94.0129 458.879C95.1336 460.243 96.1829 461.663 97.1608 463.138C98.0753 464.606 98.811 465.955 99.3679 467.184C99.8613 468.406 100.057 469.43 99.9546 470.256C99.6475 472.733 98.7686 474.881 97.3178 476.7C95.867 478.52 94.0228 479.871 91.7851 480.755C89.5474 481.638 87.1266 481.919 84.5225 481.596C82.5536 481.352 80.9334 480.635 79.6621 479.446C78.3351 478.185 77.5477 476.733 77.2999 475.09L75.2917 456.171L73.017 455.793C70.2859 455.454 68.0677 455.921 66.3623 457.193C64.6648 458.401 63.6546 460.307 63.3318 462.911C63.1114 464.69 63.3199 466.65 63.9571 468.793C64.5309 470.928 65.3545 472.868 66.428 474.613L65.9406 475.423L60.0236 476.334C59.1722 474.359 58.3483 472.161 57.552 469.74C56.6921 467.312 56.0071 465.035 55.4968 462.908C54.9944 460.717 54.8102 459.082 54.944 458.002C55.4006 454.319 56.3461 451.372 57.7807 449.164C59.2152 446.956 60.9838 445.434 63.0866 444.598C65.1258 443.755 67.384 443.486 69.861 443.793C70.6867 443.896 71.9452 444.148 73.6365 444.551C75.3277 444.955 77.1738 445.409 79.1748 445.915C81.1757 446.421 83.0854 446.883 84.9037 447.302C86.7219 447.721 88.171 447.997 89.2507 448.131C90.4575 448.281 91.4456 448.113 92.2151 447.628C92.9925 447.08 93.4481 446.265 93.5819 445.186C93.6842 444.36 93.596 443.511 93.3173 442.638C93.0464 441.701 92.7837 440.959 92.5291 440.412L94.7069 439.231C95.7079 440 96.8441 440.979 98.1155 442.168C99.3233 443.35 100.396 444.579 101.334 445.856C102.209 447.126 102.734 448.351 102.91 449.534ZM91.3407 465.609C91.4588 464.656 91.3425 463.513 90.9918 462.18C90.5855 460.775 90.0643 459.518 89.4281 458.407L80.4127 456.999L82.0074 467.548C82.263 469.127 83.2166 470.019 84.8679 470.224C86.5193 470.429 87.9756 470.125 89.237 469.314C90.4427 468.432 91.1439 467.197 91.3407 465.609Z" fill="white"/>
<path d="M111.656 377.517C111.919 375.97 111.78 374.747 111.24 373.847C110.663 372.864 109.671 372.063 108.265 371.442L92.9096 365.107C90.2882 364.078 88.1649 363.795 86.5397 364.257C84.8549 364.696 83.6268 365.898 82.8553 367.864C82.4812 368.818 82.2923 369.912 82.2885 371.148C82.308 372.325 82.4106 373.465 82.5961 374.569C82.8049 375.614 82.9946 376.444 83.165 377.061C84.7268 377.812 86.4972 378.644 88.476 379.558C90.4782 380.412 92.4688 381.297 94.4476 382.211C96.3903 383.042 98.1244 383.791 99.65 384.459C101.176 385.126 102.266 385.588 102.921 385.846C104.47 386.453 105.625 386.666 106.384 386.483C107.084 386.276 107.621 385.696 107.995 384.743C108.159 384.326 108.357 383.819 108.591 383.224C108.765 382.604 108.853 382.295 108.853 382.295L109.28 382.256L114.47 385.324C114.47 385.324 114.23 385.849 113.749 386.898C113.269 387.947 112.707 389.204 112.063 390.67C111.502 392.1 110.987 393.411 110.52 394.602C109.912 396.151 109.281 397.76 108.626 399.428C108.054 401.06 107.576 402.454 107.191 403.609C106.807 404.764 106.614 405.342 106.614 405.342L101.479 402.399C101.978 400.601 102.029 399.246 101.63 398.333C101.196 397.338 100.145 396.512 98.4767 395.858L79.5313 388.423C77.5057 387.628 75.9771 387.406 74.9454 387.758C73.9371 388.05 73.1056 389.03 72.451 390.698L71.9951 391.86L71.408 392.042L66.9363 389.771C67.5948 386.867 68.1948 384.112 68.7363 381.505C69.2416 378.816 69.661 376.609 69.9943 374.883C70.2915 373.075 70.4401 372.171 70.4401 372.171L71.6143 371.807C71.6143 371.807 72.2112 372.213 73.405 373.025C74.5626 373.754 75.8925 374.482 77.3947 375.209L77.768 375.046C77.4528 374.098 77.1184 372.935 76.7647 371.559C76.3749 370.1 76.0148 368.652 75.6845 367.216C75.318 365.697 75.0952 364.338 75.0161 363.138C74.8773 361.915 74.9132 361.035 75.1236 360.499C76.4328 357.163 78.1339 354.668 80.2266 353.014C82.3194 351.36 84.7391 350.625 87.4857 350.809C87.2067 349.944 86.8606 348.811 86.4473 347.411C86.0341 346.011 85.674 344.564 85.3671 343.068C85.0006 341.549 84.7597 340.149 84.6443 338.866C84.4694 337.56 84.4988 336.609 84.7326 336.013C86.416 331.723 88.7561 328.826 91.7531 327.321C94.7139 325.733 97.9816 325.64 101.556 327.043C102.45 327.393 103.785 328.021 105.562 328.924C107.339 329.828 109.282 330.831 111.393 331.934C113.527 332.978 115.542 333.975 117.438 334.925C119.334 335.876 120.848 336.573 121.98 337.017C123.589 337.648 124.802 337.884 125.621 337.724C126.404 337.481 126.994 336.854 127.392 335.841C127.602 335.305 127.806 334.697 128.004 334.018C128.201 333.34 128.3 333 128.3 333L128.728 332.962L133.828 335.995C133.828 335.995 133.658 336.341 133.318 337.032C133.061 337.687 132.704 338.51 132.247 339.499C131.849 340.512 131.399 341.573 130.895 342.681C130.474 343.754 130.088 344.737 129.738 345.63C129.41 346.464 129.054 347.459 128.67 348.614C128.309 349.71 127.929 350.765 127.532 351.777C127.194 352.814 126.914 353.701 126.693 354.439C126.496 355.118 126.397 355.457 126.397 355.457L121.102 352.657C121.401 351.193 121.34 350.035 120.919 349.182C120.438 348.306 119.423 347.564 117.874 346.956L102.519 340.621C99.9206 339.532 97.809 339.219 96.1838 339.682C94.4991 340.121 93.2592 341.353 92.4643 343.378C92.0903 344.332 91.8832 345.385 91.8432 346.538C91.8266 347.631 91.9227 348.7 92.1316 349.745C92.3405 350.789 92.5482 351.662 92.7549 352.361L112.406 361.414C113.896 361.998 115.08 362.222 115.958 362.086C116.777 361.926 117.385 361.34 117.783 360.327C117.97 359.85 118.15 359.302 118.325 358.683C118.499 358.064 118.586 357.754 118.586 357.754L119.014 357.716L124.114 360.749C124.114 360.749 123.956 361.065 123.639 361.697C123.382 362.352 123.025 363.175 122.568 364.164C122.194 365.117 121.766 366.118 121.286 367.167C120.865 368.24 120.491 369.193 120.164 370.027C119.813 370.921 119.445 371.945 119.061 373.101C118.759 374.22 118.428 375.327 118.066 376.423C117.705 377.519 117.414 378.436 117.193 379.174C117.032 379.936 116.951 380.316 116.951 380.316L111.656 377.517Z" fill="white"/>
<path d="M149.823 303.964L145.219 299.967C145.983 298.246 146.197 296.773 145.861 295.548C145.56 294.269 144.691 293.151 143.254 292.191L126.008 280.677C124.305 279.54 122.974 278.998 122.015 279.051C121.057 279.103 120.151 279.768 119.298 281.046C119.085 281.365 118.872 281.8 118.658 282.35C118.427 282.811 118.312 283.042 118.312 283.042L114.081 279.525C115.023 277.537 115.947 275.576 116.853 273.642C117.742 271.619 118.533 269.8 119.227 268.186C119.902 266.482 120.445 265.151 120.853 264.193C121.298 263.181 121.52 262.676 121.52 262.676L123.277 262.81C123.685 263.467 124.652 264.497 126.177 265.9C127.685 267.215 129.637 268.787 132.032 270.617C134.374 272.411 137.106 274.428 140.229 276.666C143.298 278.869 146.589 281.144 150.102 283.489C151.327 284.306 152.356 284.724 153.19 284.742C153.971 284.725 154.664 284.264 155.268 283.359C155.552 282.933 155.845 282.437 156.147 281.869C156.485 281.248 156.654 280.937 156.654 280.937L157.213 280.964L161.55 285.014C161.55 285.014 161.328 285.289 160.884 285.839C160.493 286.425 159.951 287.179 159.259 288.101C158.654 289.006 157.988 289.946 157.26 290.922C156.62 291.88 156.016 292.785 155.447 293.637C154.595 294.914 153.733 296.378 152.862 298.028C152.027 299.625 151.289 301.018 150.649 302.207C150.098 303.378 149.823 303.964 149.823 303.964ZM110.336 264.559C109.128 266.368 107.698 267.415 106.047 267.698C104.379 267.892 102.719 267.438 101.069 266.337C99.2063 265.093 98.0802 263.494 97.6909 261.542C97.2485 259.553 97.6491 257.628 98.8929 255.765C100.066 254.008 101.486 253.033 103.155 252.839C104.859 252.591 106.536 253.018 108.186 254.12C110.049 255.364 111.193 256.935 111.618 258.835C112.043 260.735 111.615 262.642 110.336 264.559Z" fill="white"/>
<path d="M188.72 257.29L184.666 253.011C185.36 251.588 185.691 250.446 185.661 249.585C185.673 248.676 185.327 247.843 184.625 247.087C183.915 246.24 182.947 245.303 181.722 244.274L147.599 215.641C146.325 214.572 145.29 213.913 144.496 213.664C143.744 213.367 143.006 213.499 142.283 214.062C141.511 214.584 140.598 215.572 139.544 217.027L139.003 217.075L135.475 213.363C137.238 210.665 138.952 207.925 140.617 205.145C142.323 202.316 143.98 199.445 145.587 196.533L147.417 197.191C147.897 198.012 148.942 199.306 150.55 201.074C152.109 202.8 154.204 204.933 156.834 207.474C159.464 210.015 162.531 212.882 166.035 216.073C169.491 219.223 173.331 222.612 177.555 226.241C181.779 229.869 186.244 233.658 190.951 237.607C192.127 238.594 193.109 239.167 193.895 239.326C194.673 239.394 195.412 239.011 196.111 238.178L198.001 235.627L198.627 235.777L202.287 240.227C201.168 241.46 199.926 242.841 198.561 244.369C197.195 245.896 196.039 247.224 195.093 248.352C194.229 249.381 193.209 250.697 192.031 252.299C190.903 253.942 189.799 255.606 188.72 257.29Z" fill="white"/>
<path d="M233.579 223.902C233.245 224.201 232.579 224.369 231.58 224.405C230.624 224.489 229.558 224.499 228.383 224.435C227.256 224.328 226.179 224.133 225.152 223.851C224.168 223.616 223.505 223.307 223.163 222.926L222.894 221.62C225.778 218.605 227.621 215.147 228.423 211.248C229.225 207.349 229.088 203.217 228.012 198.853C226.248 197.941 224.222 196.878 221.931 195.666C219.645 194.363 217.248 193.031 214.739 191.67C212.187 190.262 209.678 188.901 207.211 187.588C204.745 186.275 202.476 185.086 200.404 184.022C198.289 182.909 196.481 181.995 194.979 181.278C193.472 180.652 192.193 180.424 191.141 180.593C190.047 180.715 188.954 181.221 187.863 182.114L187.4 181.884L184.311 177.433C184.597 177.177 185.074 176.749 185.741 176.151C186.408 175.553 187.144 174.936 187.949 174.3C188.76 173.574 189.427 172.976 189.951 172.506C191.19 171.395 192.407 170.261 193.604 169.102C194.848 167.901 195.972 166.807 196.978 165.819C197.941 164.784 198.735 163.943 199.359 163.298C199.984 162.652 200.296 162.329 200.296 162.329L200.759 162.558L203.84 167.145C202.501 168.432 201.721 169.432 201.501 170.145C201.286 170.768 201.434 171.365 201.947 171.937C202.289 172.318 203.049 172.926 204.227 173.761C205.362 174.548 206.74 175.462 208.36 176.502C209.938 177.494 211.558 178.534 213.221 179.622C214.931 180.667 216.533 181.638 218.025 182.536C219.474 183.385 220.659 184.084 221.581 184.633C222.503 185.182 222.964 185.457 222.964 185.457L223.679 184.816C222.727 182.316 221.757 179.748 220.768 177.111C219.826 174.431 218.896 171.955 217.978 169.684C217.064 167.323 216.264 165.376 215.577 163.843C214.891 162.31 214.398 161.376 214.099 161.043C213.586 160.471 213.077 160.239 212.573 160.348C212.073 160.366 211.419 160.738 210.608 161.464L208.321 163.515L207.786 163.35L204.769 158.834C204.769 158.834 205.196 158.495 206.049 157.816C206.859 157.09 207.857 156.238 209.043 155.26C210.277 154.24 211.442 153.238 212.538 152.256C213.349 151.529 214.183 150.782 215.04 150.013C215.903 149.153 216.692 148.403 217.407 147.763C218.121 147.122 218.669 146.63 219.051 146.289L222.324 151.09C221.537 152.226 221.118 153.245 221.069 154.149C220.977 155.005 221.227 156.242 221.818 157.861L232.542 188.087C234.354 193.08 235.699 197.505 236.577 201.36C237.544 205.219 238.064 208.579 238.134 211.438C238.247 214.345 237.91 216.797 237.121 218.793C236.423 220.794 235.242 222.498 233.579 223.902Z" fill="white"/>
<path d="M314.21 145.587C311.206 147.019 308.41 147.997 305.824 148.521C303.323 149.075 301.313 149.395 299.795 149.481C298.248 149.509 297.475 149.523 297.475 149.523L296.203 148.641C296.203 148.641 296.068 148.209 295.798 147.345C295.559 146.396 295.166 145.2 294.621 143.759C294.105 142.232 293.521 140.56 292.868 138.745C292.188 136.871 291.421 135.039 290.567 133.248L297.425 129.34C298.94 132.518 300.413 134.864 301.844 136.38C303.276 137.895 304.85 138.669 306.567 138.702C308.342 138.706 310.442 138.13 312.869 136.974C315.642 135.652 317.577 133.985 318.674 131.973C319.771 129.961 319.81 127.886 318.791 125.749C318.02 124.131 316.723 123.048 314.902 122.498C313.138 121.921 311.039 121.61 308.607 121.564C306.205 121.433 303.658 121.371 300.967 121.377C298.191 121.354 295.403 121.158 292.605 120.791C289.864 120.396 287.346 119.575 285.051 118.33C282.813 117.057 281.047 115.063 279.753 112.347C278.156 108.997 277.719 105.553 278.444 102.017C279.227 98.4535 280.978 95.1371 283.698 92.068C286.449 88.9135 290.077 86.2622 294.583 84.114C297.414 82.7646 300.023 81.7688 302.411 81.1266C304.83 80.3992 306.771 79.9347 308.234 79.7333C309.698 79.5318 310.43 79.431 310.43 79.431L311.574 80.2684C311.574 80.2684 311.76 81.0305 312.132 82.5547C312.476 84.0212 313.026 85.9924 313.781 88.4685C314.566 90.8593 315.492 93.3959 316.558 96.0782L310.393 99.6551L309.365 99.507C309.365 99.507 309.243 99.1755 308.998 98.5124C308.752 97.8494 308.437 97.1135 308.052 96.3047C306.812 93.705 305.267 92.173 303.415 91.7088C301.62 91.217 299.192 91.7009 296.13 93.1606C293.646 94.3448 291.884 95.9291 290.845 97.9134C289.864 99.8702 289.8 101.744 290.654 103.535C291.37 105.037 292.523 106.118 294.114 106.778C295.735 107.352 297.632 107.688 299.806 107.786C301.98 107.885 304.283 107.956 306.715 108.002C309.75 107.973 312.782 108.088 315.812 108.345C318.842 108.602 321.604 109.341 324.101 110.562C326.569 111.725 328.506 113.78 329.91 116.726C331.563 120.192 332.011 123.736 331.256 127.357C330.531 130.893 328.722 134.237 325.829 137.389C322.936 140.541 319.063 143.274 314.21 145.587Z" fill="white"/>
<path d="M369.83 85.3026C369.453 83.7477 368.925 82.6574 368.246 82.0318C367.568 81.4062 366.668 81.2292 365.549 81.5009C364.989 81.6367 364.476 81.8272 364.008 82.0723C363.526 82.2552 363.285 82.3467 363.285 82.3467L362.531 76.7999C364.399 76.0833 366.259 75.3355 368.112 74.5567C370.011 73.7006 371.763 72.9134 373.367 72.1949C374.956 71.4143 376.225 70.8099 377.175 70.3819C378.187 69.9387 378.693 69.7172 378.693 69.7172L379.895 71.0061C379.718 71.9052 379.693 73.2943 379.819 75.1734C380.008 77.0375 380.28 79.2436 380.635 81.7917C380.975 84.2777 381.422 86.9352 381.977 89.7641C382.516 92.5309 383.126 95.3137 383.805 98.1125C385.027 103.15 387.598 105.194 391.516 104.243C392.946 103.896 394.255 103.183 395.442 102.105C396.677 100.949 397.787 99.8238 398.772 98.7285L394.109 79.5102C393.671 77.7065 393.105 76.5927 392.409 76.1688C391.761 75.6675 390.62 75.582 388.988 75.9122C388.739 75.9726 388.405 76.0867 387.984 76.2545C387.611 76.3451 387.394 76.3979 387.331 76.413L386.787 70.9142C388.78 70.1674 390.733 69.397 392.648 68.6031C394.61 67.7319 396.4 66.9682 398.019 66.312C399.623 65.5935 400.931 65.0127 401.943 64.5696C402.955 64.1264 403.461 63.9049 403.461 63.9049L404.663 65.1938C404.454 66.2324 404.532 68.3207 404.899 71.4588C405.25 74.5348 405.814 78.2175 406.592 82.5072C407.369 86.7968 408.331 91.3051 409.478 96.0319C409.765 97.2136 410.271 98.0786 410.997 98.627C411.785 99.1602 412.708 99.2985 413.765 99.042C414.511 98.8609 415.196 98.5629 415.82 98.1481C416.429 97.6712 416.921 97.2554 417.296 96.901C417.671 96.5466 417.858 96.3694 417.858 96.3694L419.71 97.8957C419.71 97.8957 419.536 98.399 419.188 99.4055C418.824 100.35 418.288 101.534 417.58 102.957C416.918 104.303 416.149 105.609 415.271 106.876C414.377 108.08 413.401 108.943 412.342 109.463C406.62 110.852 402.867 109.227 401.083 104.589L400.246 104.397C398.364 107.224 396.625 109.556 395.029 111.392C393.495 113.213 392.355 114.214 391.609 114.396C386.882 115.542 383.033 115.423 380.062 114.036C377.091 112.649 375.146 110.059 374.225 106.265L369.83 85.3026Z" fill="white"/>
<path d="M454.794 122.289L455.358 116.41C457.142 116.156 458.277 115.636 458.762 114.851C459.311 114.063 459.577 112.517 459.561 110.212C459.583 108.995 459.594 107.489 459.596 105.696C459.6 103.967 459.602 102.174 459.601 100.317C459.603 98.5235 459.58 96.9234 459.531 95.5162L458.587 68.3646C458.512 66.1899 458.108 64.699 457.375 63.892C456.707 63.0827 455.477 62.7092 453.686 62.7714L452.439 62.8148L452.038 62.3484L452.345 57.3427C455.207 56.795 457.974 56.2506 460.645 55.7095C463.313 55.1045 465.474 54.6131 467.126 54.2355C468.839 53.7918 469.696 53.5699 469.696 53.5699L470.593 54.4993C470.593 54.4993 470.456 55.1764 470.183 56.5307C469.972 57.8189 469.827 59.1687 469.748 60.5803L470.148 61.0467C472.562 58.6574 474.581 56.8582 476.204 55.6491C477.825 54.3761 478.955 53.7284 479.595 53.7062C483.368 53.5751 486.692 54.3241 489.567 55.9532C492.505 57.5802 494.829 59.9649 496.539 63.1074C498.247 66.1859 499.175 69.8359 499.321 74.0574C499.453 77.8311 498.932 81.2753 497.759 84.3899C496.648 87.4383 494.981 90.1218 492.756 92.4405C490.593 94.693 487.965 96.4813 484.873 97.8055C481.843 99.0635 478.473 99.7569 474.764 99.8858C474.316 99.9014 473.739 99.8894 473.033 99.8499C472.391 99.8082 471.814 99.7642 471.3 99.718C470.788 99.7358 470.532 99.7447 470.532 99.7447C470.581 101.152 470.631 102.591 470.682 104.062C470.799 105.595 470.885 107.129 470.938 108.664C471.025 111.158 471.277 112.879 471.694 113.825C472.111 114.771 473.087 115.217 474.622 115.164C475.326 115.14 476.06 115.082 476.825 114.991C477.655 114.898 478.229 114.847 478.549 114.835L478.754 115.212L477.902 121.102C477.518 121.115 476.846 121.106 475.884 121.076C474.989 121.107 473.964 121.11 472.811 121.086C471.723 121.124 470.604 121.163 469.453 121.203C468.301 121.243 467.278 121.279 466.383 121.31C464.592 121.372 462.802 121.466 461.013 121.592C459.227 121.783 457.727 121.931 456.514 122.037C455.367 122.205 454.794 122.289 454.794 122.289ZM477.851 91.9978C480.986 91.8889 483.376 90.6532 485.023 88.2905C486.668 85.864 487.415 82.476 487.263 78.1266C487.155 74.9925 486.644 72.2886 485.733 70.0149C484.885 67.7389 483.705 66.0189 482.191 64.8547C480.74 63.6244 479.055 63.0426 477.136 63.1093C476.24 63.1404 475.163 63.466 473.904 64.0861C472.642 64.6422 471.452 65.388 470.331 66.3235C470.29 68.8224 470.256 71.5133 470.228 74.396C470.264 77.2765 470.3 80.1569 470.336 83.0374C470.434 85.8517 470.524 88.4422 470.606 90.8087C471.318 91.0401 472.353 91.3244 473.709 91.6615C475.064 91.9346 476.444 92.0467 477.851 91.9978Z" fill="white"/>
<path d="M558.215 103.097C553.791 102.392 550.108 100.899 547.166 98.6161C544.288 96.3434 542.225 93.4228 540.979 89.8545C539.795 86.2962 539.556 82.3049 540.26 77.8806C540.813 74.4044 541.89 71.3031 543.491 68.5768C545.091 65.8505 547.074 63.5739 549.438 61.7469C551.813 59.8567 554.455 58.5274 557.364 57.7592C560.283 56.9277 563.322 56.7635 566.483 57.2665C577.101 58.9567 581.555 65.1742 579.845 75.9189C579.694 76.867 579.443 77.8315 579.092 78.8126C578.805 79.8038 578.553 80.5737 578.336 81.1224L577.017 82.079L552.462 78.1704C551.894 82.5516 552.362 86.1256 553.866 88.8924C555.443 91.6061 557.95 93.366 561.386 94.1721C564.822 94.9783 569.049 94.6791 574.068 93.2747L574.672 93.7595L575.449 98.6465C574.034 99.3934 572.288 100.185 570.211 101.021C568.144 101.793 566.038 102.398 563.895 102.834C561.752 103.271 559.859 103.358 558.215 103.097ZM553.292 72.9561L566.401 74.2651C567.17 74.3226 567.669 74.24 567.899 74.0174C568.202 73.7416 568.419 73.1929 568.55 72.3713C568.912 70.0959 568.683 68.2773 567.863 66.9155C567.043 65.5536 565.653 64.7167 563.694 64.4048C561.229 64.0125 559.07 64.5438 557.219 65.9988C555.44 67.4006 554.131 69.7197 553.292 72.9561Z" fill="white"/>
<path d="M610.003 106.109C611.862 106.608 613.238 106.537 614.133 105.896C615.089 105.275 615.97 103.784 616.776 101.422L622.947 83.3415C623.65 81.2822 623.852 79.7961 623.555 78.8832C623.279 77.9097 622.384 77.1646 620.869 76.6478C620.506 76.5238 620.102 76.4197 619.657 76.3356C619.294 76.2115 619.112 76.1495 619.112 76.1495L618.875 75.3585L620.97 71.0018C623.72 71.4667 626.419 71.8807 629.067 72.2436C631.716 72.6066 633.91 72.9158 635.649 73.171C637.469 73.3864 638.378 73.4941 638.378 73.4941L638.917 74.5909C638.917 74.5909 638.671 75.0142 638.179 75.8607C637.769 76.6673 637.276 77.7162 636.7 79.0074C636.145 80.238 635.609 81.5093 635.094 82.8211L635.515 83.3706C638.425 81.1853 641.269 79.6877 644.047 78.8777C646.826 78.0678 649.245 78.0142 651.304 78.7171C652.273 79.0478 653.01 79.3668 653.514 79.674C654.099 79.9412 654.391 80.0749 654.391 80.0749L654.507 80.9258C654.507 80.9258 654.24 81.4096 653.707 82.3773C653.255 83.305 652.629 84.5453 651.828 86.098C651.089 87.6713 650.267 89.3858 649.363 91.2413C648.52 93.1175 647.758 94.9538 647.077 96.7503L641.138 95.1292C642.131 92.2219 642.6 90.2519 642.547 89.2193C642.575 88.1468 642.074 87.4349 641.044 87.0835C640.075 86.7527 638.921 86.7647 637.583 87.1195C636.245 87.4742 634.874 88.1222 633.471 89.0634C633.471 89.0634 633.254 89.5982 632.822 90.6678C632.41 91.6768 631.864 92.9783 631.185 94.5724C630.566 96.1871 629.937 97.8321 629.298 99.5073C628.658 101.183 628.091 102.646 627.597 103.897C627.102 105.148 626.793 105.956 626.668 106.319C626.131 107.894 626.001 109.067 626.279 109.838C626.617 110.63 627.453 111.253 628.785 111.708C629.633 111.997 630.613 112.298 631.724 112.609C632.855 112.86 633.421 112.986 633.421 112.986L633.508 113.624L630.462 119.279C630.462 119.279 630.078 119.114 629.312 118.785C628.545 118.456 627.536 118.044 626.285 117.549C625.073 117.136 623.812 116.671 622.5 116.156C621.167 115.701 619.956 115.288 618.866 114.916C617.049 114.296 615.251 113.716 613.474 113.177C611.697 112.638 610.223 112.203 609.051 111.87C607.94 111.559 607.385 111.403 607.385 111.403L610.003 106.109Z" fill="white"/>
<path d="M668.796 133.88L672.003 128.946C673.796 129.659 675.268 129.81 676.419 129.397C677.57 128.985 678.528 128.04 679.294 126.562L689.676 106.533C690.297 105.197 690.355 104.11 689.852 103.272C689.349 102.435 688.033 101.428 685.903 100.252L685.827 99.5641L688.762 95.5708L694.403 97.4134L694.757 96.7316C697.346 91.8745 700.421 88.0979 703.981 85.4018C707.598 82.7352 711.498 81.2606 715.682 80.9781C719.865 80.6955 724.116 81.6735 728.434 83.9119C731.389 85.4434 733.613 86.9929 735.108 88.5605C736.631 90.0711 737.393 90.8265 737.393 90.8265L737.071 92.2817C737.071 92.2817 736.376 92.8583 734.985 94.0117C733.594 95.165 732 96.573 730.201 98.2357L729.045 97.9612C729.045 97.9612 728.78 97.4993 728.25 96.5756C727.806 95.6245 727.034 94.5399 725.936 93.3216C724.866 92.0466 723.451 90.9525 721.69 90.0395C719.758 89.0381 717.931 88.668 716.21 88.9291C714.575 89.1629 712.958 90.1269 711.359 91.8211C709.789 93.4584 708.165 95.8965 706.486 99.1353L704.369 103.012C706.414 104.072 708.276 105.001 709.953 105.798C711.63 106.595 712.952 107.244 713.918 107.745C714.97 108.218 715.496 108.455 715.496 108.455L715.531 109.014L711.719 114.282C711.719 114.282 711.264 114.047 710.355 113.576C709.475 113.047 708.255 112.343 706.693 111.461C705.132 110.58 703.356 109.624 701.368 108.593L689.095 131.643C687.711 134.313 688.212 136.267 690.599 137.504C691.905 138.182 693.113 138.772 694.222 139.274C695.331 139.777 695.886 140.029 695.886 140.029L696.05 140.546L692.282 145.73C692.282 145.73 691.842 145.466 690.963 144.938C690.053 144.466 688.932 143.849 687.598 143.085C686.291 142.408 684.97 141.687 683.636 140.924C682.272 140.217 681.136 139.628 680.227 139.156C679.033 138.538 677.783 137.89 676.477 137.212C675.14 136.592 673.889 136.015 672.723 135.483C671.528 135.008 670.575 134.622 669.863 134.325C669.152 134.029 668.796 133.88 668.796 133.88Z" fill="white"/>
<path d="M745.286 180.628C743.027 178.947 741.613 177.096 741.042 175.076C740.523 173.094 740.842 171.057 741.999 168.967L741.555 168.277C739.815 168.578 738.062 168.789 736.296 168.911C734.568 168.981 733.032 168.955 731.688 168.831C730.382 168.657 729.395 168.321 728.727 167.825C726.725 166.334 725.291 164.509 724.426 162.349C723.56 160.189 723.296 157.918 723.633 155.536C723.97 153.154 724.922 150.91 726.488 148.805C727.673 147.214 729.096 146.159 730.758 145.641C732.51 145.11 734.161 145.142 735.712 145.738L753.155 153.335L754.607 151.544C756.25 149.337 756.94 147.177 756.676 145.066C756.464 142.993 755.305 141.174 753.2 139.607C751.763 138.537 749.955 137.75 747.777 137.246C745.638 136.691 743.544 136.449 741.496 136.52L741.032 135.696L743.162 130.101C745.301 130.337 747.619 130.706 750.117 131.209C752.653 131.66 754.972 132.189 757.073 132.796C759.226 133.441 760.739 134.088 761.611 134.738C764.589 136.954 766.684 139.231 767.896 141.569C769.107 143.907 769.557 146.197 769.246 148.438C768.972 150.628 768.09 152.724 766.6 154.726C766.103 155.394 765.262 156.363 764.076 157.635C762.89 158.906 761.583 160.287 760.155 161.777C758.727 163.267 757.382 164.699 756.12 166.073C754.857 167.448 753.902 168.571 753.252 169.444C752.526 170.419 752.184 171.361 752.225 172.27C752.318 173.217 752.801 174.015 753.674 174.665C754.342 175.161 755.124 175.504 756.02 175.693C756.968 175.92 757.743 176.058 758.345 176.107L758.297 178.584C757.134 179.074 755.721 179.579 754.059 180.097C752.435 180.564 750.836 180.89 749.262 181.074C747.727 181.208 746.401 181.059 745.286 180.628ZM737.022 162.629C737.792 163.203 738.843 163.666 740.176 164.02C741.598 164.36 742.949 164.528 744.229 164.523L749.905 157.379L739.946 153.556C738.446 152.999 737.199 153.387 736.206 154.722C735.212 156.057 734.757 157.473 734.839 158.97C735.011 160.454 735.739 161.674 737.022 162.629Z" fill="white"/>
<path d="M796.946 215.364C798.164 216.353 799.298 216.832 800.347 216.803C801.486 216.783 802.672 216.313 803.903 215.392L816.961 205.126C819.144 203.348 820.434 201.637 820.829 199.994C821.274 198.311 820.829 196.651 819.496 195.013C818.849 194.219 817.988 193.517 816.913 192.907C815.879 192.347 814.835 191.876 813.782 191.496C812.769 191.165 811.953 190.922 811.332 190.768C809.911 191.76 808.317 192.893 806.549 194.168C804.821 195.493 803.074 196.793 801.306 198.068C799.628 199.352 798.124 200.495 796.793 201.497C795.463 202.498 794.524 203.221 793.979 203.665C792.688 204.716 791.937 205.618 791.724 206.369C791.56 207.08 791.801 207.833 792.448 208.627C792.731 208.974 793.075 209.396 793.479 209.892C793.933 210.348 794.16 210.576 794.16 210.576L793.983 210.967L788.762 213.982C788.762 213.982 788.423 213.515 787.745 212.582C787.067 211.648 786.248 210.541 785.287 209.26C784.317 208.069 783.428 206.977 782.619 205.985C781.568 204.695 780.477 203.355 779.345 201.966C778.204 200.666 777.225 199.566 776.407 198.663C775.59 197.761 775.181 197.31 775.181 197.31L780.267 194.281C781.588 195.599 782.743 196.308 783.734 196.409C784.814 196.52 786.049 196.009 787.439 194.877L803.218 182.023C804.905 180.649 805.849 179.426 806.049 178.355C806.29 177.333 805.844 176.128 804.713 174.738L803.924 173.771L804.054 173.17L808.228 170.389C810.434 172.389 812.54 174.264 814.545 176.016C816.639 177.776 818.356 179.226 819.696 180.363C821.125 181.51 821.84 182.083 821.84 182.083L821.581 183.285C821.581 183.285 820.934 183.606 819.64 184.247C818.436 184.897 817.149 185.698 815.778 186.65L815.737 187.055C816.718 187.246 817.895 187.526 819.268 187.894C820.73 188.27 822.168 188.668 823.581 189.085C825.084 189.511 826.378 189.985 827.462 190.505C828.596 190.985 829.345 191.448 829.708 191.894C831.972 194.673 833.31 197.38 833.723 200.015C834.137 202.65 833.589 205.119 832.08 207.421C832.971 207.603 834.128 207.858 835.55 208.185C836.972 208.513 838.41 208.91 839.864 209.377C841.367 209.803 842.705 210.281 843.879 210.81C845.103 211.299 845.917 211.792 846.321 212.288C849.232 215.861 850.607 219.322 850.447 222.672C850.376 226.031 848.853 228.923 845.875 231.349C845.131 231.955 843.929 232.81 842.27 233.914C840.61 235.018 838.782 236.219 836.784 237.516C834.827 238.863 832.969 240.129 831.21 241.314C829.451 242.499 828.101 243.475 827.158 244.243C825.818 245.335 825.017 246.277 824.754 247.068C824.581 247.87 824.838 248.692 825.526 249.536C825.889 249.982 826.318 250.458 826.813 250.963C827.307 251.469 827.554 251.722 827.554 251.722L827.378 252.113L822.231 255.067C822.231 255.067 822.013 254.749 821.578 254.113C821.133 253.568 820.592 252.853 819.955 251.969C819.267 251.125 818.565 250.212 817.846 249.229C817.119 248.336 816.452 247.517 815.845 246.772C815.28 246.078 814.588 245.279 813.77 244.377C812.993 243.524 812.261 242.676 811.574 241.833C810.837 241.029 810.201 240.35 809.666 239.795C809.172 239.29 808.925 239.037 808.925 239.037L813.964 235.799C815.092 236.779 816.131 237.294 817.081 237.346C818.081 237.357 819.226 236.837 820.516 235.786L833.574 225.52C835.798 223.791 837.107 222.105 837.503 220.463C837.948 218.779 837.483 217.094 836.109 215.407C835.462 214.613 834.646 213.916 833.661 213.315C832.717 212.763 831.738 212.322 830.726 211.991C829.713 211.66 828.852 211.413 828.14 211.25L810.605 223.924C809.365 224.935 808.588 225.856 808.276 226.689C808.013 227.48 808.225 228.298 808.912 229.142C809.236 229.539 809.624 229.965 810.078 230.421C810.532 230.877 810.759 231.105 810.759 231.105L810.583 231.496L805.436 234.45C805.436 234.45 805.239 234.157 804.843 233.571C804.399 233.025 803.858 232.31 803.22 231.426C802.573 230.632 801.911 229.768 801.233 228.835C800.506 227.942 799.859 227.148 799.293 226.453C798.687 225.709 797.975 224.886 797.157 223.983C796.33 223.171 795.528 222.338 794.751 221.486C793.974 220.633 793.318 219.929 792.783 219.374C792.199 218.859 791.907 218.602 791.907 218.602L796.946 215.364Z" fill="white"/>
<path d="M834.644 277.243L840.382 275.184C841.51 276.693 842.69 277.6 843.923 277.906C845.185 278.269 846.586 278.059 848.126 277.275L866.605 267.869C868.431 266.94 869.555 266.045 869.978 265.183C870.401 264.321 870.264 263.206 869.568 261.837C869.393 261.495 869.119 261.096 868.743 260.641C868.454 260.214 868.309 260 868.309 260L873.447 258.031C874.719 259.825 875.977 261.591 877.22 263.328C878.55 265.093 879.749 266.673 880.818 268.068C881.973 269.491 882.868 270.615 883.504 271.44C884.169 272.323 884.501 272.764 884.501 272.764L883.524 274.231C882.751 274.265 881.38 274.604 879.41 275.248C877.525 275.92 875.199 276.852 872.431 278.045C869.721 279.21 866.625 280.606 863.145 282.234C859.722 283.832 856.128 285.59 852.363 287.506C851.052 288.174 850.184 288.867 849.759 289.585C849.392 290.275 849.455 291.104 849.949 292.074C850.181 292.53 850.471 293.029 850.818 293.571C851.195 294.169 851.383 294.468 851.383 294.468L851.086 294.942L845.431 296.743C845.431 296.743 845.3 296.415 845.038 295.759C844.719 295.131 844.326 294.29 843.861 293.234C843.367 292.264 842.873 291.223 842.379 290.11C841.856 289.084 841.362 288.114 840.898 287.202C840.201 285.833 839.346 284.365 838.333 282.798C837.349 281.288 836.495 279.963 835.772 278.823C835.02 277.77 834.644 277.243 834.644 277.243ZM888.331 262.089C887.344 260.15 887.131 258.391 887.692 256.813C888.34 255.263 889.547 254.037 891.316 253.137C893.312 252.121 895.257 251.921 897.15 252.537C899.101 253.125 900.584 254.416 901.6 256.413C902.558 258.295 902.714 260.011 902.066 261.561C901.448 263.169 900.255 264.422 898.487 265.322C896.491 266.338 894.56 266.567 892.696 266.008C890.831 265.449 889.376 264.142 888.331 262.089Z" fill="white"/>
<path d="M866.628 331.17L872.346 329.742C873.246 331.045 874.077 331.895 874.841 332.292C875.628 332.748 876.523 332.857 877.527 332.617C878.613 332.415 879.905 332.032 881.403 331.47L923.108 315.822C924.666 315.237 925.748 314.66 926.355 314.091C926.984 313.581 927.231 312.873 927.096 311.967C927.021 311.038 926.608 309.757 925.859 308.124L926.084 307.63L931.05 306.382C932.533 309.243 934.077 312.082 935.681 314.898C937.307 317.774 938.993 320.627 940.738 323.459L939.267 324.729C938.315 324.744 936.675 325.017 934.346 325.55C932.076 326.059 929.188 326.835 925.683 327.877C922.178 328.919 918.174 330.182 913.673 331.666C909.231 333.128 904.392 334.806 899.157 336.703C893.921 338.599 888.427 340.626 882.675 342.785C881.237 343.324 880.256 343.897 879.731 344.504C879.289 345.148 879.26 345.98 879.642 346.999L880.935 349.897L880.496 350.369L874.823 351.37C874.298 349.79 873.706 348.03 873.046 346.09C872.387 344.15 871.798 342.491 871.281 341.113C870.809 339.854 870.165 338.319 869.348 336.506C868.471 334.716 867.564 332.937 866.628 331.17Z" fill="white"/>
<path d="M883.703 397.744C883.607 397.306 883.79 396.644 884.251 395.757C884.65 394.884 885.167 393.952 885.802 392.962C886.451 392.034 887.151 391.193 887.903 390.439C888.593 389.698 889.188 389.273 889.688 389.164L890.957 389.575C892.158 393.57 894.257 396.878 897.254 399.499C900.251 402.119 903.913 404.038 908.24 405.254C909.903 404.17 911.827 402.93 914.011 401.536C916.272 400.19 918.613 398.761 921.034 397.249C923.517 395.724 925.938 394.212 928.297 392.713C930.655 391.215 932.809 389.827 934.757 388.55C936.768 387.259 938.455 386.137 939.819 385.183C941.106 384.181 941.936 383.181 942.307 382.183C942.741 381.171 942.839 379.97 942.601 378.581L943.029 378.291L948.424 377.799C948.506 378.175 948.643 378.8 948.834 379.675C949.026 380.551 949.199 381.495 949.356 382.509C949.588 383.572 949.779 384.447 949.93 385.135C950.285 386.761 950.672 388.38 951.089 389.992C951.521 391.666 951.918 393.184 952.281 394.546C952.707 395.894 953.047 396.999 953.301 397.861C953.555 398.723 953.682 399.153 953.682 399.153L953.254 399.443L947.744 399.862C947.285 398.062 946.8 396.891 946.288 396.348C945.852 395.853 945.259 395.688 944.509 395.852C944.009 395.961 943.105 396.323 941.798 396.936C940.553 397.535 939.079 398.284 937.375 399.18C935.734 400.063 934.03 400.959 932.264 401.87C930.511 402.842 928.876 403.756 927.36 404.612C925.906 405.454 924.713 406.14 923.781 406.672C922.849 407.203 922.383 407.469 922.383 407.469L922.588 408.406C925.232 408.811 927.945 409.234 930.727 409.674C933.522 410.176 936.135 410.588 938.563 410.909C941.068 411.279 943.156 411.543 944.829 411.701C946.501 411.86 947.556 411.891 947.994 411.796C948.744 411.632 949.197 411.303 949.351 410.811C949.582 410.368 949.581 409.614 949.349 408.551L948.693 405.55L949.1 405.166L954.516 404.769C954.516 404.769 954.601 405.307 954.771 406.384C955.003 407.447 955.252 408.735 955.517 410.249C955.796 411.826 956.093 413.333 956.408 414.772C956.64 415.834 956.879 416.929 957.125 418.054C957.447 419.228 957.711 420.284 957.916 421.222C958.121 422.16 958.278 422.879 958.387 423.379L952.596 423.859C951.997 422.614 951.316 421.748 950.554 421.259C949.855 420.757 948.655 420.364 946.955 420.08L915.372 414.504C910.134 413.618 905.622 412.606 901.836 411.469C898 410.407 894.822 409.202 892.3 407.854C889.715 406.519 887.749 405.016 886.401 403.345C885.004 401.751 884.105 399.884 883.703 397.744Z" fill="white"/>
</svg>
