<svg width="156" height="149" viewBox="0 0 156 149" fill="none" xmlns="http://www.w3.org/2000/svg">
<path d="M112.747 21.6074L111.636 23.2698L112.747 21.6074ZM93.1513 146.939L93.1513 144.939L93.1513 144.939L93.1513 146.939ZM12.7796 59.0025L14.6804 58.3804L12.7796 59.0025ZM8.50932 38.2771L23.5547 55.7976L0.858746 60.067L8.50932 38.2771ZM38.2003 0.376366C64.6433 2.38553 93.7776 6.51219 113.859 19.945L111.636 23.2698C92.5249 10.4866 64.3869 6.37758 37.8973 4.36487L38.2003 0.376366ZM113.859 19.945C130.116 30.8192 146.003 49.8123 151.991 66.9802L148.214 68.2975C142.561 52.0884 127.303 33.7498 111.636 23.2698L113.859 19.945ZM151.991 66.9802C158.021 84.2671 154.288 97.4906 152.591 104.802L148.695 103.898C150.394 96.5772 153.826 84.3873 148.214 68.2975L151.991 66.9802ZM152.591 104.802C150.807 112.492 147.006 120.276 138.752 129.958L135.708 127.363C143.639 118.06 147.084 110.839 148.695 103.898L152.591 104.802ZM138.752 129.958C134.63 134.793 129.867 139.593 122.743 143.149C115.623 146.703 106.304 148.939 93.1513 148.939L93.1513 144.939C105.847 144.939 114.521 142.783 120.956 139.57C127.386 136.36 131.738 132.021 135.708 127.363L138.752 129.958ZM93.1513 148.939C71.0637 148.939 55.7854 137.137 39.8893 115.693L43.1026 113.311C58.6982 134.349 72.9367 144.939 93.1513 144.939L93.1513 148.939ZM39.8893 115.693C23.9794 94.2303 15.016 72.2661 10.8788 59.6246L14.6804 58.3804C18.7276 70.747 27.5208 92.2906 43.1026 113.311L39.8893 115.693ZM10.8788 59.6246C10.5336 58.5698 10.2138 57.5369 9.91793 56.5297L13.7557 55.4022C14.0404 56.3713 14.3481 57.3652 14.6804 58.3804L10.8788 59.6246Z" fill="black"/>
</svg>
