<svg width="144" height="158" viewBox="0 0 144 158" fill="none" xmlns="http://www.w3.org/2000/svg">
<path d="M82.8018 145.344L82.0117 147.181L82.8018 145.344ZM103.061 151.456L86.9605 134.9L80.6722 157.121L103.061 151.456ZM143.472 125.285C143.659 111.956 143.169 96.8392 141.303 83.0047C139.447 69.2382 136.195 56.469 130.689 48.04L127.34 50.2276C132.337 57.8761 135.5 69.8985 137.339 83.5393C139.17 97.1121 139.658 112.018 139.473 125.229L143.472 125.285ZM130.689 48.04C120.125 31.8683 103.973 13.5116 87.3456 5.97769L85.6947 9.62115C101.265 16.6759 116.899 34.2442 127.34 50.2276L130.689 48.04ZM87.3456 5.97769C70.6692 -1.57827 57.1642 0.95311 49.7303 1.98702L50.2813 5.94888C57.7245 4.91368 70.1732 2.58844 85.6947 9.62115L87.3456 5.97769ZM49.7303 1.98702C41.9111 3.07451 33.8171 6.16115 23.4337 13.5134L25.7452 16.7779C35.7219 9.71361 43.2234 6.9305 50.2813 5.94888L49.7303 1.98702ZM23.4337 13.5134C18.0428 17.3305 11.8015 24.5631 7.17349 32.6081C2.57167 40.6076 -0.693861 49.8588 0.451134 57.696L4.40912 57.1178C3.46044 50.6243 6.18451 42.3491 10.6407 34.6027C15.0707 26.9018 20.9559 20.1691 25.7452 16.7779L23.4337 13.5134ZM0.451134 57.696C2.57506 72.2338 8.5233 95.2186 28.7723 113.257L31.433 110.271C12.1961 93.1335 6.47254 71.2414 4.40912 57.1178L0.451134 57.696ZM28.7723 113.257C48.7209 131.029 69.7924 141.926 82.0117 147.181L83.5919 143.506C71.6383 138.366 50.9704 127.676 31.433 110.271L28.7723 113.257ZM82.0117 147.181C83.0313 147.619 84.0313 148.031 85.0079 148.416L86.4752 144.694C85.5355 144.324 84.5732 143.928 83.5919 143.506L82.0117 147.181Z" fill="black"/>
</svg>
