<svg width="162" height="236" viewBox="0 0 162 236" fill="none" xmlns="http://www.w3.org/2000/svg">
<path d="M87.2839 2.01676L159.319 32.0528C155.659 43.162 147.993 66.2082 146.612 69.5201C141.434 81.94 128.592 105.744 113.133 114.849C100.765 122.133 88.9776 126.16 84.6299 127.263L81.4555 127.883L49.3479 204.886C54.2232 209.511 64.7602 219.671 67.906 223.316C71.0517 226.96 72.3433 231.321 72.5959 233.047L6.35658 205.427C11.4102 202.451 17.192 200.939 23.0556 201.061L41.068 201.434L73.1756 124.431L66.0095 106.036C62.6731 97.4718 60.7969 88.4084 60.4591 79.2233L60.4168 78.0737C60.1244 70.1225 61.0938 62.1777 63.2866 54.5345C63.3968 54.1505 63.51 53.7673 63.6264 53.3848L70.9901 34.1006L87.2839 2.01676Z" fill="black"/>
<path d="M137.779 69.7257L74.8522 43.4873C73.2177 48.9614 69.6736 55.9072 68.1492 80.5421C66.8701 101.213 78.8369 113.185 80.4929 113.875C90.4288 118.018 86.7716 117.465 93.9485 116.57C102.92 115.451 109.546 109.466 116.31 102.567C121.722 97.0482 134.626 76.5106 137.779 69.7257Z" fill="#FA4821"/>
</svg>
