<svg width="356" height="323" viewBox="0 0 356 323" fill="none" xmlns="http://www.w3.org/2000/svg">
<path d="M12.0856 320.999C10.9816 321.033 10.0591 320.166 10.0252 319.061C9.99124 317.957 10.8587 317.035 11.9628 317.001L12.0856 320.999ZM315 319L314.368 317.103L315 319ZM12.0242 240.5L12.9935 238.751L12.9935 238.751L12.0242 240.5ZM12.0242 218.677L10.7743 217.116L12.0242 218.677ZM307.025 190.308L307.346 192.282L307.025 190.308ZM293.914 144.48L293.674 146.465L293.914 144.48ZM2.5 111.5L0.5 111.5L2.5 111.5ZM9.83885 96.4698L11.1966 97.9384L11.1966 97.9384L9.83885 96.4698ZM75.3948 76.8294L75.673 78.8099L75.3948 76.8294ZM287.358 70.2825L287.558 72.2726L287.358 70.2825ZM342 55.5002L340.4 54.3002L342 55.5002ZM164.988 15.7256L164.807 17.7175L164.988 15.7256ZM7.65381 11.3611L27.8506 0.161941L27.451 23.2525L7.65381 11.3611ZM11.9628 317.001C59.3681 315.544 131.238 316.855 193.154 317.873C224.129 318.383 252.614 318.819 274.337 318.8C285.2 318.791 294.351 318.669 301.267 318.386C304.726 318.245 307.604 318.064 309.847 317.841C312.141 317.613 313.617 317.353 314.368 317.103L315.632 320.898C314.416 321.302 312.544 321.592 310.243 321.821C307.891 322.056 304.926 322.24 301.43 322.383C294.434 322.669 285.22 322.791 274.34 322.8C252.576 322.819 224.055 322.382 193.089 321.873C131.123 320.854 59.3721 319.546 12.0856 320.999L11.9628 317.001ZM314.368 317.103C323.988 313.9 329.642 310.068 332.88 306.422C336.087 302.81 337 299.297 337 296.5H341C341 300.25 339.746 304.714 335.87 309.078C332.025 313.409 325.679 317.553 315.632 320.898L314.368 317.103ZM337 296.5C337 293.855 335.853 289.137 329.93 284.224C323.951 279.265 313.066 274.085 293.586 270.843L294.242 266.897C314.096 270.201 325.753 275.563 332.484 281.145C339.271 286.775 341 292.599 341 296.5H337ZM293.586 270.843C274.075 267.595 231.064 265.414 191.96 264.049C152.909 262.685 117.973 262.141 114.728 262.141V258.141C118.04 258.141 153.029 258.687 192.099 260.051C231.115 261.414 274.419 263.597 294.242 266.897L293.586 270.843ZM114.728 262.141C111.321 262.141 96.8219 260.885 82.2282 259.378C67.6601 257.874 52.5601 256.075 48.0155 254.941L48.9845 251.06C53.1807 252.107 67.917 253.879 82.639 255.399C97.3354 256.917 111.58 258.141 114.728 258.141V262.141ZM48.0155 254.941C45.9153 254.416 43.8977 254.081 41.6319 253.683C39.3823 253.289 36.9379 252.841 34.1135 252.098C28.4443 250.607 21.3561 247.957 11.0549 242.25L12.9935 238.751C23.0603 244.328 29.8396 246.838 35.1311 248.23C37.7871 248.928 40.0963 249.353 42.3229 249.743C44.5333 250.131 46.7143 250.493 48.9845 251.06L48.0155 254.941ZM11.0549 242.25C5.71921 239.293 3.95836 234.199 4.38888 229.346C4.80981 224.6 7.31663 219.884 10.7743 217.116L13.2742 220.239C10.7076 222.293 8.7023 225.989 8.37323 229.699C8.05375 233.301 9.30501 236.707 12.9935 238.751L11.0549 242.25ZM10.7743 217.116C20.6831 209.183 34.1643 204.188 51.3377 201.158C68.5184 198.128 89.5609 197.037 114.728 197.037V201.037C89.6364 201.037 68.8685 202.128 52.0327 205.098C35.1897 208.069 22.4485 212.894 13.2742 220.239L10.7743 217.116ZM114.728 197.037C139.816 197.037 181.548 195.883 220.172 194.214C258.856 192.543 294.227 190.364 306.704 188.334L307.346 192.282C294.582 194.359 258.934 196.544 220.345 198.21C181.696 199.88 139.899 201.037 114.728 201.037V197.037ZM306.704 188.334C320.1 186.154 331.439 184.746 339.53 181.913C343.539 180.509 346.522 178.825 348.497 176.703C350.416 174.64 351.5 172.041 351.5 168.5H355.5C355.5 172.975 354.084 176.571 351.425 179.427C348.823 182.224 345.152 184.182 340.852 185.688C332.324 188.674 320.425 190.154 307.346 192.282L306.704 188.334ZM351.5 168.5C351.5 167.071 351.623 165.881 351.056 164.418C350.515 163.023 349.236 161.188 345.933 159.133C339.202 154.945 324.696 150.223 293.674 146.465L294.155 142.494C325.218 146.257 340.505 151.045 348.046 155.737C351.879 158.122 353.854 160.569 354.785 162.973C355.69 165.307 355.5 167.43 355.5 168.5H351.5ZM293.674 146.465C232.115 139.009 220.025 139.933 112.543 139.933V135.933C219.975 135.933 232.313 135.004 294.155 142.494L293.674 146.465ZM112.543 139.933C75.3464 139.933 50.1442 138.181 34.7176 135.98L35.2826 132.02C50.4487 134.184 75.4432 135.933 112.543 135.933V139.933ZM34.7176 135.98C26.9145 134.867 18.5085 132.497 11.9915 128.621C5.48701 124.752 0.499947 119.135 0.5 111.5L4.5 111.5C4.49996 117.12 8.11477 121.661 14.0363 125.183C19.9452 128.698 27.7894 130.951 35.2826 132.02L34.7176 135.98ZM0.5 111.5C0.500038 106.035 2.3089 100.708 8.48114 95.0013L11.1966 97.9384C5.80312 102.925 4.50003 107.204 4.5 111.5L0.5 111.5ZM8.48114 95.0013C13.4345 90.4218 22.6365 86.477 34.1059 83.1525C45.6732 79.7996 59.8714 76.9904 75.1166 74.8488L75.673 78.8099C60.546 80.9349 46.5468 83.711 35.2195 86.9943C23.7942 90.306 15.4044 94.0482 11.1966 97.9384L8.48114 95.0013ZM75.1166 74.8488C98.5782 71.553 143.938 70.6984 187.156 70.2704C230.527 69.8409 271.708 69.8398 287.159 68.2925L287.558 72.2726C271.869 73.8437 230.37 73.8426 187.196 74.2702C143.869 74.6993 98.8165 75.5588 75.673 78.8099L75.1166 74.8488ZM287.159 68.2925C303.559 66.6502 315.47 65.1127 324.066 62.942C332.679 60.7668 337.595 58.0405 340.4 54.3002L343.6 56.7002C339.964 61.5481 333.948 64.5719 325.045 66.8202C316.125 69.073 303.936 70.6325 287.558 72.2726L287.159 68.2925ZM340.4 54.3002C341.125 53.334 342.599 51.3661 341.287 48.5216C339.827 45.3564 334.711 40.5056 319.465 35.0676L320.808 31.3001C336.154 36.7735 342.721 42.0809 344.919 46.8459C347.265 51.9317 344.375 55.6663 343.6 56.7002L340.4 54.3002ZM319.465 35.0676C312.025 32.4141 300.183 30.1168 286.091 28.1403C272.041 26.1698 255.897 24.5367 239.934 23.1741C223.974 21.8118 208.214 20.7217 194.935 19.8353C181.676 18.9503 170.848 18.2659 164.807 17.7175L165.169 13.7338C171.146 14.2766 181.896 14.9561 195.201 15.8442C208.486 16.7309 224.275 17.823 240.274 19.1886C256.269 20.5539 272.493 22.1942 286.646 24.179C300.756 26.1579 312.952 28.4979 320.808 31.3001L319.465 35.0676ZM164.807 17.7175C147.989 16.1906 73.6072 14.5431 25.6176 13.6723L25.6901 9.67298C73.5721 10.5418 148.164 12.19 165.169 13.7338L164.807 17.7175Z" fill="#FA4821"/>
</svg>
