<svg width="98" height="229" viewBox="0 0 98 229" fill="none" xmlns="http://www.w3.org/2000/svg">
<rect x="38.9513" y="5.02979" width="5.4449" height="2.1728" rx="1.0864" transform="rotate(1.66639 38.9513 5.02979)" fill="#FA4821"/>
<path d="M38.4163 4.19943C39.8731 5.11651 39.7775 7.27111 38.245 8.0593L37.446 8.47029C35.9271 9.25151 34.1328 8.10245 34.2085 6.39707L34.2479 5.5079C34.3236 3.80252 36.2129 2.81228 37.6568 3.72124L38.4163 4.19943Z" fill="#FA4821"/>
<rect x="39.5997" y="14.1782" width="5.4449" height="2.1728" rx="1.0864" transform="rotate(1.66639 39.5997 14.1782)" fill="#FA4821"/>
<path d="M39.0648 13.3479C40.5215 14.2649 40.4259 16.4195 38.8935 17.2077L38.0944 17.6187C36.5756 18.3999 34.7812 17.2509 34.8569 15.5455L34.8964 14.6563C34.972 12.951 36.8614 11.9607 38.3052 12.8697L39.0648 13.3479Z" fill="#FA4821"/>
<rect x="40.2413" y="23.3257" width="5.4449" height="2.1728" rx="1.0864" transform="rotate(1.66639 40.2413 23.3257)" fill="#FA4821"/>
<path d="M39.7065 22.4944C41.1632 23.4114 41.0676 25.566 39.5352 26.3542L38.7362 26.7652C37.2173 27.5464 35.4229 26.3974 35.4986 24.692L35.5381 23.8028C35.6138 22.0974 37.5031 21.1072 38.9469 22.0162L39.7065 22.4944Z" fill="#FA4821"/>
<rect width="5.4449" height="2.1728" rx="1.0864" transform="matrix(-0.999577 -0.02908 -0.02908 0.999577 68.4384 5.88721)" fill="#FA4821"/>
<path d="M69.0207 5.08993C67.5131 5.92077 67.4834 8.07729 68.9674 8.95324L69.7412 9.40998C71.212 10.2782 73.0702 9.23538 73.0937 7.52848L73.106 6.63852C73.1296 4.93162 71.3011 3.83323 69.8068 4.65671L69.0207 5.08993Z" fill="#FA4821"/>
<rect width="5.4449" height="2.1728" rx="1.0864" transform="matrix(-0.999577 -0.02908 -0.02908 0.999577 67.2592 14.9824)" fill="#FA4821"/>
<path d="M67.8413 14.1837C66.3337 15.0145 66.3039 17.171 67.7879 18.047L68.5617 18.5037C70.0326 19.3719 71.8907 18.3291 71.9143 16.6222L71.9266 15.7323C71.9502 14.0254 70.1216 12.927 68.6274 13.7505L67.8413 14.1837Z" fill="#FA4821"/>
<rect width="5.4449" height="2.1728" rx="1.0864" transform="matrix(-0.999577 -0.02908 -0.02908 0.999577 66.0864 24.0786)" fill="#FA4821"/>
<path d="M66.6687 23.2809C65.1611 24.1117 65.1313 26.2682 66.6153 27.1442L67.3891 27.6009C68.86 28.4691 70.7181 27.4263 70.7417 25.7194L70.754 24.8294C70.7776 23.1225 68.949 22.0241 67.4548 22.8476L66.6687 23.2809Z" fill="#FA4821"/>
<path d="M60.2405 29.9955C61.1881 28.6319 62.9971 10.6571 63.7832 1.84017L43.8271 1.2596L45.727 29.5733L47.4464 32.8839L45.1654 111.289C42.8221 111.221 36.6701 111.52 30.8091 113.262C23.4828 115.44 18.3105 121.594 17.296 125.259C16.2815 128.925 16.1235 134.355 18.882 140.956C21.6406 147.558 20.1662 151.428 18.4271 156.594C16.688 161.76 13.2042 164.485 6.2613 176.89C-0.681642 189.296 0.876149 195.21 1.68213 198.712C2.08512 200.462 3.27028 214.129 23.9294 221.966C45.0314 229.97 58.4392 226.448 66.5378 224.075C74.0632 221.87 81.2977 216.027 85.506 211.802C89.7143 207.577 92.9921 200.499 92.286 189.392C91.76 181.117 80.2307 167.539 78.2957 158.336C76.2264 148.494 77.3603 148.527 78.6684 145.522C80.9162 140.358 82.77 137.163 83.1232 132.826C83.4763 128.489 82.8971 124.994 77.1716 118.959C72.5911 114.13 61.0312 112.04 55.8238 111.599L58.1048 33.1939C58.4219 32.696 59.293 31.3591 60.2405 29.9955Z" fill="black"/>
<rect x="28.1012" y="175.135" width="38.568" height="5.21473" rx="2.60736" transform="rotate(1.66639 28.1012 175.135)" fill="#FA4821"/>
<rect x="32.4851" y="180.479" width="29.4932" height="3.91105" rx="1.95552" transform="rotate(1.66639 32.4851 180.479)" fill="#FA4821"/>
<ellipse cx="49.3012" cy="140.755" rx="14.7466" ry="14.1232" transform="rotate(1.66639 49.3012 140.755)" fill="#FA4821"/>
</svg>
