<svg width="153" height="201" viewBox="0 0 153 201" fill="none" xmlns="http://www.w3.org/2000/svg">
<circle cx="76.4674" cy="124.301" r="73.3863" stroke="black" stroke-width="5" stroke-dasharray="12 12"/>
<mask id="path-2-inside-1_142_2438" fill="white">
<path d="M150.086 136.97C146.027 153.201 136.718 167.635 123.607 178.028C110.496 188.421 94.3172 194.19 77.5883 194.437C60.8593 194.684 44.5177 189.396 31.1051 179.394C17.6925 169.393 7.96101 155.24 3.42425 139.136L7.06084 138.112C11.3717 153.414 20.6187 166.862 33.3635 176.366C46.1083 185.869 61.6364 190.894 77.5325 190.659C93.4285 190.424 108.801 184.943 121.26 175.067C133.718 165.192 142.564 151.476 146.421 136.053L150.086 136.97Z"/>
</mask>
<path d="M150.086 136.97C146.027 153.201 136.718 167.635 123.607 178.028C110.496 188.421 94.3172 194.19 77.5883 194.437C60.8593 194.684 44.5177 189.396 31.1051 179.394C17.6925 169.393 7.96101 155.24 3.42425 139.136L7.06084 138.112C11.3717 153.414 20.6187 166.862 33.3635 176.366C46.1083 185.869 61.6364 190.894 77.5325 190.659C93.4285 190.424 108.801 184.943 121.26 175.067C133.718 165.192 142.564 151.476 146.421 136.053L150.086 136.97Z" stroke="white" stroke-width="10" stroke-dasharray="12 12" mask="url(#path-2-inside-1_142_2438)"/>
<line x1="39.8673" y1="43.5781" x2="26.0022" y2="1.24042" stroke="black" stroke-width="5" stroke-dasharray="12 12"/>
</svg>
