<svg width="413" height="413" viewBox="0 0 413 413" fill="none" xmlns="http://www.w3.org/2000/svg">
<mask id="path-1-inside-1_142_2455" fill="white">
<path d="M229.499 62.2429C260.336 67.126 288.799 81.7529 310.722 103.982C332.645 126.211 346.875 154.875 351.329 185.776L345.58 186.605C341.303 156.932 327.638 129.407 306.586 108.061C285.534 86.715 258.202 72.6693 228.591 67.9802L229.499 62.2429Z"/>
</mask>
<path d="M229.499 62.2429C260.336 67.126 288.799 81.7529 310.722 103.982C332.645 126.211 346.875 154.875 351.329 185.776L345.58 186.605C341.303 156.932 327.638 129.407 306.586 108.061C285.534 86.715 258.202 72.6693 228.591 67.9802L229.499 62.2429Z" stroke="white" stroke-width="12" stroke-dasharray="12 12" mask="url(#path-1-inside-1_142_2455)"/>
<mask id="path-2-inside-2_142_2455" fill="white">
<path d="M348.173 172.208C353.42 193.745 353.701 216.194 348.993 237.856C344.286 259.518 334.714 279.826 321.002 297.243C307.289 314.66 289.795 328.731 269.843 338.391C249.891 348.051 228.004 353.047 205.837 353.002C183.669 352.956 161.802 347.87 141.89 338.128C121.978 328.386 104.542 314.243 90.9017 296.77C77.2609 279.296 67.7725 258.95 63.1542 237.269C58.5358 215.587 58.9085 193.14 64.244 171.624L69.9066 173.029C64.784 193.686 64.4262 215.237 68.8602 236.053C73.2942 256.869 82.404 276.404 95.5004 293.18C108.597 309.956 125.337 323.534 144.454 332.888C163.572 342.241 184.566 347.124 205.848 347.168C227.131 347.211 248.145 342.415 267.301 333.14C286.457 323.866 303.252 310.356 316.418 293.634C329.583 276.912 338.773 257.415 343.292 236.617C347.812 215.82 347.543 194.267 342.505 173.589L348.173 172.208Z"/>
</mask>
<path d="M348.173 172.208C353.42 193.745 353.701 216.194 348.993 237.856C344.286 259.518 334.714 279.826 321.002 297.243C307.289 314.66 289.795 328.731 269.843 338.391C249.891 348.051 228.004 353.047 205.837 353.002C183.669 352.956 161.802 347.87 141.89 338.128C121.978 328.386 104.542 314.243 90.9017 296.77C77.2609 279.296 67.7725 258.95 63.1542 237.269C58.5358 215.587 58.9085 193.14 64.244 171.624L69.9066 173.029C64.784 193.686 64.4262 215.237 68.8602 236.053C73.2942 256.869 82.404 276.404 95.5004 293.18C108.597 309.956 125.337 323.534 144.454 332.888C163.572 342.241 184.566 347.124 205.848 347.168C227.131 347.211 248.145 342.415 267.301 333.14C286.457 323.866 303.252 310.356 316.418 293.634C329.583 276.912 338.773 257.415 343.292 236.617C347.812 215.82 347.543 194.267 342.505 173.589L348.173 172.208Z" stroke="black" stroke-width="12" stroke-dasharray="12 12" mask="url(#path-2-inside-2_142_2455)"/>
<mask id="path-3-inside-3_142_2455" fill="white">
<path d="M236.292 63.3354C199.084 55.5757 160.316 62.6128 128.208 82.9547C96.1002 103.297 73.1775 135.344 64.2997 172.302L69.9479 173.659C78.4729 138.169 100.485 107.395 131.317 87.8617C162.149 68.328 199.376 61.5705 235.106 69.0219L236.292 63.3354Z"/>
</mask>
<path d="M236.292 63.3354C199.084 55.5757 160.316 62.6128 128.208 82.9547C96.1002 103.297 73.1775 135.344 64.2997 172.302L69.9479 173.659C78.4729 138.169 100.485 107.395 131.317 87.8617C162.149 68.328 199.376 61.5705 235.106 69.0219L236.292 63.3354Z" stroke="white" stroke-width="12" stroke-dasharray="12 12" mask="url(#path-3-inside-3_142_2455)"/>
</svg>
