<svg width="285" height="407" viewBox="0 0 285 407" fill="none" xmlns="http://www.w3.org/2000/svg">
<path d="M5.20758 321.876C11.3114 337.115 28.23 358.966 48.3999 366.552C68.5699 374.138 93.2959 371.905 101.988 371.507C103.504 371.438 105.464 371.436 107.706 371.461M107.706 371.461C118.316 371.577 135.217 372.277 141.023 369.119C148.056 365.294 166.346 347.137 176.365 323.251C186.385 299.366 191.14 287.334 191.051 281.031C190.981 275.989 170.41 274.802 160.133 274.838C150.358 300.753 128.782 354.475 120.676 362.042C112.57 369.609 108.652 371.474 107.706 371.461Z" stroke="black" stroke-width="3.2314"/>
<path d="M159.463 273.486C162.584 274.453 182.563 278.7 192.416 280.387L190.659 245.277C186.549 246.31 177.22 249.637 172.785 254.685C168.35 259.733 162.134 269.645 159.463 273.486Z" fill="black"/>
<path d="M4.90073 322.759C8.43928 325.701 25.7122 320.305 31.9049 315.616C38.0975 310.927 80.141 286.777 86.6654 282.774C93.1898 278.771 113.183 273.751 118.646 272.8C124.109 271.849 156.389 274.127 159.618 274.68" stroke="black" stroke-width="3.2314"/>
<path d="M5.53264 322.581C5.46621 327.69 6.88065 325.263 12.0117 323.627C17.1427 321.99 44.6997 311.618 51.1136 303.015C57.5275 294.412 66.5071 271.876 68.3207 263.383C70.1344 254.891 67.4367 226.582 66.8397 220.102C66.2427 213.621 62.1738 185.976 63.2354 182.924C64.2971 179.872 67.2829 172.927 70.3792 170.583C73.4755 168.239 143.983 142.585 153.272 135.552C162.561 128.52 189.034 109.788 206.706 86.8533C224.377 63.919 246.051 47.509 256.424 48.8362C266.796 50.1634 271.949 59.9389 273.387 67.2815C274.824 74.6241 255.936 138.761 254.321 145.042C252.706 151.323 237.866 192.349 233.973 203.539C230.08 214.73 221.543 229.437 205.066 239.102C188.589 248.766 166.473 259.891 162.912 271.767" stroke="black" stroke-width="3.2314"/>
<path d="M4.1512 324.952C5.23498 320.197 34.2743 287.532 39.6929 276.872C45.1116 266.212 54.5113 250.664 57.0992 235.028C59.1695 222.519 63.8334 192.133 63.2143 182.984" stroke="black" stroke-width="3.2314"/>
<path d="M68.145 249.134C73.829 244.269 103.244 221.998 108.707 221.047C114.17 220.096 130.005 220.473 135.888 226.51C140.594 231.341 147.314 242.84 150.086 247.986C155.763 243.688 167.527 234.893 169.173 234.097C171.229 233.102 168.443 224.72 168.332 220.119C168.222 215.519 178.949 189.599 180.541 185.021C182.134 180.443 178.883 168.478 175.167 166.045C171.452 163.612 151.614 156.712 147.235 152.908C143.731 149.864 141.013 142.38 140.91 141.584" stroke="black" stroke-width="3.2314"/>
<path d="M221.765 223.88C215.263 213.065 204.67 189.423 213.937 157.863C223.205 126.303 226.124 111.352 223.603 108.765C221.082 106.177 213.076 106.243 208.586 110.954C204.994 114.723 202.003 119.498 200.956 121.415C196.665 123.914 189.986 126.723 185.939 110.489" stroke="black" stroke-width="3.2314"/>
<path d="M77.8776 168.698C79.6999 175.262 84.844 183.095 87.1882 186.192" stroke="black" stroke-width="3.2314"/>
<path d="M92.4523 161.222C94.2746 167.787 99.4187 175.62 101.763 178.717" stroke="black" stroke-width="3.2314"/>
<path d="M105.811 155.605C107.633 162.169 112.777 170.003 115.121 173.099" stroke="black" stroke-width="3.2314"/>
<path d="M120.186 150.342C122.008 156.906 127.153 164.74 129.497 167.836" stroke="black" stroke-width="3.2314"/>
</svg>
