<svg width="331" height="244" viewBox="0 0 331 244" fill="none" xmlns="http://www.w3.org/2000/svg">
<path d="M9.02189 15.6536C9.02189 21.0873 8.41185 26.5211 7.55338 31.6536M7.55338 31.6536C6.674 36.9111 5.53393 41.8524 4.52189 46.1536C2.52189 54.6536 0.0218899 65.6536 4.52189 80.1536C9.02189 94.6536 25.5215 114.654 36.5215 119.654C47.5215 124.654 68.0215 128.154 92.0215 135.654C116.021 143.154 134 163.654 136 168.154C138 172.654 161.521 219.154 167.521 225.654C173.521 232.154 187.521 241.654 198.521 241.654C209.521 241.654 280.521 239.654 289.021 238.654C297.521 237.654 320.521 231.654 325.021 228.654C329.521 225.654 330.521 219.154 325.021 214.154C319.521 209.154 264.021 184.154 261.521 184.154C259.021 184.154 261.521 188.654 258.021 194.654C254.521 200.654 237.521 206.654 220.521 200.654C203.521 194.654 192.021 173.154 175.021 150.154C158.021 127.154 160.479 123.654 119 81.6536C108.519 71.0404 47.5215 37.1536 42.0215 35.6536C37.6215 34.4536 17.2094 32.4869 7.55338 31.6536Z" stroke="black" stroke-width="3"/>
<path d="M58.0215 171.154C55.0215 161.654 40.0215 128.654 33.0215 118.154L65.5 128.154L99 138.654C95.3333 145.32 88.8257 158.531 88.0215 161.654C83 181.154 85.0215 203.154 85.0215 206.654V242.154H73.5215C69.3548 221.654 60.4215 178.754 58.0215 171.154Z" stroke="black" stroke-width="3"/>
<path d="M10 17.0969C23.5 19.0969 65 18.3625 79.5 16.0969C95.5 13.597 125 4.15356 128 3.15356C131 2.15356 132.5 0.5969 134.5 4.5969C136.1 7.7969 136.167 11.9303 136 13.597C130.833 16.597 125 20.1536 118 23.1536C114.21 24.7778 99.5 32.097 55.5 35.097C47.5086 35.6418 21.8333 32.9303 10 32.097" stroke="black" stroke-width="3"/>
<path d="M45 35.6536C57.6528 37.1536 104.774 58.1576 112.115 63.6536C141.5 85.6536 162.726 108.154 171.528 121.154C187.101 144.154 196.295 161.154 220.5 170.154C239.864 177.354 255.515 183.82 264.5 184.654" stroke="black" stroke-width="3"/>
</svg>
