<svg width="150" height="307" viewBox="0 0 150 307" fill="none" xmlns="http://www.w3.org/2000/svg">
<path d="M2 282.352C10.861 292.542 29.9122 304.948 47.6342 305.391C65.3562 305.834 83.9643 297.416 90.61 294.758C91.7692 294.294 93.2922 293.763 95.0405 293.176M95.0405 293.176C103.316 290.399 116.637 286.375 120.294 282.352C124.725 277.479 129.598 267.83 133.586 245.235C137.289 224.251 138.902 208.806 137.13 203.933C135.713 200.034 118.079 203.933 109.661 203.933C109.07 226.71 106.826 274.282 102.572 282.352C98.3191 290.423 95.7789 292.931 95.0405 293.176Z" stroke="black" stroke-width="3"/>
<path d="M110.104 204.031C112.791 203.939 127.69 202.597 135.801 201.244L124.947 174.439C122.033 176.353 115.73 183.403 113.649 188.524C111.567 193.645 111.141 200.325 110.104 204.031Z" stroke="black" stroke-width="3"/>
<path d="M2.44287 282.812C3.77202 286.8 4.21507 284.532 7.75947 281.873C11.3039 279.215 29.912 263.708 32.5703 255.291C35.2286 246.873 36.1147 226.935 35.2286 219.847C34.3425 212.758 24.5954 191.491 22.3801 186.618C20.1649 181.744 9.53167 161.364 9.53167 158.706C9.53167 156.047 9.97472 149.845 11.7469 147.186C13.5191 144.528 61.3685 105.54 66.6851 97.5646C72.0017 89.5897 87.5085 67.8803 95.0403 45.2847C102.572 22.6892 114.978 4.08107 123.396 2.30887C131.814 0.53667 138.459 6.73937 141.561 12.056C144.662 17.3726 147.32 72.3108 147.763 77.6274C148.206 82.944 147.763 118.831 147.763 128.578C147.763 138.325 146.697 153.624 134.915 164.022C117.193 179.663 109.218 194.284 109.661 204.474" stroke="black" stroke-width="3"/>
<path d="M2.01049 285.027C1.56744 281.04 15.302 247.811 16.6311 238.064C17.9603 228.317 21.0617 213.696 18.8464 200.848C17.0742 190.569 12.4855 165.699 9.53185 158.758" stroke="black" stroke-width="3"/>
<path d="M31.2412 208.823C34.3426 203.506 51.1785 178.252 55.1659 176.037C59.1534 173.822 71.5588 169.834 77.7615 172.936C82.7236 175.417 91.053 182.535 94.5974 185.784C97.8464 180.911 104.61 170.898 105.674 169.834C107.003 168.505 102.572 162.746 101.243 159.201C99.914 155.657 101.243 132.618 101.243 128.631C101.243 124.643 95.4835 116.225 91.9391 115.339C88.3947 114.453 71.1157 114.453 66.6852 112.681C63.1408 111.263 59.0057 106.183 58.7103 105.592" stroke="black" stroke-width="3"/>
<path d="M143.776 147.682C135.801 141.036 121.181 125.529 119.851 98.5033C118.522 71.4773 116.75 59.0719 114.092 57.7427C111.433 56.4136 105.231 58.6288 103.015 63.5024C101.243 67.4012 100.209 71.9203 99.9141 73.6925C97.2558 76.7939 92.8253 80.7813 85.2935 69.262" stroke="black" stroke-width="3"/>
<path d="M109.218 14.8486C101.243 32.2753 85.2935 67.6602 85.2935 69.7869L93.2684 76.8757L99.028 74.6604L106.117 59.1537L115.421 57.8245L119.408 86.1797L120.294 110.991L129.598 132.7L145.105 149.536L148.65 123.396L145.105 42.7608L145.105 26.811L140.675 11.3042L137.13 5.98764L130.928 3.32934L121.624 3.32934L109.218 14.8486Z" fill="black"/>
<path d="M57.8242 105.674C52.5076 109.218 25.1862 134.324 12.19 146.434L9.53174 156.182L14.4053 171.688L22.3802 184.98L32.1273 205.36L42.7605 191.183L55.1659 175.233L68.9005 171.688L82.635 175.233C86.1794 178.777 94.0657 187.195 97.2557 190.739C100.446 194.284 107.889 200.782 110.104 204.031L112.319 190.739C109.366 171.836 107.269 141.738 106.56 138.903C105.674 135.358 102.129 121.624 95.4835 117.193C90.1669 113.649 77.6138 113.058 72.0018 113.206L57.8242 105.674Z" fill="black"/>
<path d="M17.0635 143.776C20.2534 148.384 26.3675 153.08 29.0258 154.852" stroke="#FA4821" stroke-width="3"/>
<path d="M26.3677 134.029C29.5576 138.637 35.6717 143.333 38.33 145.105" stroke="#FA4821" stroke-width="3"/>
<path d="M35.2285 126.054C38.4185 130.662 44.5326 135.358 47.1909 137.13" stroke="#FA4821" stroke-width="3"/>
<path d="M44.9761 118.079C48.166 122.687 54.2801 127.383 56.9384 129.155" stroke="#FA4821" stroke-width="3"/>
<path d="M19.2788 270.932C13.9622 273.147 8.20258 281.122 5.10122 282.451C1.99987 283.78 1.11377 283.78 5.10122 287.768C9.08868 291.755 27.6966 301.502 40.102 304.603C52.5075 307.705 64.9129 305.046 70.6725 302.388C76.4322 299.73 85.283 298.061 89.2704 295.403C92.4604 293.276 100.642 291.12 105.22 289.643C106.845 276.056 109.119 250.034 108.765 244.009C108.41 237.983 109.218 236.078 107.889 235.931C102.425 235.34 90.7871 234.513 87.9516 235.931C84.4072 237.703 75.9892 238.146 69.7865 248.779C63.5838 259.413 56.495 276.692 52.5076 280.236C48.5201 283.78 43.2035 287.768 39.2161 285.996C36.0261 284.578 24.5954 275.362 19.2788 270.932Z" fill="black"/>
</svg>
