<svg width="117" height="107" viewBox="0 0 117 107" fill="none" xmlns="http://www.w3.org/2000/svg">
<path d="M115.844 72.9061C106.252 77.0418 85.0983 85.9944 77.2225 88.7196C67.788 91.9841 56.2296 85.8596 44.9158 80.3066L29.8122 72.0543C31.7475 70.5681 39.2617 66.09 53.8353 60.0674C72.0523 52.5391 77.9417 55.4006 86.0188 57.505C92.4805 59.1886 108.595 68.4739 115.844 72.9061Z" fill="black"/>
<path d="M79.5833 22.5554C77.0527 30.5195 71.3713 47.9948 68.8907 54.1833C65.9192 61.5966 56.1963 65.3876 46.9447 69.3292L34.0898 74.1526C34.2088 72.2051 35.4471 65.3192 39.4485 53.3556C44.4503 38.4012 49.2487 36.3341 54.7362 32.548C59.1261 29.5191 73.1301 24.6242 79.5833 22.5554Z" fill="black"/>
<circle cx="29.8129" cy="72.0548" r="15.0473" transform="rotate(-109.087 29.8129 72.0548)" fill="black"/>
</svg>
