<svg width="320" height="231" viewBox="0 0 320 231" fill="none" xmlns="http://www.w3.org/2000/svg">
<path d="M153.53 221C148.03 219.5 144.013 218.5 142.013 216.5C140.013 214.5 133.013 206.5 127.513 192.5C122.013 178.5 115.013 160.5 115.513 158C115.913 156 116.679 148.5 117.013 145L118.03 143C118.53 142.833 117.321 143.349 111.013 144.5C105.53 145.5 83.0127 149.5 79.0127 152C75.0127 154.5 62.5127 167 60.0127 172.5C57.5127 178 48.5127 208.5 48.0127 211C47.5127 213.5 43.5127 223 43.5127 226C43.5127 229 61.846 228.333 71.0127 229C70.1794 225.5 68.6127 216.7 69.0127 209.5C69.5127 200.5 71.5127 179.5 73.0127 177.5C74.5127 175.5 77.0127 164 85.0127 160.5C93.0127 157 100.513 156 105.013 157C109.513 158 109.53 169 110.03 172.5C110.525 175.965 110.513 188 114.013 199.5C116.813 208.7 122.197 223 124.53 228L145.513 224.5L152.53 222L153.53 221Z" fill="black"/>
<path d="M295.03 1.5C311.03 12.5 318.012 29 317.512 48C317.012 67 293.512 94 288.012 102.5M288.012 102.5C282.512 111 268.548 184 266.53 196.5C264.868 206.797 264.346 220.833 264.012 226V229.5H250.012C250.346 212.5 251.012 192.5 251.012 174C251.012 169.5 251.548 154.5 248.53 133.5C248.17 130.996 245.346 125.167 243.012 122.5M288.012 102.5L243.012 122.5M243.012 122.5C231.512 128 207.512 146.5 203.012 151C198.512 155.5 180.512 178.5 175.012 190C169.512 201.5 161.012 218.5 149.512 223C138.012 227.5 117.512 229.5 91.5125 229.5C65.5125 229.5 25.0125 228.5 17.5125 224.5C10.0125 220.5 3.51245 214.5 3.01245 212.5C2.51245 210.5 -0.487549 205.5 7.01245 198.5C14.5125 191.5 47.0125 191 54.0125 191.5" stroke="black" stroke-width="3"/>
<path d="M145.03 190C143.03 182.5 123.013 149.375 121.513 147.875C120.013 146.375 118.513 142.875 117.013 145.375C115.513 147.875 117.013 159.875 117.013 162.375C117.013 164.875 124.513 184.375 125.013 186.875C125.513 189.375 132.013 203.875 133.513 206.375C135.013 208.875 144.513 220.875 146.013 221.375C147.213 221.775 147.697 221.375 148.53 221.875" stroke="black" stroke-width="3"/>
<path d="M217.53 110C212.53 112.5 191.582 134.545 189.03 137.5C179.53 148.5 163.512 173.5 160.012 177C156.512 180.5 144.03 191.5 143.53 191.5" stroke="black" stroke-width="3"/>
<path d="M294.512 0C298.512 0 302.012 6.5 304.512 9.5C300.512 11.1667 291.512 15.2 283.512 18C273.512 21.5 261.012 38 259.012 39.5C257.012 41 243.512 63.5 237.512 76C232.712 86 231.179 115.5 231.012 129L217.03 138.5C216.863 132.5 215.412 116.6 215.012 105C214.512 90.5 223.512 72.5 220.012 71.5C216.512 70.5 199.512 62 197.512 60.5C185.512 51.5 185.512 49 183.512 46.5C181.512 44 179.012 36.5 179.012 34.5C179.012 32.5 181.512 22.5 185.512 18C189.512 13.5 200.512 12.5 208.012 13C215.512 13.5 224.512 18.5 226.512 20C228.512 21.5 240.03 30 245.512 34.5C247.593 36.2084 254.03 21.5 274.012 9.5C275.558 8.57186 290.512 0 294.512 0Z" fill="black"/>
</svg>
