<svg width="333" height="248" viewBox="0 0 333 248" fill="none" xmlns="http://www.w3.org/2000/svg">
<path d="M12.0851 233.594C11.9636 228.162 11.2322 222.743 10.2591 217.631M10.2591 217.631C9.26239 212.394 8.01211 207.48 6.90413 203.202C4.71455 194.749 1.96918 183.808 6.1438 169.211C10.3184 154.614 26.3666 134.25 37.2521 129.005C48.1375 123.76 68.5541 119.803 92.3804 111.768C116.207 103.733 133.722 82.8362 135.621 78.2926C137.52 73.749 159.996 26.7346 165.849 20.1021C171.702 13.4695 185.486 3.65884 196.483 3.41285C207.481 3.16686 278.507 3.57859 287.028 4.38826C295.548 5.19793 318.676 10.6821 323.242 13.5807C327.808 16.4793 328.953 22.9553 323.567 28.0771C318.18 33.1988 263.253 59.4337 260.753 59.4896C258.254 59.5455 260.653 54.9907 257.019 49.0705C253.386 43.1503 236.256 37.5319 219.395 43.9106C202.533 50.2893 191.517 72.0411 175.035 95.4155C158.554 118.79 161.089 122.234 120.56 165.151C110.318 175.996 50.0942 211.238 44.6292 212.861C40.2571 214.159 19.8941 216.582 10.2591 217.631Z" stroke="black" stroke-width="3"/>
<path d="M57.5947 77.0372C54.8078 86.6019 40.5496 119.929 33.7861 130.583L66.0329 119.859L99.2897 108.613C95.4749 102.03 88.6734 88.9682 87.7996 85.8639C82.3433 66.4811 83.8723 44.4414 83.794 40.9423L83.0001 5.45115L71.503 5.70833C67.7958 26.2964 59.8241 69.3854 57.5947 77.0372Z" stroke="black" stroke-width="3"/>
<path d="M13.0306 232.129C26.4825 229.828 67.9885 229.634 82.5355 231.575C98.5874 233.716 128.291 242.498 131.313 243.43C134.334 244.363 135.869 245.886 137.779 241.842C139.307 238.607 139.281 234.473 139.077 232.811C133.845 229.927 127.933 226.502 120.868 223.659C117.043 222.12 102.173 215.131 58.1166 213.116C50.115 212.75 24.5068 216.035 12.6951 217.133" stroke="black" stroke-width="3"/>
<path d="M47.6069 212.795C60.223 211.012 106.863 188.959 114.079 183.301C142.965 160.649 163.682 137.68 172.191 124.486C187.246 101.144 196.057 83.9426 220.055 74.4035C239.254 66.7723 254.756 59.9572 263.72 58.9232" stroke="black" stroke-width="3"/>
</svg>
