<svg width="320" height="232" viewBox="0 0 320 232" fill="none" xmlns="http://www.w3.org/2000/svg">
<path d="M166.007 10.5001C171.507 12.0001 175.525 13 177.525 15C179.525 17 186.525 25 192.025 39C197.525 53 204.525 71 204.025 73.5C203.625 75.5 202.858 83 202.525 86.5L201.507 88.4999C201.007 88.6666 202.216 88.1506 208.525 87C214.007 86 236.525 82 240.525 79.5C244.525 77 257.025 64.5 259.525 59C262.025 53.5 271.025 23 271.525 20.5C272.025 18 276.025 8.50002 276.025 5.50002C276.025 2.50002 257.692 3.16668 248.525 2.50001C249.358 6.00001 250.925 14.8 250.525 22C250.025 31 248.025 52 246.525 54C245.025 56 242.525 67.5 234.525 71C226.525 74.5 219.025 75.5 214.525 74.5C210.025 73.5 210.007 62.5001 209.507 59.0001C209.012 55.5354 209.025 43.5 205.525 32C202.725 22.8 197.341 8.50013 195.007 3.50013L174.025 7.00001L167.007 9.49997L166.007 10.5001Z" fill="black"/>
<path d="M24.5068 230C8.50684 219 1.52501 202.5 2.02501 183.5C2.52501 164.5 26.0247 137.5 31.5247 129M31.5247 129C37.0247 120.5 50.989 47.5 53.0069 35C54.6691 24.7026 55.1913 10.6667 55.5247 5.5L55.5247 2L69.5247 2.00001C69.1914 19 68.5247 39 68.5247 57.5C68.5247 62 67.989 77 71.0068 98C71.3667 100.504 74.1914 106.333 76.5247 109M31.5247 129L76.5247 109M76.5247 109C88.0247 103.5 112.025 85 116.525 80.5C121.025 76 139.025 53 144.525 41.5C150.025 30 158.525 13 170.025 8.50001C181.525 4.00002 202.025 2.00002 228.025 2.00002C254.025 2.00002 294.525 3.00003 302.025 7.00003C309.525 11 316.025 17 316.525 19C317.025 21 320.025 26 312.525 33C305.025 40 272.525 40.5 265.525 40" stroke="black" stroke-width="3"/>
<path d="M174.507 41.5C176.507 49 196.525 82.125 198.025 83.625C199.525 85.125 201.025 88.625 202.525 86.125C204.025 83.625 202.525 71.625 202.525 69.125C202.525 66.625 195.025 47.125 194.525 44.625C194.025 42.125 187.525 27.625 186.025 25.125C184.525 22.625 175.025 10.625 173.525 10.125C172.325 9.725 171.841 10.125 171.007 9.625" stroke="black" stroke-width="3"/>
<path d="M102.007 121.5C107.007 119 127.955 96.9555 130.507 94C140.007 83 156.025 58 159.525 54.5C163.025 51 175.507 40 176.007 40" stroke="black" stroke-width="3"/>
<path d="M25.0249 231.5C21.0249 231.5 17.5249 225 15.0249 222C19.0249 220.333 28.0249 216.3 36.0249 213.5C46.0249 210 58.5249 193.5 60.5249 192C62.5249 190.5 76.0249 168 82.0249 155.5C86.8249 145.5 88.3582 116 88.5249 102.5L102.507 93C102.674 99 104.125 114.9 104.525 126.5C105.025 141 96.0249 159 99.5249 160C103.025 161 120.025 169.5 122.025 171C134.025 180 134.025 182.5 136.025 185C138.025 187.5 140.525 195 140.525 197C140.525 199 138.025 209 134.025 213.5C130.025 218 119.025 219 111.525 218.5C104.025 218 95.0249 213 93.0249 211.5C91.0249 210 79.5068 201.5 74.0249 197C71.9437 195.292 65.5068 210 45.5249 222C43.9794 222.928 29.0249 231.5 25.0249 231.5Z" fill="black"/>
</svg>
