<svg width="377" height="330" viewBox="0 0 377 330" fill="none" xmlns="http://www.w3.org/2000/svg">
<path d="M22.0751 177.791C18.1819 192.525 18.6831 218.176 29.5082 235.001C40.3334 251.825 59.9923 263.858 66.6884 268.376C67.8563 269.164 69.3179 270.249 70.9743 271.509M70.9743 271.509C78.8146 277.473 91.0185 287.356 97.0938 288.219C104.453 289.265 116.551 287.695 140.172 277.088C162.109 267.238 177.55 258.949 180.976 254.204C183.716 250.408 168.894 236.42 163.556 228.562C141.918 242.455 96.0861 270.528 85.855 271.676C75.624 272.823 71.6716 272.043 70.9743 271.509Z" stroke="black" stroke-width="3"/>
<path d="M163.745 229.038C165.534 231.487 176.235 244.544 182.642 251.259L200.781 224.128C197.147 222.62 186.569 221.208 180.468 222.513C174.367 223.817 167.862 227.655 163.745 229.038Z" stroke="black" stroke-width="3"/>
<path d="M21.9266 178.496C19.0472 182.266 21.4454 181.241 26.1746 182.864C30.9039 184.487 57.1801 192.024 66.7241 189.167C76.2681 186.31 95.4416 174.493 101.497 169.171C107.553 163.848 121.224 141.263 124.368 136.104C127.513 130.945 139.795 108.095 142.276 106.409C144.758 104.723 150.829 101.203 154.434 101.172C158.04 101.14 224.78 121.083 235.597 120.988C246.413 120.894 276.513 121.602 302.382 114.304C328.252 107.005 353.49 106.785 360.482 113.519C367.475 120.254 365.9 130.391 362.903 136.658C359.907 142.925 310.308 180.246 305.626 184.032C300.943 187.817 267.162 210.162 258.063 216.343C248.964 222.524 234.006 231.23 216.827 226.826C190.988 220.202 172.282 222.029 163.05 228.905" stroke="black" stroke-width="3"/>
<path d="M19.5843 179.497C23.0256 176.555 62.7549 168.303 72.6968 163.363C82.6387 158.422 98.2539 152.045 108.843 141.829C117.315 133.657 137.621 113.601 142.227 106.442" stroke="black" stroke-width="3"/>
<path d="M109.259 158.458C116.189 157.981 150.441 157.682 155.037 160C159.634 162.317 171.223 171.369 172.262 179.126C173.093 185.332 171.73 197.621 170.944 202.991C177.554 202.933 191.191 202.897 192.858 203.215C194.942 203.613 197.509 195.825 199.974 192.336C202.44 188.848 224.79 175.478 228.512 172.949C232.234 170.421 236.44 159.706 235.019 155.835C233.599 151.964 222.641 135.834 221.486 130.575C220.562 126.367 222.682 119.285 223.046 118.634" stroke="black" stroke-width="3"/>
<path d="M237.701 224.736C238.847 213.077 244.051 189.594 268.437 171.214C292.823 152.834 303.28 143.313 302.834 139.989C302.389 136.664 296.388 132.279 290.434 133.301C285.67 134.12 280.796 136.02 278.954 136.869C274.373 136.354 267.841 134.747 273.818 120.41" stroke="black" stroke-width="3"/>
<path d="M339.786 108.237C318.46 111.844 275.313 119.395 273.328 120.743L271.768 132.683L277.489 136.655L296.46 133.439L303.601 141.281L279.66 162.985L257.061 179.547L242.695 202L236.813 227.152L263.462 213.884L336.488 159.439L351.377 149.324L363.043 135.354L365.759 128.674L364.306 121.198L358.406 112.512L339.786 108.237Z" fill="black"/>
<path d="M222.408 117.859C215.727 115.144 174.964 105.561 155.418 101.108L144.633 104.808L133.248 119.192L125.898 135.065L113.054 157.089L133.032 158.024L155.788 159.49L167.807 170.063L173.208 185.132C172.148 190.689 169.291 203.389 168.005 208.615C166.719 213.84 165.373 224.909 163.745 229.038L177.558 222.677C193.331 207.931 220.098 186.887 222.295 184.427C225.042 181.352 235.615 169.333 235.537 160.319C235.474 153.109 228.065 141.016 224.368 135.87L222.408 117.859Z" fill="black"/>
<path d="M161.066 103.92C158.788 109.82 158.281 118.506 158.313 122.111" stroke="#FA4821" stroke-width="3"/>
<path d="M176.066 106.424C173.787 112.324 173.281 121.01 173.312 124.615" stroke="#FA4821" stroke-width="3"/>
<path d="M189.13 109.639C186.851 115.539 186.345 124.224 186.376 127.83" stroke="#FA4821" stroke-width="3"/>
<path d="M202.756 113.68C200.477 119.58 199.971 128.266 200.002 131.871" stroke="#FA4821" stroke-width="3"/>
<path d="M43.6945 186.678C38.2549 183.12 27.1577 182.801 23.9502 180.749C20.7426 178.696 20.1807 177.869 18.9871 184.12C17.7935 190.371 20.4953 213.923 25.4673 227.47C30.4393 241.018 40.7879 250.912 46.922 254.603C53.0562 258.294 60.2269 265.498 65.2372 267.535C69.2454 269.164 76.4468 275.434 80.7287 278.771C94.4424 271.671 120.176 257.292 125.576 253.14C130.976 248.988 133.267 248.534 132.562 247.2C129.648 241.724 123.04 230.336 119.918 228.588C116.016 226.403 110.264 218.826 96.4041 219.779C82.5444 220.732 61.9189 225.073 56.0815 223.598C50.244 222.123 43.1501 219.689 42.2758 214.843C41.5763 210.966 42.9301 194.451 43.6945 186.678Z" fill="black"/>
</svg>
