<svg width="288" height="495" viewBox="0 0 288 495" fill="none" xmlns="http://www.w3.org/2000/svg">
<path d="M227.694 35.8869C212.002 22.2159 180.286 7.32933 153.141 10.4196C125.996 13.5098 99.3819 30.3138 89.8029 35.7839C88.1321 36.738 85.9201 37.8723 83.3763 39.1394M83.3763 39.1394C71.3353 45.1371 51.8574 54.11 47.1293 61.0284C41.4023 69.4084 31.2496 100.465 33.7406 133.209C36.2317 165.952 37.8153 182.277 41.5562 189.339C44.5489 194.989 68.4501 184.446 80.0266 178.468C76.0873 143.575 69.4032 70.4845 74.1801 57.2619C78.9571 44.0393 82.3013 39.6708 83.3763 39.1394Z" stroke="black" stroke-width="3"/>
<path d="M81.5635 179.607C77.4824 180.319 52.4822 187.066 40.388 190.855L62.6524 229.463C66.6947 225.923 75.3015 216.78 77.3903 208.52C79.4791 200.261 80.7686 185.485 81.5635 179.607Z" fill="black"/>
<path d="M227.53 34.7133C221.837 33.4377 205.461 49.5056 201.181 58.3741C196.901 67.2427 163.404 118.785 158.353 127.071C153.303 135.358 133.639 152.572 128.024 156.801C122.408 161.03 84.6627 177.107 80.6992 178.348" stroke="black" stroke-width="3"/>
<path d="M226.92 35.2791C224.044 29.4752 223.849 33.0313 219.004 37.8422C214.159 42.6531 189.051 70.2771 186.783 83.6912C184.514 97.1054 187.399 127.726 190.258 138.358C193.117 148.99 212.515 179.379 216.932 186.347C221.349 193.316 241.911 222.164 242.476 226.222C243.041 230.279 243.683 239.841 241.543 244.276C239.403 248.71 174.652 318.391 168.232 331.694C161.812 344.997 142.756 381.43 136.062 417.52C129.368 453.611 114.387 484.651 101.914 489.145C89.4418 493.639 77.9795 485.584 72.1156 478.128C66.2518 470.672 50.518 387.379 48.7117 379.358C46.9055 371.337 39.9546 316.465 37.883 301.587C35.8114 286.709 36.95 265.18 49.9618 244.755C62.9736 224.33 81.5069 198.999 78.6649 183.539" stroke="black" stroke-width="3"/>
<path d="M227.109 31.8058C228.633 37.7981 214.731 91.4374 214.773 106.598C214.816 121.758 213.19 144.734 219.302 163.875C224.191 179.188 236.481 216.174 242.465 226.141" stroke="black" stroke-width="3"/>
<path d="M198.687 154.337C195.083 163.111 174.752 205.237 169.136 209.466C163.521 213.695 145.433 222.418 135.306 219.002C127.204 216.269 112.978 207.174 106.877 202.968C102.953 211.098 94.757 227.819 93.3599 229.668C91.6136 231.979 99.6004 239.829 102.383 244.957C105.165 250.085 108.032 285.533 108.88 291.62C109.727 297.706 120.308 309.331 125.906 309.93C131.505 310.53 157.879 306.857 165.019 308.621C170.73 310.031 178.122 316.907 178.698 317.746" stroke="black" stroke-width="3"/>
<path d="M39.9091 271.58C53.4944 280.029 79.107 300.591 86.8798 341.561C94.6525 382.531 99.9942 401.09 104.334 402.554C108.674 404.017 117.671 399.318 120.017 391.408C121.893 385.08 122.511 377.962 122.585 375.195C125.984 369.896 131.899 362.868 145.844 378.85" stroke="black" stroke-width="3"/>
<path d="M234.17 250.735C228.322 244.38 217.991 238.511 213.557 236.371" stroke="black" stroke-width="3"/>
<path d="M222.04 267.591C216.191 261.235 205.861 255.366 201.426 253.226" stroke="black" stroke-width="3"/>
<path d="M210.21 281.647C204.361 275.292 194.03 269.422 189.596 267.282" stroke="black" stroke-width="3"/>
<path d="M197.026 295.891C191.178 289.536 180.847 283.667 176.413 281.527" stroke="black" stroke-width="3"/>
</svg>
