<svg width="1028" height="208" viewBox="0 0 1028 208" fill="none" xmlns="http://www.w3.org/2000/svg">
<path d="M0 133.991C1.92416 133.221 16.1629 126.602 57.7248 106.283L2.30899 55.4834C6.15731 55.8683 16.3938 57.0997 26.5534 58.9469C39.2528 61.2559 108.523 85.5003 117.759 87.8093C126.995 90.1183 125.84 90.1183 128.149 87.8093C130.458 85.5003 128.149 32.3935 128.149 22.0031C128.149 11.6126 128.149 4.68563 132.767 2.37664C137.385 0.0676462 142.003 1.22214 145.466 2.37664C148.93 3.53113 160.475 9.30361 168.556 13.9216C176.638 18.5396 253.989 50.8655 265.534 54.3289C277.079 57.7924 353.276 78.5733 374.057 82.0368C394.837 85.5003 435.245 91.2728 479.116 92.4273C522.987 93.5818 568.012 91.2728 616.501 86.6548C664.989 82.0368 723.869 63.5649 752.731 56.6379C781.594 49.711 837.009 19.6946 847.4 16.2311C857.79 12.7676 883.189 -1.08637 888.962 0.0681261C894.734 1.22262 898.198 5.8406 899.352 9.30409C900.507 12.7676 899.352 78.5738 899.352 85.5008C899.352 91.0424 900.891 90.8884 901.661 90.1188C907.818 87.0401 920.826 80.6519 923.596 79.7283C927.06 78.5738 977.858 62.4109 983.63 61.2564C988.248 60.3328 1014.8 56.2536 1027.5 54.3294C1026.73 55.4839 1023.81 58.7165 1018.27 62.4109C1011.34 67.0289 983.63 92.3596 977.858 97.0462C972.631 101.289 968.622 105.127 967.467 108.591C970.546 110.515 979.474 115.287 990.557 118.981C1001.64 122.676 1018.27 130.526 1025.19 133.99C1018.27 135.144 1002.1 137.915 992.866 139.762C981.321 142.071 948.995 151.307 933.987 157.08C918.979 162.852 887.807 179.015 867.026 190.56C846.245 202.105 840.473 198.641 834.7 197.487C828.928 196.332 826.619 187.096 826.619 180.169C826.619 173.242 837.009 159.389 842.782 157.08C848.554 154.771 875.108 143.157 879.726 140.848C884.889 138.267 899.352 124.754 901.661 115.518C903.97 106.282 900.507 99.3552 895.889 97.0462C891.271 94.7372 884.344 95.8917 879.726 97.0462C875.108 98.2007 860.099 107.437 850.863 112.055C841.627 116.673 802.374 142.072 741.186 166.316C679.998 190.56 634.973 198.642 611.883 202.105C588.793 205.569 479.116 209.032 447.944 205.569C416.773 202.105 367.13 191.715 349.812 188.251C332.495 184.788 268.997 160.543 263.225 158.234C257.453 155.925 192.801 122.445 189.337 120.136C185.874 117.827 159.32 99.3557 153.548 98.2012C147.775 97.0467 136.23 95.8922 132.767 98.2012C129.304 100.51 125.84 105.128 125.84 112.055C125.84 118.982 130.458 131.682 139.694 138.609C148.93 145.536 182.41 155.926 191.646 165.162C200.882 174.398 200.882 184.788 198.573 192.87C196.264 200.951 183.565 198.642 178.947 197.488C174.329 196.333 162.784 191.715 155.857 187.097C148.93 182.479 110.832 162.853 81.9692 151.308C58.8793 142.072 17.7023 135.915 0 133.991Z" fill="#FA4821"/>
<path d="M162.784 138.609C154.702 136.301 149.36 134.979 144.312 130.526C135.076 122.377 133.872 115.382 132.767 111.986C131.613 108.523 132.767 106.178 132.767 106.214C132.767 106.249 134.053 103.586 136.23 102.818C139.694 101.596 142.003 102.818 150.084 105.127C158.166 107.436 163.938 113.208 170.865 117.826C176.407 121.521 189.337 128.601 195.11 131.68V158.234C192.416 155.54 186.336 149.69 183.565 147.843C180.101 145.534 170.865 140.916 162.784 138.609Z" fill="#FA4821"/>
<path d="M832.391 131.68L831.237 157.079C840.473 151.692 860.099 143.09 865.872 139.694C872.165 135.992 877.417 133.921 882.035 130.526C886.019 127.595 891.271 121.29 893.58 114.363C895.889 107.436 893.58 105.127 892.425 103.972L892.425 103.972C891.271 102.818 886.653 101.663 880.88 102.818C875.108 103.972 850.863 121.222 847.4 123.531C844.629 125.378 836.24 130.141 832.391 131.68Z" fill="#FA4821"/>
</svg>
