<svg width="118" height="205" viewBox="0 0 118 205" fill="none" xmlns="http://www.w3.org/2000/svg">
<path d="M24.9092 116.152C16.6715 112.033 7.61004 95.5574 5.9625 91.4385C4.31496 87.3197 1.01987 67.5492 10.0814 55.1926C17.3305 45.3074 22.9871 41.1885 24.9092 40.3647L33.1473 66.7254L29.8522 93.9099H52.0941L48.799 66.7254L55.3891 40.3647C64.176 40.6393 83.2326 41.6828 89.1637 43.6598C95.0949 45.6369 109.209 53.8197 115.524 57.6639" stroke="white" stroke-width="7"/>
<path d="M29.852 94.7335C21.9438 122.412 13.102 147.455 10.0815 156.516L52.9176 201H29.0283" stroke="white" stroke-width="7"/>
<path d="M51.2701 93.9097C71.6996 135.428 79.0037 149.102 80.1021 150.75L29.8521 200.176" stroke="white" stroke-width="7"/>
<path d="M46.9464 14.8279C46.9464 21.9536 42.5824 26.1557 38.9137 26.1557C35.2449 26.1557 30.8809 21.9536 30.8809 14.8279C30.8809 7.70211 35.2449 3.5 38.9137 3.5C42.5824 3.5 46.9464 7.70211 46.9464 14.8279Z" stroke="white" stroke-width="7"/>
</svg>
