<svg width="168" height="263" viewBox="0 0 168 263" fill="none" xmlns="http://www.w3.org/2000/svg">
<path d="M2 65.682C21.1834 54.0052 28.7594 49.6959 30.1495 49.0008L66.6397 47.9583L76.0228 81.3207L64.5545 118.853H110.428L97.9169 81.3207L107.3 49.0008L145.875 51.086L165.684 65.682" stroke="black" stroke-width="7"/>
<path d="M64.5545 119.896C81.2357 163.267 106.743 230.061 116.474 258.558H56.7368" stroke="black" stroke-width="7"/>
<path d="M110.428 118.854C107.092 130.53 68.4683 217.95 57 260" stroke="black" stroke-width="7"/>
<path d="M96.502 18.7664C96.502 23.2946 95.1713 27.2504 93.1949 29.987C91.2151 32.7281 88.7847 34.0327 86.4485 34.0327C84.1123 34.0327 81.6819 32.7281 79.7021 29.987C77.7257 27.2504 76.395 23.2946 76.395 18.7664C76.395 14.2381 77.7257 10.2823 79.7021 7.54575C81.6819 4.80459 84.1123 3.5 86.4485 3.5C88.7847 3.5 91.2151 4.80459 93.1949 7.54575C95.1713 10.2823 96.502 14.2381 96.502 18.7664Z" stroke="black" stroke-width="7"/>
</svg>
