<svg width="170" height="216" viewBox="0 0 170 216" fill="none" xmlns="http://www.w3.org/2000/svg">
<path d="M85.8556 43.4844C78.951 43.4844 69.0872 46.4435 67.1145 47.4299C65.1417 48.4162 62.1826 50.389 62.1826 52.3617C62.1826 54.3345 63.169 56.3072 65.1417 58.28C67.1145 60.2527 76.9782 62.2255 79.9374 62.2255C82.3047 62.2255 96.0481 62.2255 102.624 62.2255" stroke="white" stroke-width="7"/>
<path d="M83.7988 41.0918C88.5334 53.7174 94.0754 73.7331 95.7194 80.9665L88.8147 103.653H118.406L111.501 80.9665L117.42 43.4843C124.653 43.4843 139.514 43.6816 141.093 44.4707C143.065 45.457 139.12 42.4979 151.943 51.3753C162.201 58.4772 165.423 62.2254 165.752 63.2118" stroke="white" stroke-width="7"/>
<path d="M89.801 101.68C81.91 107.993 28.6457 164.151 3 191.441" stroke="white" stroke-width="7"/>
<path d="M117.419 102.667C119.787 110.558 137.476 180.919 146.024 215.114" stroke="white" stroke-width="7"/>
<path d="M112.156 18.0066C112.156 22.3296 110.893 26.0984 109.027 28.6979C107.156 31.3032 104.883 32.5132 102.729 32.5132C100.574 32.5132 98.3008 31.3032 96.4304 28.6979C94.564 26.0984 93.3008 22.3296 93.3008 18.0066C93.3008 13.6835 94.564 9.91477 96.4304 7.31523C98.3008 4.70996 100.574 3.5 102.729 3.5C104.883 3.5 107.156 4.70996 109.027 7.31523C110.893 9.91477 112.156 13.6835 112.156 18.0066Z" stroke="white" stroke-width="7"/>
</svg>
