<svg width="257" height="254" viewBox="0 0 257 254" fill="none" xmlns="http://www.w3.org/2000/svg">
<path d="M-3.14561e-07 9.5L21.2291 0.408226L18.4882 23.339L-3.14561e-07 9.5ZM34.0697 10.6082C41.1052 11.1489 48.7342 11.789 56.7825 12.658L56.3531 16.6349C48.363 15.7722 40.7798 15.1357 33.7632 14.5964L34.0697 10.6082ZM79.4262 15.6576C86.7549 16.83 94.2779 18.25 101.893 19.9966L100.998 23.8954C93.4821 22.1714 86.0477 20.7677 78.7944 19.6074L79.4262 15.6576ZM124 26.0036C131.198 28.2917 138.393 30.9324 145.5 33.9908L143.919 37.6651C136.944 34.6635 129.873 32.0679 122.788 29.8157L124 26.0036ZM166.052 44.2382C172.622 48.0122 179.036 52.2283 185.221 56.9438L182.796 60.1248C176.757 55.5209 170.488 51.3998 164.059 47.7067L166.052 44.2382ZM202.486 72.1093C207.752 77.4362 212.755 83.2394 217.436 89.5635L214.221 91.9435C209.655 85.7748 204.776 80.1156 199.642 74.9212L202.486 72.1093ZM229.833 108.989C233.37 115.46 236.614 122.364 239.524 129.731L235.804 131.201C232.953 123.984 229.779 117.23 226.323 110.908L229.833 108.989ZM246.769 151.59C248.7 158.661 250.359 166.09 251.722 173.898L247.782 174.586C246.439 166.897 244.807 159.589 242.911 152.644L246.769 151.59ZM254.727 196.538C255.409 203.847 255.858 211.447 256.058 219.35L252.059 219.451C251.862 211.634 251.418 204.125 250.744 196.91L254.727 196.538ZM255.956 242.189C255.832 245.997 255.654 249.868 255.422 253.803L251.429 253.568C251.659 249.666 251.835 245.83 251.958 242.058L255.956 242.189Z" fill="black"/>
</svg>
