<svg width="289" height="220" viewBox="0 0 289 220" fill="none" xmlns="http://www.w3.org/2000/svg">
<path d="M288.181 200.48L274.939 219.4L265.175 198.472L288.181 200.48ZM256.371 212.738C249.475 213.946 241.816 214.89 233.58 215.434L233.317 211.442C241.413 210.908 248.93 209.98 255.681 208.798L256.371 212.738ZM210.741 215.847C203.382 215.634 195.748 215.08 187.937 214.112L188.429 210.142C196.11 211.094 203.618 211.639 210.857 211.849L210.741 215.847ZM165.393 210.194C158.09 208.548 150.716 206.504 143.344 204.007L144.627 200.219C151.86 202.668 159.098 204.675 166.272 206.292L165.393 210.194ZM122.108 195.48C115.317 192.298 108.589 188.678 101.984 184.576L104.095 181.178C110.561 185.194 117.151 188.74 123.806 191.858L122.108 195.48ZM83.2764 171.329C77.457 166.653 71.7916 161.532 66.3267 155.933L69.1893 153.139C74.5402 158.622 80.0861 163.634 85.7818 168.211L83.2764 171.329ZM51.3269 138.639C46.8045 132.772 42.4798 126.496 38.3859 119.785L41.8006 117.701C45.8196 124.29 50.0621 130.446 54.4949 136.197L51.3269 138.639ZM27.4401 99.6053C24.2567 92.9805 21.2751 86.0048 18.5175 78.6619L22.2622 77.2556C24.9793 84.4906 27.9146 91.3574 31.0455 97.8728L27.4401 99.6053ZM11.3685 57.0224C9.33046 49.9495 7.48149 42.5812 5.83642 34.9065L9.7476 34.0682C11.3739 41.6553 13.2005 48.9337 15.2121 55.9149L11.3685 57.0224ZM1.75693 12.4868C1.18859 8.72949 0.665341 4.90665 0.188563 1.01715L4.15882 0.530467C4.63113 4.38332 5.14931 8.16898 5.71194 11.8885L1.75693 12.4868Z" fill="black"/>
</svg>
