<svg width="181" height="240" viewBox="0 0 181 240" fill="none" xmlns="http://www.w3.org/2000/svg">
<path d="M161.377 0.703988L180.043 14.3017L158.934 23.6684L161.377 0.703988ZM172.591 35.023C173.349 42.4059 173.738 50.5896 173.618 59.3127L169.618 59.2575C169.737 50.6857 169.353 42.6568 168.612 35.4314L172.591 35.023ZM172.001 83.5609C171.066 91.3657 169.699 99.3852 167.819 107.473L163.923 106.567C165.768 98.6304 167.111 90.7549 168.029 83.0852L172.001 83.5609ZM160.934 130.772C158.202 138.293 154.957 145.754 151.134 153.036L147.593 151.177C151.326 144.066 154.499 136.771 157.175 129.406L160.934 130.772ZM138.253 173.701C133.523 180.136 128.222 186.308 122.295 192.114L119.496 189.257C125.262 183.608 130.422 177.601 135.03 171.332L138.253 173.701ZM103.544 207.667C97.1038 212.17 90.121 216.299 82.5574 219.98L80.8068 216.383C88.1827 212.793 94.9843 208.771 101.252 204.389L103.544 207.667ZM59.9746 229.017C52.565 231.401 44.7084 233.41 36.3815 235L35.6312 231.071C43.8035 229.51 51.5012 227.541 58.7494 225.209L59.9746 229.017ZM12.4096 238.272C8.42764 238.614 4.35372 238.87 0.185915 239.037L0.026155 235.04C4.13454 234.876 8.14765 234.623 12.0675 234.287L12.4096 238.272Z" fill="black"/>
</svg>
