<svg width="281" height="395" viewBox="0 0 281 395" fill="none" xmlns="http://www.w3.org/2000/svg">
<path d="M139.671 387.154L117.74 394.39L122.438 371.779L139.671 387.154ZM106.055 379.516C98.8731 376.508 92.0129 372.975 85.4892 368.971L87.5814 365.562C93.9335 369.46 100.611 372.899 107.6 375.826L106.055 379.516ZM66.7631 355.455C60.8715 350.505 55.3393 345.133 50.1805 339.395L53.1551 336.721C58.1933 342.325 63.5918 347.567 69.3361 352.393L66.7631 355.455ZM35.9248 321.268C31.5919 314.962 27.6336 308.357 24.0633 301.505L27.6105 299.657C31.1079 306.368 34.983 312.834 39.2215 319.002L35.9248 321.268ZM14.6109 280.482C11.8765 273.34 9.52721 266.012 7.57564 258.549L11.4455 257.537C13.3605 264.861 15.6652 272.049 18.3465 279.052L14.6109 280.482ZM2.95555 235.994C1.82171 228.421 1.08648 220.763 0.762315 213.07L4.75878 212.902C5.07694 220.453 5.79857 227.969 6.91146 235.402L2.95555 235.994ZM1.02841 190.037C1.53032 182.39 2.4481 174.753 3.79414 167.175L7.7325 167.874C6.41261 175.305 5.51226 182.796 5.01982 190.299L1.02841 190.037ZM9.09963 144.76C11.2871 137.422 13.9059 130.187 16.968 123.099L20.64 124.686C17.6416 131.625 15.0763 138.712 12.9329 145.902L9.09963 144.76ZM27.3831 102.52C31.232 95.9473 35.5123 89.5585 40.2349 83.3958L43.4098 85.8288C38.7894 91.8581 34.6013 98.1093 30.8349 104.541L27.3831 102.52ZM55.3499 66.0241C60.6529 60.6421 66.3615 55.5015 72.4845 50.6377L74.9724 53.7698C68.9764 58.5327 63.3884 63.565 58.1991 68.8315L55.3499 66.0241ZM91.3238 37.3956C97.6971 33.4428 104.427 29.754 111.52 26.3568L113.248 29.9644C106.283 33.3 99.6806 36.9194 93.4321 40.7949L91.3238 37.3956ZM132.734 17.4849C139.744 14.9489 147.052 12.6702 154.664 10.6688L155.682 14.5374C148.183 16.509 140.989 18.7521 134.095 21.2463L132.734 17.4849ZM177.078 5.75145C184.409 4.44531 191.986 3.3762 199.814 2.55832L200.229 6.53668C192.495 7.34484 185.013 8.40066 177.78 9.68942L177.078 5.75145ZM222.778 0.920571C230.239 0.62557 237.906 0.544142 245.779 0.686526L245.707 4.68588C237.908 4.54484 230.318 4.62557 222.936 4.91745L222.778 0.920571ZM268.486 1.68657C272.336 1.95266 276.231 2.26939 280.171 2.63779L279.799 6.62044C275.89 6.25498 272.027 5.94088 268.211 5.67704L268.486 1.68657Z" fill="black"/>
</svg>
