<svg width="152" height="190" viewBox="0 0 152 190" fill="none" xmlns="http://www.w3.org/2000/svg">
<path d="M137.499 136.346C136.563 151.317 134.927 163.44 122.91 166.573C110.894 169.706 95.2589 167.513 88.4611 162.259C81.6633 157.004 69.55 141.691 67.8532 136.958C66.1564 132.225 53.0569 101.348 49.4026 94.4326C45.7482 87.5171 25.462 76.5225 22.2114 73.4148C18.9607 70.3071 12.4236 62.5022 10.916 52.0396C9.40841 41.5769 10.5585 36.1437 13.0375 33.2253C15.5165 30.3068 27.3542 19.226 37.9241 22.4871C48.494 25.7483 54.5201 24.9766 65.376 40.9544C76.2319 56.9322 84.1336 68.8414 89.0096 73.503C92.9104 77.2322 108.739 88.5448 116.166 93.735C124.903 102.277 138.356 122.624 137.499 136.346Z" fill="black"/>
<ellipse cx="42.1675" cy="54.6949" rx="20.4805" ry="30.3415" transform="rotate(135.383 42.1675 54.6949)" fill="white"/>
</svg>
