<svg width="172" height="183" viewBox="0 0 172 183" fill="none" xmlns="http://www.w3.org/2000/svg">
<path d="M32.8652 38.3841C34.9544 35.1243 41.8266 29.0931 47.7222 28.4496C52.3568 27.9438 59.0177 29.3925 63.5513 33.9142C64.289 34.8778 65.1568 36.001 66.1221 37.2385C72.2832 45.1373 82.4185 57.6949 88.0886 63.1639C96.2867 71.0711 105.5 75.7381 114.791 84.6996C124.082 93.6612 129.548 98.9327 131.343 109.104C133.137 119.275 122.319 130.16 117.811 132.977C112.501 136.295 99.6167 136.527 92.0427 133.442C84.4687 130.357 78.8676 117.569 77.0342 105.251C75.2007 92.9326 59.8782 77.0987 55.5059 72.8815C51.1336 68.6643 34.7569 53.9235 33.6444 51.7955C32.5319 49.6675 30.776 41.644 32.8652 38.3841Z" fill="white"/>
<path fill-rule="evenodd" clip-rule="evenodd" d="M41.7103 22.651C35.3265 25.9882 28.9813 31.473 26.9114 35.8065C24.8416 40.1401 25.5045 47.1094 27.2023 51.9119C28.9 56.7144 35.4391 61.9665 37.6253 64.0751L56.7541 82.5254C62.2195 87.7969 70.0261 103.766 70.6502 108.588C71.2743 113.41 76.8948 127.271 78.5344 128.853C80.174 130.434 94.9305 144.667 99.8106 147.264C104.691 149.861 122.513 155.447 124.133 155.954C125.754 156.462 134.324 155.233 136.998 154.648C139.673 154.063 144.964 149.671 146.409 140.516C147.855 131.36 150.219 113.596 137.044 97.7231C123.869 81.8505 111.376 74.0208 108.663 72.4587C105.95 70.8966 97.2439 64.6098 91.7785 59.3383C86.3131 54.0668 68.2191 33.4499 67.6533 31.8489C67.2007 30.5681 59.5227 24.9655 55.7402 22.3243C52.2045 20.7807 46.9249 19.9249 41.7103 22.651ZM47.7222 28.4496C41.8266 29.0931 34.9544 35.1243 32.8652 38.3841C30.776 41.644 32.5319 49.6675 33.6444 51.7955C34.7569 53.9235 51.1336 68.6643 55.5059 72.8815C59.8782 77.0987 75.2007 92.9326 77.0342 105.251C78.8676 117.569 84.4687 130.357 92.0427 133.442C99.6167 136.527 112.501 136.295 117.811 132.977C122.319 130.16 133.137 119.275 131.343 109.104C129.548 98.9327 124.082 93.6612 114.791 84.6996C105.5 75.7381 96.2867 71.0711 88.0886 63.1639C82.4185 57.6949 72.2832 45.1373 66.1221 37.2385C65.3889 35.9833 64.5185 34.8788 63.5513 33.9142C59.0177 29.3925 52.3568 27.9438 47.7222 28.4496Z" fill="#FA4821"/>
</svg>
