<svg width="200" height="196" viewBox="0 0 200 196" fill="none" xmlns="http://www.w3.org/2000/svg">
<path d="M73.3332 20.1907C57.0444 16.821 43.5966 15.0317 36.7368 26.9723C29.877 38.913 27.6584 56.2797 31.295 65.086C34.9316 73.8923 47.7775 91.3218 52.3455 94.5189C56.9135 97.7159 86.1215 120.744 92.4528 126.673C98.7842 132.601 104.624 157.513 106.999 161.898C109.375 166.283 115.816 175.555 126.569 180.222C137.322 184.89 143.47 185.245 147.316 183.445C151.162 181.645 166.472 172.216 166.069 159.957C165.666 147.697 168.251 141.475 154.327 125.197C140.404 108.919 129.97 96.9885 126.407 90.4112C123.556 85.1494 116.075 64.9132 112.69 55.4528C106.103 43.6122 88.2629 23.2793 73.3332 20.1907Z" fill="black"/>
<ellipse rx="22.7113" ry="33.6464" transform="matrix(-0.864985 0.501798 0.501798 0.864985 132.852 146.014)" fill="white"/>
</svg>
