<svg width="167" height="179" viewBox="0 0 167 179" fill="none" xmlns="http://www.w3.org/2000/svg">
<path d="M123.869 29.0569C127.371 30.4164 134.427 35.7909 136.173 41.273C137.546 45.5825 137.45 52.1949 134.022 57.3755C133.248 58.2624 132.347 59.3035 131.356 60.4595C125.03 67.8373 115.039 79.8902 110.929 86.3337C104.988 95.65 102.322 105.309 95.5881 115.867C88.8541 126.425 84.8928 132.636 75.5668 136.299C66.2408 139.962 53.8091 131.769 50.2638 128.025C46.0874 123.614 43.3878 111.407 44.8646 103.612C46.3415 95.8167 57.4232 88.031 68.7836 83.9181C80.144 79.8052 92.2526 62.1898 95.4216 57.2211C98.5906 52.2524 109.457 33.8447 111.266 32.3776C113.076 30.9104 120.367 27.6974 123.869 29.0569Z" fill="white"/>
<path fill-rule="evenodd" clip-rule="evenodd" d="M140.531 34.4411C136.129 29.0128 129.694 24.0344 125.175 22.8998C120.656 21.7653 114.157 23.7362 109.917 26.2743C105.677 28.8125 101.94 36.0406 100.356 38.5249L86.4917 60.263C82.5305 66.4738 68.8471 76.9688 64.3822 78.4898C59.9172 80.0107 47.8184 88.0213 46.63 89.8846C45.4416 91.7478 34.7464 108.517 33.2157 113.657C31.685 118.797 29.8023 136.818 29.6312 138.456C29.46 140.095 32.277 148.007 33.348 150.438C34.419 152.868 39.6127 157.055 48.5964 156.668C57.5801 156.282 74.9264 155.113 87.485 139.532C100.043 123.951 105.085 110.566 106.049 107.685C107.012 104.805 111.316 95.3173 115.277 89.1064C119.238 82.8955 135.361 61.7247 136.775 60.8787C137.906 60.202 141.756 51.8235 143.54 47.7189C144.328 44.0599 144.126 38.8751 140.531 34.4411ZM136.173 41.273C134.427 35.7909 127.371 30.4164 123.869 29.0569C120.367 27.6974 113.076 30.9104 111.266 32.3776C109.457 33.8447 98.5906 52.2524 95.4216 57.2211C92.2526 62.1898 80.144 79.8052 68.7836 83.9181C57.4232 88.031 46.3415 95.8167 44.8646 103.612C43.3878 111.407 46.0874 123.614 50.2638 128.025C53.8091 131.769 66.2408 139.962 75.5668 136.299C84.8928 132.636 88.8541 126.425 95.5881 115.867C102.322 105.309 104.988 95.65 110.929 86.3337C115.039 79.8902 125.03 67.8373 131.356 60.4595C132.408 59.5208 133.291 58.4808 134.022 57.3755C137.45 52.1949 137.546 45.5825 136.173 41.273Z" fill="#FA4821"/>
</svg>
