<svg width="179" height="343" viewBox="0 0 179 343" fill="none" xmlns="http://www.w3.org/2000/svg">
<path d="M102.353 97.5745C108.497 93.8394 116.58 84.2974 117.183 81.8277C117.785 79.358 122.133 63.6721 115.331 49.7156C108.53 35.7592 105.867 23.0735 105.535 19.0678C105.204 15.062 107.077 8.45395 109.347 6.65274C111.618 4.85152 113.889 3.05031 117.094 2.78508C120.298 2.51984 127.508 1.92307 131.111 6.4647C134.713 11.0063 136.912 18.084 138.244 24.4269C139.576 30.7697 141.968 49.9309 140.896 56.4726C139.824 63.0144 135.88 73.8271 132.94 77.297C130.001 80.7668 127.526 89.8446 114.569 98.9833C106.337 104.79 103.626 106.408 103.105 106.538C104.333 114.835 106.836 132.239 107.205 136.698C107.669 142.306 115.587 189.242 117.648 204.397C118.728 212.342 118.972 215.484 118.912 216.412C122.529 216.363 130.137 215.737 133.731 213.552C138.339 210.751 141.212 206.48 141.08 204.878C140.947 203.276 138.825 177.639 139.162 171.965C139.499 166.29 140.571 159.749 141.908 156.411C143.245 153.074 146.251 150.405 147.052 150.339C147.853 150.273 148.588 149.405 151.925 150.742C154.595 151.812 156.592 161.649 157.257 166.434C158.165 174.156 159.901 190.575 159.578 194.474C159.175 199.347 160.374 204.088 158.368 209.093C156.362 214.099 149.417 217.901 146.345 219.768C143.273 221.636 132.925 223.299 128.985 224.431C125.834 225.338 124.512 225.608 124.245 225.63L125.571 241.653L129.085 284.114C129.351 287.319 130.297 305.255 130.738 313.823L131.202 319.431L104.096 323.287L102.963 319.348L102.499 313.74C102.432 312.939 95.7907 252.184 95.3928 247.378C94.995 242.571 89.9446 201.044 89.0772 200.309C88.2097 199.574 77.8612 201.237 74.6566 201.503C71.452 201.768 62.7057 203.298 53.1637 195.215C43.6218 187.132 35.6158 178.115 30.8806 169.634C26.1455 161.153 24.615 152.407 22.8855 141.257C21.1561 130.107 22.5649 117.891 20.5647 113.217C18.5646 108.543 13.0947 100.929 11.3598 99.4593C9.6249 97.9896 6.02247 93.448 6.49207 89.376C6.96167 85.3039 11.4368 80.9004 14.5088 79.0329C17.5809 77.1653 28.062 77.1045 31.3329 77.6404C34.6038 78.1763 43.212 84.7235 45.947 88.5303C48.6819 92.3371 50.2125 101.083 51.4669 125.985C52.7213 150.887 53.4507 159.7 55.3182 162.772C57.1857 165.843 58.5174 172.186 67.0593 177.932C75.6012 183.678 78.8721 184.214 82.9441 184.684C81.5313 164.366 78.4527 122.622 77.4405 118.189C76.1752 112.647 72.7826 91.149 69.5835 81.7342C66.3843 72.3194 58.1131 60.0978 59.323 45.4783C60.5328 30.8588 64.0744 24.9192 66.2789 22.3169C68.4834 19.7145 72.4228 18.5818 76.4949 19.0514C80.5669 19.521 86.0369 27.1346 87.0369 29.4718C88.037 31.8089 90.9046 37.218 91.4959 54.1083C91.969 67.6206 98.9313 88.7159 102.353 97.5745Z" fill="black"/>
<path d="M75.2547 325.674C70.9296 327.967 61.3504 336.228 57.0947 340.078L117.141 334.71L177.995 329.27C177.683 328.758 175.886 327.186 171.188 324.993C165.314 322.253 140.577 315.751 134.876 315.093C128.361 314.341 117.006 313.584 98.7586 317.276C83.685 320.326 80.6638 322.806 75.2547 325.674Z" fill="#FA4821"/>
</svg>
