<svg width="177" height="170" viewBox="0 0 177 170" fill="none" xmlns="http://www.w3.org/2000/svg">
<path d="M113.33 17.0923C127.641 14.4536 139.437 13.1434 145.21 23.7171C150.984 34.2907 152.595 49.5223 149.248 57.1557C145.9 64.7891 134.335 79.7902 130.279 82.4999C126.223 85.2097 100.24 104.798 94.5903 109.863C88.9403 114.928 83.3609 136.606 81.2001 140.397C79.0393 144.187 73.2298 152.174 63.7366 156.053C54.2434 159.931 48.8592 160.126 45.5296 158.479C42.1999 156.832 28.9876 148.295 29.5723 137.58C30.1569 126.864 28.014 121.374 40.5006 107.4C52.9872 93.4262 62.3389 83.1894 65.5801 77.5042C68.1731 72.956 75.0998 55.3984 78.239 47.1882C84.2253 36.9568 100.214 19.5108 113.33 17.0923Z" fill="black"/>
<ellipse cx="58.889" cy="126.014" rx="19.8688" ry="29.4352" transform="rotate(31.3598 58.889 126.014)" fill="white"/>
</svg>
