<svg width="193" height="207" viewBox="0 0 193 207" fill="none" xmlns="http://www.w3.org/2000/svg">
<path d="M143.408 34.1699C147.445 35.7374 155.582 41.9342 157.595 48.2552C159.177 53.2241 159.067 60.8482 155.115 66.8215C154.222 67.8441 153.183 69.0445 152.04 70.3773C144.747 78.884 133.227 92.7811 128.489 100.21C121.638 110.952 118.564 122.089 110.8 134.263C103.036 146.437 98.4683 153.598 87.7153 157.821C76.9623 162.045 62.6285 152.598 58.5407 148.281C53.7252 143.195 50.6126 129.121 52.3154 120.133C54.0183 111.144 66.7955 102.168 79.8942 97.4253C92.9929 92.6831 106.954 72.3724 110.608 66.6434C114.262 60.9145 126.791 39.6903 128.877 37.9987C130.964 36.307 139.371 32.6024 143.408 34.1699Z" fill="white"/>
<path fill-rule="evenodd" clip-rule="evenodd" d="M162.619 40.3779C157.544 34.119 150.124 28.3789 144.914 27.0707C139.703 25.7626 132.21 28.0351 127.321 30.9616C122.432 33.8881 118.124 42.2221 116.297 45.0866L100.312 70.1507C95.7444 77.3119 79.9674 89.4127 74.8193 91.1664C69.6712 92.92 56.195 102.546 54.3509 104.305C51 107.5 43.0171 117.836 38.8841 131.715C34.7511 145.593 34.9485 158.419 34.7511 160.308C34.5538 162.197 34.7511 168.5 39.0366 174.123C40.8929 176.559 46.2598 181.752 56.6181 181.307C70 180.731 86.9769 179.514 101.457 161.549C115.937 143.584 121.75 128.15 122.861 124.829C123.972 121.508 128.934 110.569 133.501 103.407C138.068 96.2463 156.659 71.8361 158.289 70.8607C159.593 70.0804 164.032 60.42 166.089 55.6873C166.997 51.4685 166.764 45.4904 162.619 40.3779ZM157.595 48.2552C155.582 41.9342 147.445 35.7374 143.408 34.1699C139.371 32.6024 130.964 36.307 128.877 37.9987C126.791 39.6903 114.262 60.9145 110.608 66.6434C106.954 72.3724 92.9929 92.6831 79.8942 97.4253C66.7955 102.168 54.0183 111.144 52.3154 120.133C50.6126 129.121 53.7252 143.195 58.5407 148.281C62.6285 152.598 76.9623 162.045 87.7153 157.821C98.4683 153.598 103.036 146.437 110.8 134.263C118.564 122.089 121.638 110.952 128.489 100.21C133.227 92.7811 144.747 78.884 152.04 70.3773C153.254 69.295 154.272 68.0958 155.115 66.8215C159.067 60.8482 159.177 53.2241 157.595 48.2552Z" fill="#FA4821"/>
</svg>
