<svg width="176" height="169" viewBox="0 0 176 169" fill="none" xmlns="http://www.w3.org/2000/svg">
<path d="M112.624 16.5523C126.935 13.9136 138.731 12.6034 144.504 23.177C150.278 33.7507 151.889 48.9823 148.542 56.6157C145.194 64.2491 133.629 79.2502 129.573 81.9599C125.517 84.6696 99.5342 104.258 93.8842 109.323C88.2343 114.388 82.6548 136.066 80.494 139.857C78.3332 143.647 72.5238 151.634 63.0306 155.513C53.5373 159.391 48.1532 159.586 44.8235 157.939C41.4939 156.292 28.2815 147.755 28.8662 137.04C29.4509 126.324 27.3079 120.834 39.7945 106.86C52.2811 92.8862 61.6328 82.6493 64.8741 76.9641C67.467 72.416 74.3937 54.8584 77.5329 46.6481C83.5192 36.4168 99.5077 18.9708 112.624 16.5523Z" fill="black"/>
<ellipse cx="58.183" cy="125.474" rx="19.8688" ry="29.4352" transform="rotate(31.3598 58.183 125.474)" fill="white"/>
</svg>
