<svg width="632" height="698" viewBox="0 0 632 698" fill="none" xmlns="http://www.w3.org/2000/svg">
<path d="M108.313 100.418C92.9126 125.579 79.5653 175.389 78.0252 182.064C76.6472 188.038 72.3921 235.122 73.3507 258.576C73.3945 259.607 73.4761 261.037 73.601 262.773C74.0154 268.532 74.9074 277.665 76.4851 286.819C79.0519 301.71 89.3191 334.061 95.4794 351.52C101.64 368.979 116.527 421.869 118.067 431.626C119.299 439.431 118.58 443.779 118.067 444.977H116.527L95.4794 447.031C95.6505 448.571 96.4034 456.685 98.0461 476.814C100.1 501.975 113.447 531.758 116.527 539.974C119.607 548.19 131.928 567.19 136.548 573.865C141.168 580.541 158.622 592.865 162.729 594.919C166.836 596.973 176.59 600.567 191.477 599.54C206.365 598.513 221.766 592.351 231.519 585.162C241.273 577.973 253.594 560.001 259.754 549.731C265.914 539.461 273.101 515.326 275.668 503.002C278.235 490.678 277.722 452.166 277.208 448.571C276.798 445.696 274.299 431.626 273.101 424.95L245.38 428.545V419.815C245.38 412.626 244.867 403.383 245.38 391.059C245.893 378.735 249.487 359.222 252.054 347.925C254.621 336.628 266.941 308.386 275.155 292.981C283.369 277.576 302.876 243.171 309.55 226.739C316.224 210.307 316.737 170.768 315.197 157.416C313.657 144.065 301.336 78.8509 294.149 56.2569C286.962 33.6629 269.508 16.7174 263.861 13.1228C258.214 9.52834 244.353 1.82578 238.706 1.82578C233.059 1.82578 213.552 -2.28222 200.204 1.82578C186.857 5.93378 181.21 10.5553 166.323 21.8523C151.435 33.1493 123.714 75.2564 108.313 100.418Z" fill="white"/>
<path d="M528.844 241.864C516.981 268.875 483.712 308.274 479.111 313.35C474.994 317.892 438.77 348.27 418.968 360.876C418.097 361.429 416.876 362.178 415.379 363.067C410.415 366.015 402.408 370.498 393.993 374.429C380.302 380.825 347.881 390.869 330.031 395.781C312.18 400.693 260.259 418.672 251.37 422.978C244.259 426.424 241.1 429.496 240.41 430.602L241.289 431.866L251.621 450.318C250.259 451.057 243.168 455.072 225.705 465.217C203.877 477.899 171.805 483.947 163.301 486.11C154.798 488.273 132.165 489.007 124.047 489.026C115.928 489.045 95.8444 481.753 91.8131 479.554C87.7818 477.356 79.2615 471.401 71.6038 458.593C63.9461 445.784 60.2109 429.623 60.5432 417.51C60.8755 405.398 68.5948 385.021 73.5084 374.1C78.4219 363.178 94.1312 343.497 102.783 334.353C111.435 325.208 143.345 303.639 146.589 302.008C149.184 300.703 162.161 294.72 168.325 291.892L181.203 316.702L188.37 311.717C194.272 307.612 202.153 302.756 211.977 295.298C221.801 287.839 235.768 273.747 243.577 265.189C251.386 256.631 267.536 230.39 275.493 214.851C283.449 199.311 300.555 163.651 310.234 148.79C319.913 133.928 352.079 110.93 363.919 104.57C375.759 98.2113 436.332 71.088 458.984 64.0868C481.637 57.0857 505.514 61.7387 511.69 64.322C517.865 66.9054 532.103 73.886 535.327 78.5219C538.552 83.1577 553.063 96.8267 557.312 110.13C561.561 123.433 560.991 130.708 560.218 149.38C559.445 168.053 540.706 214.854 528.844 241.864Z" fill="black" fill-opacity="0.6"/>
<circle cx="194.564" cy="674.665" r="20.7382" fill="white" stroke="black" stroke-width="3.93332"/>
<circle cx="391.425" cy="244.913" r="20.7382" fill="white" stroke="black" stroke-width="3.93332"/>
<path d="M187.127 86.6872L206.056 74.1427L207.455 96.8086L187.127 86.6872ZM213.78 80.6882C219.218 79.5657 225.276 78.3345 231.825 77.156L232.521 81.0272C226.024 82.1964 220.006 83.4193 214.575 84.5404L213.78 80.6882ZM249.973 74.3028C255.855 73.5263 261.99 72.8733 268.318 72.4269L268.594 76.3505C262.357 76.7905 256.302 77.4348 250.488 78.2023L249.973 74.3028ZM286.798 71.7856C292.848 71.8046 299.011 72.0611 305.241 72.6183L304.89 76.536C298.783 75.9897 292.734 75.7376 286.786 75.7189L286.798 71.7856ZM323.589 75.162C329.572 76.3026 335.574 77.7691 341.555 79.6157L340.395 83.374C334.562 81.5731 328.701 80.1408 322.852 79.0257L323.589 75.162ZM358.911 86.1328C364.463 88.6136 369.96 91.4767 375.369 94.7667L373.325 98.1272C368.062 94.9258 362.712 92.1392 357.307 89.7239L358.911 86.1328ZM390.534 105.351C395.231 109.085 399.828 113.199 404.302 117.724L401.505 120.489C397.14 116.075 392.66 112.066 388.086 108.43L390.534 105.351ZM416.564 131.597C420.265 136.269 423.853 141.279 427.311 146.65L424.004 148.779C420.613 143.514 417.1 138.608 413.481 134.039L416.564 131.597ZM436.615 162.592C439.389 167.836 442.054 173.365 444.601 179.192L440.997 180.768C438.488 175.027 435.864 169.586 433.138 164.43L436.615 162.592ZM451.416 196.299C453.446 201.901 455.378 207.742 457.205 213.831L453.438 214.961C451.631 208.94 449.722 203.169 447.718 197.639L451.416 196.299ZM462.098 231.764C463.511 237.481 464.839 243.393 466.079 249.506L462.224 250.287C460.995 244.227 459.679 238.369 458.28 232.708L462.098 231.764ZM469.379 267.547C470.358 273.519 471.258 279.665 472.076 285.991L468.175 286.496C467.363 280.212 466.469 274.11 465.497 268.184L469.379 267.547ZM474.128 303.962C474.724 309.947 475.252 316.081 475.707 322.366L471.784 322.651C471.331 316.399 470.807 310.301 470.214 304.352L474.128 303.962ZM476.807 340.627C476.958 343.739 477.091 346.887 477.209 350.069L473.278 350.214C473.161 347.046 473.028 343.914 472.878 340.817L476.807 340.627Z" fill="black"/>
<path d="M497.499 121.927L475.239 117.433L482.477 138.958L497.499 121.927ZM471.031 131.062C465.97 133.807 460.558 137.051 455.029 140.806L457.238 144.06C462.653 140.383 467.952 137.206 472.906 134.519L471.031 131.062ZM440.075 152.121C435.42 156.044 430.826 160.337 426.434 165.006L429.299 167.701C433.578 163.152 438.06 158.963 442.609 155.128L440.075 152.121ZM414.463 179.501C410.861 184.516 407.547 189.863 404.634 195.549L408.134 197.342C410.952 191.844 414.162 186.663 417.658 181.795L414.463 179.501ZM397.421 212.958C396.471 215.92 395.632 218.957 394.917 222.069L398.75 222.95C399.44 219.948 400.249 217.018 401.166 214.159L397.421 212.958Z" fill="black"/>
<path d="M208.5 484.415L188.096 494.384L206.931 507.07L208.5 484.415ZM193.651 506.452C191.38 511.385 189.097 516.892 186.944 522.874L190.645 524.206C192.758 518.333 194.999 512.931 197.224 508.096L193.651 506.452ZM181.632 539.82C180.149 545.354 178.84 551.151 177.784 557.158L181.658 557.839C182.693 551.953 183.976 546.268 185.431 540.838L181.632 539.82ZM175.529 574.786C175.069 580.594 174.884 586.537 175.036 592.571L178.968 592.473C178.82 586.583 179.001 580.777 179.45 575.096L175.529 574.786ZM176.476 610.318C177.283 616.105 178.437 621.938 179.989 627.781L183.791 626.771C182.281 621.088 181.157 615.412 180.372 609.776L176.476 610.318ZM185.64 644.692C186.748 647.419 187.953 650.141 189.261 652.854L192.804 651.146C191.533 648.509 190.361 645.863 189.285 643.212L185.64 644.692Z" fill="black"/>
<circle cx="474.746" cy="367.801" r="19.1316" fill="white" stroke="black" stroke-width="3.93332"/>
</svg>
