<svg width="355" height="395" viewBox="0 0 355 395" fill="none" xmlns="http://www.w3.org/2000/svg">
<path d="M297.98 22.1494C302.375 7.50616 310.333 4.78174 322.435 0.796313C325.739 1.28415 329.815 1.19517 333.236 5.57871C335.037 7.88665 338.939 17.58 341.34 28.8889C343.741 40.1978 348.544 122.13 348.544 138.055C348.544 153.979 347.343 183.29 341.34 189.983C335.337 196.676 321.23 205.446 316.727 206.6C312.225 207.754 263.3 216.253 238.088 229.208C226.394 235.216 201.282 255.72 194.529 270.721C191.828 276.722 190.927 291.161 194.529 304.085C198.131 317.01 218.278 317.843 221.279 317.843L354.547 317.843L352.145 331.229C336.438 332.691 302.68 336.076 293.316 337.922C281.61 340.23 195.166 366.31 166.651 379.696C138.137 393.082 115.626 393.774 92.5139 394.236C69.4022 394.697 32.4835 373.464 25.8801 369.541C20.5974 366.402 6.67037 355.001 0.367172 349.693C9.37174 341.923 29.4819 324.444 37.8862 316.689C48.3915 306.996 113.525 258.991 118.927 255.298C124.33 251.605 215.876 188.137 238.088 168.981C260.299 149.825 256.397 130.438 255.797 124.438C255.316 119.637 245.992 113.36 241.389 110.821C249.293 104.974 266.302 91.8495 271.104 86.1258C277.107 78.9712 293.478 37.151 297.98 22.1494Z" fill="black"/>
</svg>
