<svg width="441" height="614" viewBox="0 0 441 614" fill="none" xmlns="http://www.w3.org/2000/svg">
<path d="M269.502 109.853C269.346 110.428 269.194 111.031 269.045 111.658M269.045 111.658C264.876 129.252 263.478 166.79 271.759 182.036C280.334 197.825 300.644 222.638 311.928 222.187C323.211 221.736 326.822 214.517 328.176 205.044C329.53 195.57 335.849 162.637 348.035 152.26C360.222 141.884 371.956 136.922 381.435 140.982C390.913 145.042 401.294 151.358 406.258 166.697C411.223 182.036 409.418 200.532 408.515 205.044C407.612 209.555 404.002 222.638 400.842 228.052C397.683 233.465 397.683 237.526 397.232 241.135C396.78 244.744 398.134 250.157 395.878 253.315C393.621 256.473 387.753 260.534 374.213 258.729C360.673 256.924 346.681 249.255 344.876 239.781C343.071 230.307 343.973 224.442 347.133 220.382C350.292 216.322 356.159 212.262 358.416 213.164C360.673 214.066 362.027 215.42 361.576 220.382C361.124 225.345 357.965 237.074 356.611 241.135C355.257 245.195 341.265 271.361 339.008 274.97C336.752 278.579 325.468 298.88 290.263 308.805C255.059 318.73 211.279 330.009 201.8 330.911C192.322 331.813 168.401 332.716 153.507 322.339C138.612 311.963 111.08 301.587 94.3808 301.587C77.6811 301.587 63.6895 305.647 58.2734 311.061C52.8573 316.475 42.9278 316.926 42.4764 363.393C42.0251 409.86 40.2197 449.56 34.8036 457.681C29.3875 465.801 14.4932 524.9 11.7852 528.058C9.61871 530.585 4.86457 545.352 2.7583 552.42C9.97978 540.39 24.8741 515.697 26.6795 513.171C28.9362 510.013 62.7868 455.425 63.2382 453.17C63.5993 451.365 82.9468 418.733 92.5755 402.642C98.4429 390.161 112.886 362.22 123.718 350.31C137.258 335.422 156.666 314.67 191.871 290.76C227.076 266.849 259.572 246.097 274.918 242.939C290.263 239.781 296.131 242.037 299.29 246.548C302.45 251.06 313.733 265.496 311.928 273.165C310.123 280.835 311.928 302.941 302.45 314.67C292.972 326.4 269.502 349.408 264.988 352.115C260.475 354.821 246.483 363.844 240.616 370.611C234.748 377.378 226.173 388.657 225.27 397.228C224.367 405.8 223.465 429.259 232.04 459.034C240.616 488.809 255.51 533.472 265.44 541.141C275.369 548.811 325.017 568.661 372.859 585.353C411.133 598.707 432.737 608.662 438.755 611.97C429.126 602.045 408.335 581.202 402.196 577.232C396.058 573.262 328.026 538.284 294.777 521.291C280.785 516.178 247.296 500.449 225.27 478.433C203.245 456.418 150.498 395.574 126.877 367.904C118.452 360.085 101.422 339.302 100.7 318.73C99.7969 293.015 101.602 274.068 103.408 265.045C105.213 256.022 109.275 234.368 114.24 224.442C119.205 214.517 126.426 184.291 124.621 176.622C122.815 168.952 112.886 156.321 93.4781 137.824C74.0704 119.327 61.4328 106.244 60.5301 97.2215C59.6275 88.1988 57.3707 80.9806 63.2382 75.1158C69.1056 69.251 72.265 62.0328 99.7969 56.168C127.329 50.3032 163.436 49.852 168.852 47.5964C174.268 45.3407 182.844 40.8293 186.003 36.3179C189.163 31.8065 190.968 20.9792 190.517 16.4678C190.065 11.9564 190.065 5.64052 184.198 4.2871C178.331 2.93369 176.976 1.12913 167.95 6.99393C158.923 12.8587 154.409 26.8442 154.409 30.0022C154.409 33.1601 150.347 39.4761 160.277 54.8147C170.206 70.1534 204.96 108.049 209.022 111.658C213.084 115.267 259.572 158.125 260.926 159.93C262.28 161.734 283.042 188.352 295.228 189.254C307.414 190.156 314.636 187.9 319.601 177.975C324.565 168.05 334.495 142.787 332.69 128.35C330.884 113.914 330.884 103.087 322.309 95.4172C313.733 87.7478 305.609 83.6876 297.485 84.1387C289.361 84.5899 278.529 92.7103 276.272 95.4172C274.466 97.5826 270.702 107.147 269.045 111.658Z" stroke="black" stroke-width="3.91397"/>
</svg>
