<svg width="263" height="244" viewBox="0 0 263 244" fill="none" xmlns="http://www.w3.org/2000/svg">
<path d="M262.381 233.371L241.711 243.672L243.125 220.622L262.381 233.371ZM6.48647 1.2306C6.03675 5.11312 5.6556 8.9288 5.34104 12.6788L1.35503 12.3445C1.6732 8.55147 2.05858 4.69381 2.51303 0.770359L6.48647 1.2306ZM4.22544 35.1982C4.12121 43.0115 4.33175 50.506 4.83487 57.6948L0.844632 57.9741C0.333421 50.6696 0.120149 43.0641 0.225801 35.1448L4.22544 35.1982ZM7.46604 79.9649C8.77198 87.6628 10.4497 94.9581 12.4633 101.872L8.62289 102.991C6.56478 95.9238 4.85316 88.4782 3.52239 80.6339L7.46604 79.9649ZM20.1234 122.982C23.2304 130.026 26.733 136.599 30.5776 142.734L27.1882 144.858C23.2409 138.559 19.6481 131.816 16.4636 124.596L20.1234 122.982ZM43.8656 160.771C48.8121 166.524 54.1059 171.795 59.6781 176.625L57.0581 179.648C51.3447 174.695 45.9119 169.287 40.8326 163.379L43.8656 160.771ZM77.5797 190.11C83.8842 194.235 90.4141 197.931 97.0921 201.243L95.3147 204.827C88.5057 201.449 81.8369 197.675 75.3896 193.457L77.5797 190.11ZM117.751 210.172C124.855 212.831 132.029 215.131 139.191 217.123L138.119 220.976C130.857 218.956 123.571 216.621 116.349 213.918L117.751 210.172ZM161.136 222.342C168.715 223.861 176.173 225.082 183.404 226.069L182.863 230.032C175.56 229.036 168.019 227.801 160.35 226.265L161.136 222.342ZM205.895 228.525C214.032 229.207 221.647 229.638 228.54 229.936L228.367 233.932C221.435 233.632 213.765 233.199 205.561 232.511L205.895 228.525Z" fill="black"/>
</svg>
