<svg width="471" height="569" viewBox="0 0 471 569" fill="none" xmlns="http://www.w3.org/2000/svg">
<path d="M116.281 -46.834C123.234 -12.9832 136.957 91.8628 132.017 112.722C127.076 133.582 116.098 166.517 116.098 179.326C116.098 192.134 93.2257 204.943 85.3576 222.874C77.4896 240.806 47.8473 278.5 42.7239 284.538C37.6006 290.576 14.3625 320.584 13.4476 324.61C12.7157 327.83 20.2177 336.076 24.0603 339.797C20.4008 340.712 12.5328 341.993 10.3371 339.797C7.59246 337.052 -0.824496 334.308 0.639322 324.61C2.10314 314.912 16.0099 290.942 20.0351 284.538C24.0603 278.134 42.5413 251.968 55.3497 240.074C68.0161 228.313 80.682 215.119 85.2085 210.404L85.3576 210.249C89.7494 205.675 87.5531 196.16 85.3576 184.815C83.1622 173.471 76.758 137.607 78.5878 109.246C80.4176 80.8841 85.3576 63.8673 85.3576 59.8418C85.3576 55.8163 80.2346 14.6464 78.5878 10.2549C76.941 5.86347 74.1963 -26.1576 72.7325 -30.732C71.5615 -34.3915 71.1467 -40.8567 71.0857 -46.834H98.7153H116.281Z" fill="white"/>
<path d="M143.91 264.593C151.778 286.367 157.999 299.907 163.306 305.946C168.612 311.984 182.701 331.745 193.863 342.541C202.792 351.178 204.414 355.898 204.109 357.179C200.694 359.68 193.863 365.23 193.863 367.426C193.863 370.171 183.25 364.681 179.225 357.179C175.199 349.677 171.723 335.588 163.306 326.256C154.889 316.924 147.387 310.703 138.97 312.533C130.553 314.363 126.71 316.192 124.331 320.035C122.428 323.109 122.563 330.709 122.868 334.124C118.232 334.734 108.083 337.052 104.57 341.443C101.057 345.835 101.032 349.006 101.459 350.043C104.387 355.228 110.425 365.779 111.157 366.511C112.072 367.426 125.795 385.175 128.174 388.285C130.553 391.396 138.604 402.375 140.25 404.936C141.897 407.498 150.131 417.745 152.51 419.026C154.889 420.306 155.621 423.783 155.255 424.881C154.889 425.979 149.216 429.821 142.08 435.86C134.944 441.898 120.672 456.536 118.293 459.098C115.914 461.659 105.851 475.2 103.655 478.31C101.898 480.799 93.7742 495.083 89.9317 501.914C89.1388 505.635 87.4066 514.21 86.8211 518.748C86.0892 524.421 84.2594 553.697 93.9572 555.893C103.655 558.088 108.595 558.271 111.706 557.722C114.817 557.173 116.097 554.429 115.548 548.94C115 543.45 118.293 525.701 118.293 523.323C118.293 520.944 129.638 493.497 131.102 490.753C132.565 488.008 150.68 452.693 155.255 446.289C159.829 439.885 180.688 415 188.19 408.413C195.693 401.826 211.246 379.686 211.612 374.196C211.978 368.707 215.454 365.047 215.088 342.541C214.795 324.536 214.966 316.619 215.088 314.912C217.162 317.839 221.968 324.207 224.603 326.256C227.897 328.818 252.964 350.226 260.466 353.703C267.969 357.179 272.177 362.486 276.568 374.196C280.96 385.907 307.309 432.566 309.321 435.86C311.334 439.153 334.023 464.038 337.134 467.332C339.622 469.967 345.49 479.774 348.113 484.349L375.01 419.941C374.217 418.66 372.668 415.22 372.815 411.707C372.998 407.315 351.955 387.005 347.198 380.6C342.44 374.196 333.84 348.396 329.449 346.018C325.057 343.639 282.79 320.584 269.615 303.933C256.441 287.282 250.586 275.937 241.986 271.363C233.386 266.789 196.973 248.125 192.033 247.027C187.093 245.929 176.846 243.002 165.684 249.04C156.755 253.87 147.448 261.421 143.91 264.593Z" fill="white"/>
<path d="M407.763 475.017C404.104 480.872 387.331 511.612 379.402 526.25C383.61 530.947 392.466 540.669 394.223 541.986C396.419 543.633 415.265 563.212 431.184 565.956C447.103 568.701 461.741 567.603 464.669 565.956C467.597 564.31 469.792 561.931 469.975 559.918C470.158 557.905 473.818 556.625 464.669 549.305C455.52 541.986 421.852 500.268 418.559 494.595C415.924 490.057 410.264 479.652 407.763 475.017Z" fill="white"/>
<path d="M305.295 -47.0176C308.589 -25.9752 322.129 71.3687 322.678 79.6027C323.227 87.8366 332.01 158.283 331.461 164.321C330.912 170.359 335.487 192.866 336.036 198.904C336.585 204.942 356.895 244.831 358.359 248.857C359.823 252.882 380.865 296.614 381.78 299.541C382.695 302.469 395.503 329.001 398.797 331.928C402.09 334.856 433.379 379.319 435.941 384.809C438.503 390.298 440.882 402.923 440.15 408.047C439.418 413.17 426.609 442.081 423.865 447.753C421.12 453.425 393.856 499.352 392.21 502.829C390.563 506.306 364.214 553.514 362.018 559.552C359.823 565.59 358.176 569.067 349.942 564.309C341.708 559.552 329.448 551.501 330.363 537.595C331.278 523.688 346.099 487.093 347.014 485.995C347.746 485.117 348.173 483.189 348.295 482.336" stroke="white" stroke-width="1.83811"/>
<path d="M279.679 370.17C268.884 389.383 252.05 421.221 248.573 427.076C245.792 431.761 233.142 444.886 227.165 450.863C223.688 453.486 215.93 459.866 212.71 464.404C208.684 470.076 198.071 483.25 195.327 486.361C192.582 489.472 185.446 502.28 181.421 508.684C177.395 515.088 167.514 541.62 165.685 546.926C163.855 552.233 155.621 564.309 152.144 566.139C148.668 567.969 135.676 569.25 126.344 564.858C118.879 561.345 114.573 553.514 113.353 550.037" stroke="white" stroke-width="1.83811"/>
<path d="M19.8511 336.319C27.3531 341.259 33.7573 346.749 45.4679 342.723C57.1784 338.698 78.9527 330.098 86.6378 323.511C94.3228 316.923 105.118 310.336 108.778 304.115C112.438 297.894 115.731 289.66 121.038 283.439C126.344 277.217 142.446 264.592 150.68 260.566" stroke="white" stroke-width="1.83811"/>
</svg>
