<svg width="826" height="1248" viewBox="0 0 826 1248" fill="none" xmlns="http://www.w3.org/2000/svg">
<path d="M604.479 714.224L605.71 713.878L612.944 716.342C612.481 719.934 612.172 722.691 612.018 724.615C611.966 726.565 612.209 727.989 612.748 728.887C613.286 729.785 614.222 730.401 615.556 730.735C616.377 730.94 617.326 731.069 618.404 731.121C619.558 731.3 620.802 731.339 622.136 731.237L637.836 730.588C638.401 728.766 639.082 726.265 639.878 723.085C640.649 720.006 641.278 717.492 641.766 715.543C642.459 712.773 643.037 709.81 643.5 706.655C644.04 703.628 644.425 701.216 644.657 699.421L631.73 690.951C629.473 689.514 627.78 688.654 626.651 688.371C624.599 687.858 622.944 688.152 621.687 689.255C620.532 690.383 619.595 692.384 618.876 695.257L616.911 703.106L616.026 703.376L608.408 700.487C608.408 700.487 608.793 699.384 609.563 697.178C610.231 694.947 611.091 692.164 612.144 688.829C613.094 685.469 613.98 682.147 614.802 678.863C615.47 676.196 616.15 673.477 616.844 670.706C617.409 668.013 617.872 665.73 618.231 663.857C618.591 661.985 618.771 661.048 618.771 661.048L626.928 664.398C626.67 667.169 627.106 669.568 628.234 671.595C629.465 673.647 631.85 675.88 635.389 678.292L706.486 726.837L705.096 743.498L704.287 744.768C704.287 744.768 702.915 744.806 700.17 744.882C697.528 744.984 693.859 745.047 689.165 745.071C684.547 745.224 679.275 745.376 673.349 745.528C667.423 745.681 661.215 745.871 654.725 746.1C648.234 746.329 641.744 746.558 635.253 746.787C628.84 747.144 622.863 747.502 617.321 747.859C613.319 748.166 610.305 749.101 608.278 750.665C606.25 752.23 604.531 754.961 603.119 758.86L602.234 759.129L594.962 756.164C594.962 756.164 595.283 755.1 595.925 752.971C596.541 750.944 597.247 748.559 598.043 745.814C598.711 743.146 599.302 740.786 599.815 738.734C600.817 734.732 601.691 730.808 602.436 726.96C603.052 723.189 603.554 720.098 603.939 717.687C604.299 715.378 604.479 714.224 604.479 714.224ZM653.89 705.003L650.77 717.47C650.307 719.317 649.806 721.535 649.267 724.126C648.83 726.743 648.457 728.885 648.149 730.552L688.361 729.333L688.746 727.794L653.89 705.003Z" fill="white"/>
<path d="M585.697 770.382L592.663 774.608C592.099 777.373 592.104 779.526 592.68 781.068C593.351 782.653 594.509 783.938 596.153 784.92C597.85 786.044 600.093 787.242 602.884 788.515L671.877 820.003C674.378 821.145 676.268 821.717 677.546 821.719C678.877 821.861 679.994 821.325 680.897 820.109C681.757 818.99 682.661 817.136 683.611 814.546L684.307 814.166L690.184 817.72C688.777 822.078 687.466 826.479 686.251 830.924C685.088 835.509 684.044 840.09 683.118 844.667L680.413 844.479C679.627 843.655 677.515 842.168 674.078 840.018C670.693 838.008 666.202 835.493 660.604 832.473C654.963 829.55 648.503 826.253 641.226 822.583C634.044 818.956 626.264 815.115 617.884 811.057C609.556 807.141 600.966 803.162 592.114 799.122C589.516 797.936 587.486 797.416 586.023 797.563C584.517 797.806 583.369 798.793 582.579 800.525L580.628 805.564L579.774 805.524L573.15 800.931C574.169 798.954 575.363 796.592 576.733 793.846C578.102 791.099 579.248 788.716 580.171 786.695C581.005 784.867 581.937 782.443 582.966 779.425C583.95 776.503 584.861 773.488 585.697 770.382Z" fill="white"/>
<path d="M546.591 843.373C550.404 837.525 554.967 833.239 560.278 830.516C565.59 827.792 571.241 826.678 577.23 827.174C583.309 827.729 589.361 829.97 595.385 833.898C600.081 836.96 603.947 840.617 606.983 844.87C610.019 849.122 612.192 853.632 613.502 858.401C614.754 863.258 615.082 868.081 614.485 872.869C613.889 877.657 612.233 882.133 609.518 886.297C600.39 900.296 588.915 902.79 575.093 893.777C573.853 892.969 572.655 891.998 571.499 890.866C570.285 889.822 569.338 888.951 568.656 888.254L568.234 885.706L591.458 850.089C584.37 845.467 577.864 843.245 571.939 843.423C566.015 843.6 561.112 846.085 557.229 850.878C553.289 855.758 550.632 862.738 549.258 871.818L548.339 872.355L542.076 870.923C541.96 868.196 541.986 865.056 542.156 861.505C542.356 858.099 542.835 854.75 543.593 851.457C544.205 848.194 545.205 845.499 546.591 843.373ZM597.265 854.254L584.377 876.344C583.803 877.612 583.578 878.538 583.701 879.124C583.855 879.855 584.552 880.626 585.793 881.435C589.248 883.688 592.411 884.55 595.28 884.022C598.15 883.494 600.625 881.635 602.705 878.446C605.189 874.636 605.968 870.535 605.043 866.144C604.149 861.899 601.557 857.936 597.265 854.254Z" fill="white"/>
<path d="M473.894 876.909C477.557 873.095 481.393 870.4 485.401 868.823C489.259 867.249 493.103 866.835 496.933 867.581C500.763 868.327 504.242 870.201 507.37 873.206C507.638 875.37 507.66 878.324 507.436 882.069C507.136 885.74 506.653 889.603 505.986 893.656L506.673 894.315C511.023 891.161 515.141 889.469 519.026 889.241C522.988 889.087 526.568 890.399 529.765 893.177C529.82 895.869 529.724 898.564 529.479 901.262C529.238 904.109 528.81 906.998 528.195 909.928L530.026 911.686L521.482 916.459C522.316 913.3 522.715 910.824 522.679 909.029C522.643 907.234 522.167 905.898 521.252 905.018C519.802 903.626 517.855 903.516 515.41 904.687C512.892 905.935 510.124 907.823 507.108 910.353C504.019 912.958 500.708 915.718 497.176 918.632C493.644 921.546 490.066 924.049 486.443 926.142C482.819 928.234 479.327 929.427 475.967 929.719C472.607 930.011 469.477 928.765 466.578 925.981C463.985 923.489 462.237 920.271 461.334 916.324C460.356 912.304 460.23 907.93 460.958 903.203C461.612 898.552 463.052 893.922 465.279 889.314C467.432 884.782 470.303 880.647 473.894 876.909ZM476.802 887.623C474.165 890.369 472.204 893.326 470.922 896.494C469.639 899.662 469.101 902.665 469.308 905.503C469.441 908.418 470.423 910.755 472.254 912.513C473.627 913.832 475.246 914.361 477.111 914.099C478.903 913.913 481.571 912.662 485.115 910.347C488.583 907.958 493.482 904.231 499.814 899.166C500.196 895.867 500.024 892.916 499.299 890.312C498.497 887.635 497.257 885.491 495.578 883.879C493.214 881.607 490.354 880.767 487 881.358C483.572 882.026 480.173 884.114 476.802 887.623ZM518.567 927.739C515.49 930.943 514.138 934.411 514.513 938.144C514.887 941.877 516.943 945.538 520.681 949.129C524.877 953.159 529.259 955.314 533.828 955.596C538.323 955.955 542.257 954.379 545.627 950.87C548.704 947.667 550.018 944.162 549.567 940.355C549.193 936.623 547.098 932.924 543.284 929.261C539.165 925.304 534.857 923.147 530.362 922.789C525.869 922.58 521.938 924.23 518.567 927.739ZM514.586 919.516C518.47 915.473 522.602 912.621 526.982 910.962C531.438 909.376 535.844 908.988 540.199 909.798C544.557 910.758 548.491 912.923 552 916.293C555.967 920.103 558.561 924.502 559.784 929.49C561.006 934.477 560.959 939.565 559.642 944.753C558.252 950.018 555.579 954.71 551.622 958.829C549.424 961.117 547.18 962.995 544.891 964.463C542.678 966.003 540.802 967.575 539.263 969.177C537.95 970.849 536.243 973.389 534.143 976.798C532.118 980.28 529.953 984.213 527.648 988.599L526.636 988.507L520.517 979.99C521.754 978.244 523.138 976.421 524.671 974.52C526.207 972.769 527.448 971.247 528.394 969.957L528.262 968.949C522.051 968.85 516.733 966.676 512.309 962.426C508.495 958.762 506.088 954.397 505.088 949.33C504.015 944.34 504.248 939.211 505.788 933.943C507.404 928.749 510.337 923.94 514.586 919.516Z" fill="white"/>
<path d="M458.441 953.476C456.042 955.578 454.874 957.582 454.935 959.488C455.058 961.48 456.44 964.327 459.083 968.028L478.443 995.144C480.533 998.071 482.365 999.818 483.938 1000.38C485.573 1001.04 487.338 1000.69 489.232 999.333C489.834 998.903 490.376 998.387 490.855 997.784C491.31 997.33 491.538 997.102 491.538 997.102L492.829 997.545L496 1003.08C493.245 1005.96 490.576 1008.77 487.994 1011.52C485.325 1014.34 483.111 1016.7 481.352 1018.61C479.655 1020.6 478.807 1021.59 478.807 1021.59L477.128 1021.43C477.128 1021.43 476.766 1020.65 476.041 1019.08C475.291 1017.67 474.295 1015.91 473.054 1013.81C471.874 1011.79 470.577 1009.79 469.163 1007.81L468.37 1007.79C468.443 1013.72 467.704 1019.06 466.154 1023.8C464.579 1028.7 462.414 1032.13 459.66 1034.09C458.282 1035.08 457.188 1035.73 456.376 1036.05C455.478 1036.43 455.03 1036.62 455.03 1036.62L454.089 1036.12C454.089 1036.12 453.714 1035.41 452.965 1034C452.276 1032.67 451.367 1030.85 450.236 1028.54C449.019 1026.29 447.649 1023.82 446.125 1021.14C444.576 1018.61 443.089 1016.16 441.663 1013.8L447.842 1008.8C450.547 1012.59 452.544 1014.94 453.835 1015.83C455.126 1016.73 456.546 1016.63 458.096 1015.52C459.731 1014.35 461.035 1012.45 462.007 1009.8C462.893 1007.22 463.324 1004.18 463.3 1000.69C463.3 1000.69 462.79 999.887 461.77 998.276C460.749 996.665 459.422 994.624 457.787 992.152C456.214 989.766 454.622 987.264 453.012 984.645C451.315 982.087 449.834 979.83 448.568 977.875C447.302 975.92 446.485 974.684 446.116 974.167C444.272 971.585 442.594 970.054 441.082 969.574C439.545 969.241 437.7 969.844 435.548 971.38C434.429 972.179 433.169 973.144 431.767 974.275C430.426 975.492 429.756 976.1 429.756 976.1L429.037 975.639L425.35 967.745C425.35 967.745 425.897 967.419 426.991 966.767C427.938 966.091 429.217 965.243 430.828 964.223C432.378 963.117 434.044 961.992 435.827 960.849C437.463 959.681 438.969 958.606 440.347 957.622C442.929 955.778 445.309 954.014 447.485 952.33C449.662 950.646 451.408 949.27 452.724 948.2C454.04 947.131 454.698 946.596 454.698 946.596L458.441 953.476Z" fill="white"/>
<path d="M367.718 998.507C374.019 995.503 380.146 994.222 386.099 994.665C392.052 995.108 397.455 997.102 402.309 1000.65C407.208 1004.29 411.206 1009.35 414.301 1015.85C416.713 1020.91 418.107 1026.04 418.482 1031.25C418.858 1036.46 418.362 1041.45 416.995 1046.2C415.533 1051 413.3 1055.28 410.296 1059.06C407.292 1062.84 403.546 1065.79 399.059 1067.93C383.973 1075.13 372.88 1071.27 365.779 1056.38C365.142 1055.04 364.625 1053.59 364.229 1052.02C363.737 1050.5 363.382 1049.26 363.163 1048.31L364.131 1045.92L402.512 1027.62C398.871 1019.98 394.476 1014.69 389.326 1011.76C384.177 1008.82 378.697 1008.39 372.887 1010.46C366.98 1012.57 361.075 1017.14 355.171 1024.17L354.107 1024.15L349.508 1019.67C350.83 1017.28 352.489 1014.61 354.484 1011.67C356.429 1008.87 358.583 1006.26 360.947 1003.84C363.169 1001.38 365.426 999.6 367.718 998.507ZM405.298 1034.2L382.787 1046.34C381.637 1047.12 380.962 1047.79 380.762 1048.36C380.512 1049.06 380.706 1050.08 381.343 1051.42C383.118 1055.14 385.368 1057.53 388.093 1058.57C390.817 1059.62 393.898 1059.32 397.335 1057.68C401.44 1055.72 404.243 1052.63 405.741 1048.4C407.19 1044.31 407.042 1039.58 405.298 1034.2Z" fill="white"/>
<path d="M314.403 982.294C314.913 982.156 315.789 982.358 317.031 982.9C318.17 983.469 319.416 984.229 320.767 985.179C321.989 986.055 323.109 986.958 324.127 987.889C325.145 988.819 325.736 989.591 325.901 990.204L325.395 991.983C319.221 993.867 314.274 997.665 310.556 1003.38C306.736 1009.12 304.081 1016.13 302.591 1024.42C304.438 1027.21 306.535 1030.32 308.881 1033.74C311.153 1037.29 313.619 1040.95 316.28 1044.72C318.838 1048.53 321.397 1052.33 323.956 1056.13C326.514 1059.93 328.953 1063.49 331.272 1066.81C333.591 1070.13 335.67 1072.96 337.509 1075.32C339.218 1077.59 341.028 1079.02 342.937 1079.6C344.744 1080.21 346.836 1080.25 349.213 1079.72L349.684 1080.25L350.582 1087.24C350.276 1087.32 349.357 1087.57 347.825 1087.98C346.293 1088.39 344.594 1088.8 342.728 1089.19C340.788 1089.71 339.256 1090.13 338.133 1090.43C335.682 1091.09 333.295 1091.79 330.974 1092.52C328.551 1093.29 326.382 1093.98 324.47 1094.61C322.482 1095.36 320.889 1095.95 319.692 1096.39C318.494 1096.82 317.895 1097.04 317.895 1097.04L317.382 1096.35L316.678 1089.48C319.816 1088.52 321.865 1087.58 322.823 1086.67C323.809 1085.86 324.123 1084.79 323.765 1083.46C323.517 1082.54 322.756 1080.94 321.483 1078.65C320.237 1076.47 318.714 1073.86 316.913 1070.84C315.141 1067.93 313.276 1064.87 311.318 1061.67C309.389 1058.58 307.565 1055.67 305.847 1052.96C304.157 1050.35 302.758 1048.2 301.65 1046.53C300.541 1044.86 299.987 1044.02 299.987 1044.02L299.068 1044.27C298.433 1048.82 297.816 1053.64 297.217 1058.74C296.618 1063.83 296.116 1068.67 295.713 1073.27C295.208 1077.9 294.844 1081.83 294.621 1085.07C294.296 1088.33 294.23 1090.32 294.423 1091.04C294.781 1092.37 295.437 1093.18 296.392 1093.47C297.374 1093.86 298.835 1093.79 300.776 1093.27L306.903 1091.62L307.375 1092.15L308.12 1099.18C308.12 1099.18 307.289 1099.35 305.627 1099.69C303.966 1100.02 301.896 1100.47 299.417 1101.03C296.939 1101.59 294.474 1102.2 292.023 1102.86C290.287 1103.33 288.449 1103.82 286.508 1104.35C284.595 1104.97 282.924 1105.48 281.494 1105.86C279.962 1106.28 278.992 1106.54 278.584 1106.65L277.674 1099.01C279.81 1097.99 281.289 1096.77 282.109 1095.34C282.93 1093.92 283.479 1091.69 283.757 1088.66L290.574 1036.54C291.836 1026.99 293.177 1018.96 294.597 1012.45C295.887 1005.85 297.456 1000.5 299.305 996.388C301.024 992.2 303.121 989.005 305.595 986.805C307.967 984.632 310.903 983.128 314.403 982.294Z" fill="white"/>
<path d="M192.269 1040.42C196.7 1040.09 200.259 1040.89 202.947 1042.81C205.636 1044.73 207.343 1047.73 208.071 1051.81L209.044 1052.06C211.192 1049.57 213.356 1047.29 215.535 1045.21C217.617 1043.26 219.516 1041.68 221.23 1040.5C222.945 1039.31 224.383 1038.67 225.543 1038.58C229.551 1038.29 233.204 1038.92 236.502 1040.47C239.807 1042.14 242.474 1044.49 244.503 1047.52C246.531 1050.55 247.694 1054.07 247.992 1058.08C248.227 1061.24 247.64 1064.04 246.23 1066.48C244.828 1069.02 242.836 1070.76 240.254 1071.7L210.61 1081.7L210.863 1087.24C211.224 1092.1 212.719 1095.8 215.349 1098.37C217.881 1101.04 221.362 1102.21 225.792 1101.89C228.746 1101.67 231.855 1100.69 235.121 1098.97C238.289 1097.35 241.264 1095.27 244.045 1092.73L245.041 1093.3L248.002 1101.03C245.174 1102.94 242.034 1104.92 238.581 1106.98C235.127 1109.04 231.862 1110.77 228.784 1112.16C225.608 1113.67 223.176 1114.49 221.488 1114.62C216.214 1115.01 211.77 1114.44 208.156 1112.9C204.444 1111.48 201.574 1109.25 199.546 1106.22C197.525 1103.3 196.358 1099.72 196.045 1095.51C195.943 1094.13 195.94 1091.96 196.037 1088.98C196.134 1086.01 196.261 1082.71 196.416 1079.09C196.571 1075.47 196.682 1071.96 196.747 1068.57C196.715 1065.28 196.625 1062.64 196.476 1060.63C196.311 1058.42 195.655 1056.71 194.506 1055.53C193.259 1054.45 191.687 1053.99 189.788 1054.13C188.206 1054.25 186.651 1054.73 185.124 1055.59C183.499 1056.56 182.292 1057.44 181.503 1058.24L178.906 1055.41C179.738 1053.76 180.87 1051.87 182.304 1049.75C183.639 1047.74 185.198 1045.88 186.979 1044.15C188.654 1042.44 190.418 1041.19 192.269 1040.42ZM222.37 1051.55C220.577 1051.68 218.51 1052.42 216.17 1053.76C213.838 1055.2 211.737 1056.9 209.866 1058.84L210.385 1074.39L229.435 1067.41C232.115 1066.36 233.337 1064.26 233.102 1061.09C232.89 1058.24 231.814 1055.88 229.871 1054.01C227.824 1052.15 225.323 1051.33 222.37 1051.55Z" fill="white"/>
<path d="M69.3892 1025.61L69.7304 1026.85L67.2378 1034.07C63.6482 1033.59 60.8918 1033.28 58.9684 1033.11C57.019 1033.05 55.5942 1033.29 54.6941 1033.83C53.794 1034.36 53.1745 1035.3 52.8355 1036.63C52.6269 1037.45 52.4947 1038.4 52.4389 1039.47C52.2545 1040.63 52.2109 1041.87 52.308 1043.21L52.8972 1058.91C54.7163 1059.48 57.2146 1060.17 60.3923 1060.98C63.4675 1061.76 65.979 1062.4 67.9266 1062.9C70.6943 1063.6 73.6548 1064.19 76.8083 1064.66C79.8331 1065.22 82.2429 1065.61 84.0377 1065.85L92.5568 1052.95C94.0027 1050.7 94.8691 1049.01 95.1559 1047.89C95.6775 1045.84 95.3893 1044.18 94.2914 1042.92C93.1675 1041.76 91.1704 1040.81 88.3002 1040.08L80.4584 1038.09L80.1927 1037.2L83.1102 1029.6C83.1102 1029.6 84.2117 1029.99 86.4147 1030.76C88.6438 1031.44 91.4236 1032.31 94.7542 1033.38C98.1108 1034.34 101.429 1035.24 104.709 1036.07C107.375 1036.75 110.091 1037.44 112.859 1038.15C115.55 1038.72 117.831 1039.19 119.702 1039.56C121.574 1039.93 122.509 1040.11 122.509 1040.11L119.128 1048.25C116.358 1047.99 113.958 1048.41 111.927 1049.53C109.869 1050.76 107.628 1053.13 105.202 1056.66L56.3842 1127.57L39.7282 1126.12L38.4617 1125.3C38.4617 1125.3 38.4289 1123.93 38.3633 1121.19C38.2716 1118.54 38.2226 1114.88 38.2164 1110.18C38.0816 1105.56 37.9495 1100.29 37.8201 1094.36C37.6907 1088.44 37.524 1082.23 37.3199 1075.74C37.1159 1069.25 36.9119 1062.75 36.7079 1056.26C36.3753 1049.85 36.0408 1043.87 35.7046 1038.33C35.4133 1034.32 34.4895 1031.31 32.933 1029.27C31.3765 1027.24 28.6516 1025.51 24.7581 1024.08L24.4924 1023.2L27.4855 1015.94C27.4855 1015.94 28.5488 1016.26 30.6753 1016.91C32.6994 1017.54 35.0822 1018.25 37.8238 1019.06C40.489 1019.74 42.8466 1020.34 44.8968 1020.86C48.8945 1021.87 52.8159 1022.76 56.6608 1023.52C60.4293 1024.15 63.5184 1024.67 65.9282 1025.06C68.2355 1025.43 69.3892 1025.61 69.3892 1025.61ZM78.4199 1075.06L65.9653 1071.89C64.1202 1071.42 61.9033 1070.91 59.3145 1070.36C56.6997 1069.92 54.5592 1069.54 52.893 1069.22L53.958 1109.44L55.4956 1109.83L78.4199 1075.06Z" fill="white"/>
<path d="M52.1104 224.818C51.5983 224.95 50.7245 224.738 49.4892 224.183C48.3562 223.601 47.1193 222.827 45.7785 221.862C44.5664 220.972 43.4567 220.057 42.4495 219.115C41.4423 218.173 40.8595 217.394 40.7012 216.78L41.2273 215.006C47.4227 213.192 52.4114 209.449 56.1935 203.778C60.078 198.081 62.8117 191.097 64.3947 182.825C62.5789 180.016 60.5171 176.888 58.2094 173.441C55.9777 169.865 53.5527 166.175 50.9346 162.372C48.4189 158.541 45.9031 154.711 43.3874 150.881C40.8717 147.051 38.4731 143.463 36.1918 140.119C33.9104 136.775 31.8634 133.916 30.0507 131.543C28.3668 129.246 26.5735 127.797 24.6708 127.194C22.8706 126.566 20.7793 126.504 18.3971 127.008L17.9315 126.473L17.112 119.475C17.4193 119.396 18.3412 119.158 19.8776 118.763C21.414 118.367 23.1173 117.983 24.9874 117.61C26.9335 117.109 28.47 116.713 29.5967 116.423C32.055 115.79 34.4488 115.119 36.7783 114.409C39.2102 113.674 41.386 113.004 43.3058 112.4C45.3016 111.668 46.9009 111.092 48.1036 110.673C49.3064 110.254 49.9078 110.045 49.9078 110.045L50.4129 110.734L51.0392 117.617C47.8903 118.538 45.8316 119.45 44.8632 120.355C43.8684 121.157 43.5425 122.224 43.8855 123.556C44.1229 124.478 44.8655 126.089 46.1133 128.389C47.3347 130.586 48.8285 133.205 50.5946 136.245C52.3344 139.183 54.1649 142.261 56.0862 145.48C57.9811 148.596 59.7721 151.521 61.4591 154.254C63.1197 156.885 64.4947 159.043 65.5842 160.728C66.6737 162.413 67.2184 163.256 67.2184 163.256L68.1403 163.019C68.8262 158.473 69.4974 153.658 70.1539 148.574C70.8103 143.49 71.3659 138.65 71.8206 134.055C72.3777 129.433 72.7859 125.505 73.045 122.271C73.4066 119.01 73.4951 117.021 73.3104 116.304C72.9674 114.973 72.3203 114.156 71.3689 113.855C70.3912 113.452 68.9292 113.501 66.9831 114.002L60.8374 115.585L60.3718 115.05L59.706 108.012C59.706 108.012 60.5386 107.852 62.2038 107.533C63.8691 107.213 65.944 106.788 68.4287 106.257C70.9134 105.726 73.3849 105.144 75.8431 104.511C77.5844 104.062 79.4281 103.588 81.3743 103.086C83.294 102.483 84.9709 101.996 86.4049 101.627C87.9413 101.231 88.9144 100.98 89.3241 100.875L90.1482 108.527C88.0003 109.517 86.5082 110.72 85.6717 112.137C84.8352 113.554 84.2609 115.777 83.949 118.807L76.5464 170.847C75.1776 180.375 73.7468 188.389 72.2538 194.89C70.8897 201.467 69.2602 206.802 67.3652 210.895C65.5991 215.063 63.4668 218.234 60.9681 220.407C58.5719 222.553 55.6194 224.023 52.1104 224.818Z" fill="white"/>
<path d="M174.393 167.691C169.959 167.97 166.409 167.133 163.743 165.181C161.077 163.229 159.404 160.207 158.723 156.117L157.753 155.86C155.576 158.328 153.387 160.585 151.183 162.631C149.079 164.565 147.163 166.116 145.435 167.284C143.706 168.452 142.262 169.073 141.1 169.146C137.089 169.398 133.444 168.726 130.164 167.13C126.878 165.429 124.238 163.051 122.244 159.997C120.251 156.943 119.128 153.41 118.876 149.398C118.678 146.232 119.297 143.437 120.735 141.015C122.166 138.488 124.177 136.772 126.77 135.867L156.527 126.209L156.337 120.657C156.032 115.801 154.58 112.077 151.98 109.485C149.478 106.781 146.011 105.568 141.577 105.846C138.621 106.032 135.501 106.969 132.215 108.659C129.029 110.237 126.031 112.28 123.221 114.788L122.231 114.214L119.359 106.446C122.209 104.572 125.372 102.624 128.848 100.604C132.325 98.5844 135.61 96.8944 138.704 95.5343C141.897 94.0621 144.338 93.2729 146.027 93.1668C151.305 92.8354 155.742 93.4576 159.339 95.0335C163.034 96.4971 165.878 98.7561 167.872 101.81C169.858 104.759 170.984 108.345 171.25 112.567C171.336 113.939 171.313 116.114 171.182 119.089C171.051 122.065 170.887 125.361 170.69 128.976C170.493 132.592 170.343 136.099 170.238 139.497C170.232 142.782 170.292 145.428 170.418 147.434C170.558 149.651 171.195 151.359 172.33 152.56C173.564 153.648 175.131 154.133 177.031 154.013C178.615 153.914 180.175 153.445 181.712 152.607C183.348 151.656 184.565 150.785 185.363 149.993L187.927 152.852C187.077 154.495 185.923 156.369 184.465 158.475C183.107 160.468 181.527 162.315 179.726 164.018C178.031 165.714 176.253 166.939 174.393 167.691ZM144.422 156.22C146.217 156.107 148.291 155.394 150.647 154.08C152.995 152.661 155.116 150.991 157.009 149.071L156.668 133.513L137.539 140.278C134.848 141.295 133.601 143.387 133.8 146.554C133.979 149.404 135.029 151.776 136.949 153.669C138.975 155.555 141.466 156.405 144.422 156.22Z" fill="white"/>
<path d="M297.675 183.145L297.348 181.908L299.924 174.713C303.508 175.231 306.26 175.582 308.181 175.766C310.13 175.848 311.558 175.627 312.464 175.102C313.37 174.578 314 173.651 314.354 172.322C314.573 171.505 314.716 170.558 314.784 169.481C314.981 168.33 315.039 167.086 314.958 165.751L314.549 150.043C312.737 149.45 310.247 148.731 307.079 147.886C304.013 147.068 301.509 146.401 299.567 145.883C296.807 145.147 293.854 144.523 290.706 144.012C287.688 143.426 285.283 143.004 283.491 142.745L274.824 155.54C273.352 157.775 272.466 159.454 272.166 160.578C271.621 162.622 271.89 164.281 272.974 165.555C274.084 166.727 276.07 167.695 278.932 168.458L286.75 170.543L287.006 171.432L284.001 179.005C284.001 179.005 282.904 178.603 280.71 177.799C278.489 177.097 275.719 176.195 272.401 175.091C269.056 174.089 265.748 173.152 262.478 172.28C259.82 171.571 257.112 170.849 254.353 170.113C251.668 169.507 249.393 169.009 247.526 168.621C245.659 168.232 244.725 168.038 244.725 168.038L248.2 159.934C250.967 160.234 253.372 159.835 255.416 158.738C257.487 157.539 259.756 155.189 262.223 151.687L311.853 81.3434L328.491 82.9893L329.748 83.8172C329.748 83.8172 329.765 85.1901 329.799 87.9359C329.861 90.5795 329.867 94.2485 329.82 98.9429C329.901 103.562 329.973 108.836 330.034 114.764C330.095 120.691 330.19 126.902 330.319 133.395C330.449 139.888 330.578 146.381 330.707 152.874C330.966 159.292 331.231 165.274 331.504 170.821C331.749 174.827 332.638 177.855 334.171 179.906C335.704 181.957 338.409 183.718 342.285 185.19L342.541 186.079L339.465 193.305C339.465 193.305 338.405 192.968 336.286 192.293C334.269 191.646 331.895 190.903 329.163 190.065C326.506 189.356 324.155 188.729 322.111 188.184C318.125 187.121 314.214 186.188 310.379 185.383C306.618 184.709 303.535 184.16 301.129 183.738C298.827 183.343 297.675 183.145 297.675 183.145ZM289.214 133.598L301.632 136.91C303.471 137.4 305.682 137.935 308.264 138.514C310.874 138.991 313.01 139.397 314.672 139.731L314.07 99.5045L312.537 99.0957L289.214 133.598Z" fill="white"/>
<path d="M354.902 203.126L359.258 196.241C362.012 196.857 364.165 196.892 365.717 196.346C367.315 195.704 368.621 194.571 369.635 192.946C370.79 191.271 372.03 189.05 373.356 186.284L406.139 117.897C407.327 115.417 407.935 113.539 407.961 112.261C408.128 110.933 407.613 109.806 406.414 108.88C405.312 108 403.475 107.06 400.903 106.062L400.537 105.359L404.201 99.5498C408.531 101.039 412.907 102.433 417.328 103.731C421.891 104.98 426.451 106.11 431.01 107.123L430.771 109.823C429.932 110.594 428.405 112.678 426.191 116.073C424.118 119.419 421.519 123.862 418.394 129.402C415.364 134.988 411.946 141.384 408.14 148.591C404.379 155.703 400.391 163.41 396.177 171.712C392.103 179.964 387.964 188.477 383.757 197.252C382.523 199.828 381.965 201.847 382.084 203.312C382.298 204.822 383.264 205.989 384.981 206.812L389.982 208.858L389.925 209.71L385.209 216.246C383.251 215.191 380.913 213.952 378.192 212.531C375.472 211.11 373.111 209.919 371.108 208.959C369.295 208.09 366.89 207.113 363.891 206.028C360.988 204.988 357.992 204.02 354.902 203.126Z" fill="white"/>
<path d="M428.11 244.019C422.334 240.098 418.134 235.457 415.509 230.096C412.884 224.735 411.875 219.064 412.482 213.085C413.149 207.018 415.502 201.008 419.541 195.057C422.69 190.419 426.418 186.622 430.725 183.665C435.033 180.709 439.583 178.62 444.375 177.398C449.255 176.236 454.083 175.998 458.859 176.683C463.635 177.368 468.08 179.107 472.193 181.899C486.021 191.284 488.301 202.803 479.034 216.456C478.202 217.681 477.21 218.861 476.056 219.995C474.99 221.189 474.102 222.121 473.393 222.789L470.837 223.164L435.656 199.284C430.904 206.285 428.561 212.749 428.629 218.676C428.697 224.603 431.091 229.551 435.811 233.522C440.618 237.551 447.547 240.338 456.599 241.88L457.12 242.808L455.572 249.044C452.843 249.109 449.704 249.025 446.157 248.79C442.756 248.527 439.416 247.985 436.137 247.166C432.886 246.493 430.211 245.444 428.11 244.019ZM439.928 193.555L461.776 206.851C463.032 207.448 463.955 207.69 464.542 207.578C465.277 207.437 466.06 206.754 466.892 205.529C469.208 202.116 470.129 198.97 469.655 196.091C469.18 193.212 467.367 190.703 464.217 188.565C460.453 186.011 456.368 185.155 451.961 185.998C447.7 186.814 443.689 189.333 439.928 193.555Z" fill="white"/>
<path d="M459.067 316.051C455.321 312.318 452.696 308.434 451.192 304.398C449.689 300.512 449.345 296.661 450.16 292.845C450.976 289.029 452.914 285.585 455.974 282.512C458.143 282.284 461.097 282.316 464.838 282.608C468.503 282.975 472.356 283.528 476.396 284.269L477.068 283.594C473.993 279.187 472.377 275.039 472.22 271.151C472.138 267.187 473.515 263.631 476.351 260.485C479.043 260.48 481.736 260.624 484.429 260.918C487.272 261.212 490.152 261.693 493.07 262.36L494.862 260.562L499.478 269.191C496.335 268.3 493.866 267.856 492.071 267.859C490.276 267.863 488.931 268.314 488.035 269.213C486.617 270.637 486.471 272.582 487.597 275.048C488.799 277.588 490.637 280.39 493.111 283.451C495.659 286.588 498.358 289.948 501.207 293.533C504.056 297.118 506.494 300.74 508.52 304.401C510.547 308.062 511.675 311.575 511.906 314.941C512.137 318.306 510.834 321.412 507.997 324.26C505.459 326.807 502.209 328.496 498.246 329.327C494.209 330.232 489.834 330.278 485.121 329.464C480.482 328.725 475.88 327.2 471.313 324.89C466.821 322.655 462.739 319.709 459.067 316.051ZM469.832 313.338C472.53 316.025 475.451 318.039 478.595 319.379C481.738 320.72 484.731 321.312 487.573 321.157C490.49 321.077 492.844 320.137 494.635 318.339C495.979 316.99 496.537 315.381 496.309 313.512C496.156 311.717 494.954 309.027 492.704 305.441C490.378 301.93 486.742 296.964 481.793 290.541C478.501 290.098 475.547 290.216 472.931 290.894C470.24 291.647 468.073 292.848 466.431 294.497C464.117 296.82 463.225 299.663 463.755 303.028C464.359 306.467 466.385 309.904 469.832 313.338ZM510.703 272.311C513.85 275.447 517.293 276.861 521.032 276.555C524.771 276.248 528.47 274.259 532.128 270.588C536.233 266.466 538.469 262.124 538.834 257.561C539.274 253.073 537.771 249.112 534.324 245.678C531.177 242.542 527.696 241.165 523.882 241.547C520.143 241.853 516.408 243.879 512.675 247.626C508.644 251.673 506.409 255.94 505.968 260.428C505.678 264.916 507.256 268.877 510.703 272.311ZM502.408 276.141C498.437 272.185 495.661 268.002 494.082 263.592C492.578 259.108 492.27 254.695 493.16 250.356C494.199 246.016 496.435 242.122 499.869 238.675C503.751 234.779 508.196 232.265 513.205 231.133C518.214 230.002 523.3 230.142 528.463 231.553C533.701 233.039 538.344 235.797 542.39 239.829C544.638 242.068 546.475 244.346 547.901 246.662C549.401 248.902 550.937 250.807 552.511 252.374C554.159 253.717 556.668 255.47 560.038 257.633C563.482 259.72 567.376 261.957 571.718 264.342L571.608 265.352L562.981 271.314C561.258 270.046 559.46 268.628 557.588 267.061C555.864 265.494 554.366 264.225 553.093 263.255L552.083 263.37C551.871 269.578 549.6 274.855 545.27 279.201C541.538 282.948 537.129 285.275 532.045 286.182C527.036 287.164 521.912 286.837 516.673 285.202C511.51 283.491 506.754 280.471 502.408 276.141Z" fill="white"/>
<path d="M536.196 333.533C538.254 335.969 540.236 337.174 542.143 337.148C544.137 337.061 547.008 335.731 550.757 333.156L578.22 314.292C581.185 312.255 582.964 310.456 583.559 308.893C584.24 307.27 583.922 305.499 582.605 303.581C582.186 302.971 581.679 302.42 581.086 301.93C580.639 301.466 580.416 301.235 580.416 301.235L580.882 299.952L586.473 296.882C589.299 299.689 592.065 302.408 594.771 305.041C597.537 307.76 599.857 310.016 601.73 311.809C603.691 313.542 604.671 314.409 604.671 314.409L604.474 316.084C604.474 316.084 603.687 316.432 602.112 317.129C600.685 317.853 598.908 318.816 596.783 320.019C594.745 321.162 592.724 322.423 590.719 323.8L590.685 324.593C596.612 324.628 601.934 325.464 606.651 327.1C611.515 328.763 614.905 330.99 616.822 333.78C617.78 335.175 618.411 336.281 618.716 337.099C619.08 338.003 619.263 338.455 619.263 338.455L618.748 339.386C618.748 339.386 618.034 339.748 616.606 340.472C615.266 341.136 613.43 342.013 611.098 343.101C608.826 344.277 606.335 345.602 603.627 347.077C601.066 348.58 598.593 350.022 596.206 351.405L591.322 345.136C595.158 342.501 597.537 340.546 598.458 339.272C599.38 337.997 599.301 336.575 598.223 335.006C597.085 333.35 595.204 332.011 592.579 330.992C590.013 330.059 586.985 329.573 583.493 329.533C583.493 329.533 582.678 330.029 581.049 331.019C579.42 332.01 577.354 333.3 574.853 334.89C572.439 336.42 569.908 337.966 567.26 339.528C564.672 341.178 562.389 342.617 560.411 343.848C558.433 345.078 557.182 345.873 556.659 346.232C554.044 348.029 552.482 349.679 551.975 351.182C551.615 352.713 552.183 354.568 553.68 356.747C554.459 357.881 555.401 359.159 556.506 360.581C557.698 361.943 558.295 362.624 558.295 362.624L557.82 363.335L549.86 366.878C549.86 366.878 549.544 366.325 548.913 365.219C548.254 364.26 547.429 362.966 546.439 361.337C545.361 359.767 544.266 358.081 543.156 356.277C542.018 354.621 540.97 353.095 540.012 351.7C538.215 349.084 536.495 346.673 534.851 344.466C533.207 342.259 531.862 340.488 530.816 339.153C529.771 337.818 529.248 337.15 529.248 337.15L536.196 333.533Z" fill="white"/>
<path d="M579.909 425.47C577.021 419.114 575.853 412.964 576.405 407.021C576.957 401.077 579.05 395.711 582.684 390.923C586.413 386.092 591.552 382.188 598.1 379.213C603.204 376.894 608.365 375.594 613.582 375.315C618.799 375.035 623.771 375.622 628.498 377.076C633.269 378.626 637.514 380.938 641.234 384.011C644.954 387.084 647.842 390.883 649.899 395.409C656.812 410.624 652.758 421.644 637.736 428.471C636.388 429.083 634.926 429.573 633.35 429.941C631.818 430.404 630.575 430.737 629.621 430.938L627.244 429.927L609.654 391.216C601.95 394.716 596.584 399.013 593.554 404.108C590.525 409.202 589.99 414.673 591.95 420.521C593.954 426.465 598.418 432.453 605.341 438.485L605.302 439.549L600.732 444.065C598.368 442.699 595.734 440.992 592.828 438.943C590.062 436.947 587.493 434.745 585.121 432.338C582.696 430.07 580.959 427.781 579.909 425.47ZM616.285 388.551L628.008 411.281C628.769 412.446 629.43 413.133 629.991 413.343C630.691 413.606 631.715 413.431 633.063 412.818C636.819 411.112 639.244 408.906 640.338 406.201C641.433 403.497 641.193 400.411 639.617 396.944C637.736 392.803 634.694 389.945 630.493 388.369C626.431 386.845 621.695 386.906 616.285 388.551Z" fill="white"/>
<path d="M562.594 477.702C562.466 477.189 562.684 476.317 563.249 475.086C563.839 473.957 564.622 472.726 565.598 471.393C566.496 470.187 567.42 469.085 568.369 468.084C569.319 467.084 570.102 466.507 570.717 466.354L572.487 466.893C574.255 473.102 577.96 478.119 583.602 481.943C589.27 485.87 596.234 488.656 604.494 490.301C607.317 488.506 610.46 486.468 613.924 484.186C617.516 481.982 621.224 479.584 625.047 476.995C628.896 474.508 632.745 472.021 636.594 469.534C640.443 467.047 644.048 464.675 647.41 462.419C650.771 460.163 653.645 458.137 656.032 456.343C658.341 454.676 659.804 452.894 660.421 450.996C661.063 449.2 661.14 447.109 660.654 444.723L661.193 444.262L668.196 443.495C668.273 443.803 668.504 444.726 668.888 446.266C669.272 447.805 669.643 449.511 670.002 451.384C670.489 453.334 670.873 454.873 671.155 456.002C671.769 458.465 672.423 460.864 673.114 463.199C673.832 465.636 674.485 467.817 675.074 469.741C675.792 471.742 676.356 473.346 676.766 474.552C677.176 475.757 677.381 476.36 677.381 476.36L676.688 476.86L669.8 477.435C668.903 474.279 668.006 472.214 667.108 471.239C666.314 470.238 665.249 469.904 663.915 470.237C662.991 470.467 661.375 471.198 659.066 472.428C656.859 473.633 654.229 475.107 651.176 476.851C648.225 478.568 645.133 480.376 641.9 482.273C638.769 484.144 635.831 485.913 633.086 487.58C630.443 489.221 628.275 490.58 626.581 491.656C624.888 492.733 624.041 493.272 624.041 493.272L624.271 494.195C628.812 494.915 633.621 495.622 638.701 496.317C643.78 497.012 648.615 497.603 653.207 498.093C657.824 498.684 661.749 499.122 664.981 499.405C668.239 499.791 670.227 499.895 670.946 499.715C672.28 499.382 673.101 498.741 673.409 497.792C673.82 496.818 673.782 495.355 673.295 493.406L671.758 487.248L672.297 486.787L679.339 486.174C679.339 486.174 679.493 487.007 679.8 488.675C680.108 490.343 680.517 492.421 681.029 494.909C681.541 497.398 682.105 499.874 682.72 502.337C683.155 504.081 683.616 505.928 684.103 507.878C684.692 509.802 685.166 511.483 685.525 512.92C685.909 514.459 686.152 515.434 686.255 515.844L678.597 516.611C677.623 514.456 676.431 512.955 675.02 512.108C673.609 511.26 671.39 510.67 668.364 510.335L616.38 502.542C606.863 501.102 598.86 499.611 592.37 498.07C585.803 496.656 580.481 494.987 576.402 493.061C572.247 491.264 569.093 489.108 566.939 486.593C564.81 484.181 563.362 481.217 562.594 477.702Z" fill="white"/>
<path d="M618.637 600.867C618.393 596.431 619.257 592.888 621.229 590.236C623.202 587.585 626.236 585.935 630.331 585.286L630.596 584.318C628.144 582.122 625.904 579.915 623.875 577.697C621.957 575.578 620.421 573.65 619.266 571.912C618.111 570.175 617.501 568.726 617.437 567.564C617.216 563.551 617.916 559.911 619.537 556.643C621.263 553.37 623.661 550.749 626.73 548.779C629.8 546.809 633.341 545.713 637.354 545.492C640.523 545.317 643.312 545.958 645.723 547.414C648.239 548.864 649.94 550.889 650.825 553.489L660.255 583.319L665.808 583.172C670.666 582.904 674.401 581.48 677.013 578.899C679.737 576.419 680.976 572.961 680.732 568.525C680.569 565.568 679.655 562.44 677.99 559.142C676.437 555.944 674.417 552.93 671.93 550.101L672.512 549.116L680.302 546.303C682.154 549.167 684.077 552.345 686.071 555.837C688.064 559.328 689.729 562.627 691.065 565.731C692.513 568.935 693.283 571.382 693.377 573.072C693.668 578.352 693.011 582.785 691.408 586.369C689.916 590.053 687.636 592.88 684.566 594.85C681.602 596.814 678.008 597.912 673.784 598.145C672.411 598.221 670.237 598.182 667.262 598.028C664.288 597.874 660.994 597.685 657.379 597.46C653.765 597.236 650.26 597.058 646.863 596.928C643.577 596.897 640.931 596.937 638.924 597.047C636.707 597.17 634.993 597.794 633.784 598.92C632.686 600.145 632.19 601.709 632.295 603.61C632.382 605.194 632.839 606.758 633.665 608.301C634.603 609.944 635.465 611.168 636.251 611.972L633.372 614.514C631.736 613.651 629.87 612.483 627.777 611.009C625.794 609.635 623.958 608.042 622.269 606.228C620.586 604.52 619.375 602.733 618.637 600.867ZM630.338 570.984C630.437 572.78 631.134 574.86 632.429 577.225C633.831 579.584 635.484 581.718 637.39 583.625L652.95 583.404L646.332 564.224C645.335 561.524 643.253 560.262 640.085 560.437C637.233 560.594 634.854 561.625 632.946 563.531C631.044 565.543 630.175 568.027 630.338 570.984Z" fill="white"/>
</svg>
