<svg width="621" height="1006" viewBox="0 0 621 1006" fill="none" xmlns="http://www.w3.org/2000/svg">
<path d="M166.872 216.103V144.826C166.872 129.394 166.138 112.493 174.955 108.819C183.773 105.145 194.796 111.759 198.47 101.471C202.144 91.1835 199.939 76.487 203.614 69.1388C207.288 61.7906 210.962 68.404 212.431 59.5861C213.901 50.7682 208.022 37.5414 212.431 33.8673C216.84 30.1932 229.332 33.8673 234.476 33.8673C239.62 33.8673 246.968 48.5637 251.377 47.8289C255.786 47.0941 261.665 33.8673 269.748 33.8673C277.831 33.8673 277.831 59.5861 282.24 59.5861C286.649 59.5861 291.792 56.6468 296.936 47.8289L297.093 47.5604C302.199 38.8041 308.048 28.7757 316.776 33.8673C325.594 39.011 343.965 56.6468 354.252 73.5477C364.54 90.4486 370.418 97.7969 378.501 97.7969C386.584 97.7969 406.425 101.471 410.099 101.471C413.773 101.471 449.044 119.107 454.923 128.659C460.802 138.212 462.271 149.969 458.597 157.318C454.923 164.666 444.635 174.218 444.635 181.567C444.635 188.915 443.166 200.672 454.923 201.407C466.68 202.142 477.702 201.407 491.664 201.407C505.626 201.407 503.421 214.634 509.3 208.02C515.179 201.407 531.345 188.915 537.958 181.567C544.571 174.218 559.268 166.87 565.881 169.81C572.495 172.749 572.495 181.567 572.495 187.445C572.495 193.324 566.616 194.793 554.859 201.407C543.102 208.02 518.853 222.717 509.3 231.535C499.747 240.353 491.664 242.557 489.46 249.905C487.255 257.253 485.786 262.397 482.111 268.276C478.437 274.154 457.862 296.199 451.249 317.509C444.635 338.819 449.779 360.863 444.635 371.886C439.492 382.908 433.613 394.665 436.552 402.014C439.492 409.362 456.393 421.854 462.271 426.998C468.15 432.141 470.354 434.346 471.089 439.489C471.824 444.633 468.15 449.777 471.089 454.186C474.028 458.595 478.437 457.125 478.437 464.473C478.437 471.822 466.68 495.336 462.271 500.48C457.862 505.624 431.409 532.077 422.591 535.751C413.773 539.425 406.425 543.834 388.789 543.1C371.153 542.365 362.335 532.077 355.722 535.751C349.108 539.425 349.108 546.039 349.108 550.448C349.108 554.857 354.252 560.735 349.108 569.553C343.965 578.371 344.7 582.78 344.7 593.067C344.7 603.355 343.23 607.029 333.677 608.499C324.124 609.968 304.284 607.029 297.671 603.355C291.057 599.681 286.649 594.537 283.709 598.946C280.77 603.355 279.3 612.173 280.035 617.317C280.77 622.46 290.323 627.604 290.323 632.013C290.323 636.422 293.997 645.24 288.853 652.588C283.709 659.936 283.709 658.467 280.77 663.61C277.831 668.754 279.3 681.246 282.24 684.92C285.179 688.594 291.792 690.799 288.853 695.208C285.914 699.617 282.974 701.821 280.035 707.7C277.096 713.578 275.626 719.457 271.217 721.661C266.808 723.866 257.99 726.07 254.316 729.01C250.642 731.949 243.294 741.502 241.089 745.911C238.885 750.32 242.559 759.137 243.294 760.607C244.029 762.077 255.051 776.038 259.46 776.773C263.869 777.508 277.831 779.712 280.035 781.917C282.24 784.121 287.383 788.53 284.444 795.879C281.505 803.227 270.482 814.984 268.278 816.454C266.073 817.923 260.93 821.597 257.99 826.006C255.051 830.415 254.316 834.824 253.581 843.642C252.847 852.46 253.581 867.156 251.377 867.156C249.173 867.156 239.62 867.891 235.946 870.831C232.272 873.77 227.128 881.118 224.923 884.792C222.719 888.466 222.719 898.754 224.923 900.958C227.128 903.163 237.415 915.655 237.415 919.329C237.415 923.003 241.824 928.882 237.415 930.351C233.006 931.821 228.598 926.677 224.923 926.677C221.249 926.677 181.569 928.147 176.425 925.207C171.281 922.268 170.546 914.92 173.486 909.776C176.425 904.632 181.569 901.693 181.569 898.754C181.569 895.815 182.304 892.875 179.364 889.936C176.425 886.997 166.138 884.057 163.198 884.057C160.259 884.057 149.971 883.323 147.767 882.588C145.563 881.853 146.297 874.505 145.563 870.831C144.828 867.156 137.479 859.073 136.01 856.869C134.54 854.664 130.131 849.521 133.805 842.172C137.479 834.824 144.828 825.272 147.032 822.332C149.237 819.393 152.176 817.188 152.176 814.984C152.176 812.78 148.502 811.31 147.767 809.105C147.032 806.901 143.358 801.757 147.032 792.939C150.706 784.121 156.585 781.917 156.585 777.508C156.585 773.099 160.259 736.358 156.585 725.336C152.911 714.313 141.889 708.435 141.154 706.23C140.419 704.026 141.889 701.086 144.828 701.086C147.767 701.086 152.176 702.556 152.176 700.352C152.176 698.147 149.237 694.473 147.767 693.003C146.298 691.534 144.093 689.329 143.358 687.125C142.623 684.92 141.889 681.981 143.358 679.777C144.828 677.572 147.767 676.837 147.767 674.633C147.767 672.428 142.623 668.019 141.889 666.55C141.154 665.08 135.275 660.671 134.54 658.467C133.806 656.262 129.397 648.914 133.071 642.301C136.745 635.687 137.479 629.809 137.479 625.4C137.479 620.991 133.071 617.317 130.866 613.643C128.662 609.968 128.662 601.151 128.662 593.067C128.662 584.984 134.54 571.758 134.54 567.349C134.54 562.94 133.071 547.508 135.275 542.365C137.479 537.221 141.888 535.751 142.623 529.873C143.358 523.994 141.154 516.646 138.214 510.032C135.275 503.419 133.071 497.541 133.071 487.253C133.071 476.965 140.419 471.087 142.623 466.678C144.828 462.269 148.502 458.595 148.502 451.981C148.502 445.368 145.563 428.467 145.563 424.793C145.563 421.119 149.237 411.566 150.706 407.892C152.176 404.218 157.32 400.544 157.32 394.665C157.32 388.787 152.911 372.621 150.706 368.212C148.502 363.803 141.888 352.046 139.684 349.106C137.479 346.167 133.071 337.349 131.601 333.675C130.131 330.001 129.396 324.122 129.396 317.509C129.396 310.895 130.131 305.752 131.601 303.547C133.071 301.343 138.949 294.729 140.419 290.32C141.888 285.912 141.888 269.745 140.419 267.541C139.243 265.777 140.479 258.968 141.243 255.784C147.059 242.214 166.872 225.856 166.872 216.103Z" fill="#FA4821"/>
<path d="M243.294 936.647C228.598 936.647 228.598 933.708 228.598 941.056C228.598 948.405 230.067 966.04 231.537 971.919C233.007 977.798 235.946 996.903 248.438 1001.31C260.93 1005.72 296.201 1007.19 302.815 1004.25C309.428 1001.31 312.367 999.107 311.633 996.168C310.898 993.229 293.997 989.555 288.853 988.085C283.709 986.615 253.582 977.798 248.438 961.631C244.323 948.699 243.294 939.587 243.294 936.647Z" fill="#FA4821"/>
<path d="M60.822 600.5L44.7856 583.882L67.1957 578.303L60.822 600.5ZM49.426 568.333C47.4279 561.531 45.4405 554.071 43.8241 546.125L47.7439 545.328C49.3306 553.128 51.2859 560.472 53.2638 567.206L49.426 568.333ZM40.6032 523.351C40.0501 515.888 40.011 508.172 40.7158 500.312L44.6999 500.669C44.017 508.284 44.0531 515.78 44.5923 523.056L40.6032 523.351ZM44.9367 477.612C47.0055 470.466 49.834 463.293 53.5809 456.17L57.121 458.032C53.5041 464.908 50.7752 471.829 48.779 478.725L44.9367 477.612ZM66.2197 436.893C70.7604 431.192 76.0076 425.576 82.0451 420.086L84.7361 423.046C78.8502 428.398 73.7506 433.858 69.3486 439.385L66.2197 436.893ZM100.039 405.799C103.096 403.666 106.296 401.56 109.646 399.484L111.753 402.884C108.464 404.923 105.324 406.989 102.327 409.079L100.039 405.799Z" fill="black"/>
<path d="M301.963 735.056L318.45 751.228L296.202 757.42L301.963 735.056ZM314.366 778.051C316.179 787.136 317.993 797.089 319.655 807.502L315.705 808.132C314.051 797.774 312.247 787.872 310.444 778.833L314.366 778.051ZM323.742 837.117C324.886 847.081 325.787 857.121 326.327 866.925L322.334 867.145C321.798 857.433 320.905 847.473 319.768 837.573L323.742 837.117ZM326.689 896.935C326.253 907.893 325.087 918.057 322.957 926.828L319.07 925.884C321.118 917.453 322.262 907.571 322.692 896.776L326.689 896.935ZM308.154 953.606C303.915 956.781 298.873 958.5 293 958.5L293 954.5C298.037 954.5 302.232 953.044 305.756 950.405L308.154 953.606Z" fill="black"/>
<path d="M532.483 450.458L534.952 473.419L513.832 464.076L532.483 450.458ZM527.044 467.698C526.852 468.151 526.658 468.61 526.461 469.075L522.776 467.518C522.973 467.053 523.168 466.593 523.36 466.139L527.044 467.698ZM510.912 505.195C505.9 516.399 500.257 528.476 494.036 540.725L490.47 538.914C496.653 526.739 502.268 514.723 507.261 503.562L510.912 505.195ZM474.976 575.194C468.006 586.666 460.54 597.706 452.624 607.687L449.49 605.202C457.279 595.381 464.651 584.485 471.557 573.117L474.976 575.194ZM424.869 635.992C413.541 644.806 401.46 650.84 388.732 652.64L388.172 648.679C400.012 647.005 411.455 641.361 422.413 632.835L424.869 635.992ZM349.871 644.449C344.495 641.381 339.075 637.463 333.614 632.627L336.266 629.633C341.547 634.309 346.745 638.06 351.854 640.975L349.871 644.449Z" fill="black"/>
<path d="M107.792 886.972L88.6149 874.105L109.347 863.93L107.792 886.972ZM92.8256 854.568C90.6431 847.596 88.4076 839.859 86.2413 831.634L90.1095 830.615C92.2607 838.783 94.4794 846.461 96.643 853.373L92.8256 854.568ZM80.6455 808.417C78.9663 800.737 77.4203 792.873 76.0873 785.004L80.0311 784.336C81.3525 792.136 82.886 799.938 84.5532 807.562L80.6455 808.417ZM72.784 761.35C71.9044 753.117 71.3588 745.071 71.2473 737.435L75.2469 737.377C75.3563 744.868 75.8921 752.788 76.7614 760.925L72.784 761.35ZM72.6803 713.403C74.0931 704.299 76.6229 696.357 80.6565 690.332L83.9803 692.558C80.3951 697.912 77.9981 705.22 76.633 714.016L72.6803 713.403ZM102.133 678.384C105.911 678.284 110.038 678.836 114.53 680.071L113.469 683.928C109.282 682.776 105.553 682.295 102.239 682.382L102.133 678.384Z" fill="black"/>
<path d="M234.302 12.7812L214.846 0.339466L213.799 23.4097L234.302 12.7812ZM197.638 13.3416C189.883 15.1184 182.016 17.6389 174.194 20.8675L175.72 24.565C183.348 21.4165 191.004 18.9653 198.532 17.2405L197.638 13.3416ZM152.201 31.9287C145.288 36.0596 138.529 40.752 132.043 45.9812L134.553 49.0952C140.893 43.984 147.498 39.3984 154.253 35.3624L152.201 31.9287ZM114.027 62.7114C108.49 68.6304 103.3 75.0111 98.5571 81.833L101.841 84.1164C106.471 77.4576 111.539 71.2265 116.948 65.4439L114.027 62.7114ZM86.0548 103.025C82.4863 110.269 79.4064 117.889 76.9004 125.867L80.7166 127.066C83.1599 119.288 86.1629 111.857 89.6431 104.792L86.0548 103.025ZM71.3436 149.831C70.1353 157.721 69.4736 165.891 69.4223 174.329L73.4222 174.353C73.4723 166.11 74.1188 158.133 75.2975 150.436L71.3436 149.831ZM70.9507 198.832C71.966 206.689 73.5007 214.741 75.5975 222.978L79.4738 221.991C77.4158 213.907 75.9119 206.013 74.9177 198.319L70.9507 198.832ZM82.9024 246.328C85.6464 253.737 88.8399 261.277 92.5103 268.942L96.118 267.215C92.4986 259.656 89.3534 252.229 86.6534 244.939L82.9024 246.328ZM103.917 290.487C105.947 293.989 108.076 297.515 110.307 301.064L113.693 298.936C111.488 295.426 109.383 291.941 107.377 288.481L103.917 290.487Z" fill="black"/>
<path d="M505.257 347.861L525.748 337.209L506.278 324.789L505.257 347.861ZM526.909 320.834C531.253 315.163 536.013 308.969 540.939 302.4L537.739 300C532.828 306.549 528.083 312.724 523.733 318.401L526.909 320.834ZM554.632 283.624C559.049 277.357 563.43 270.892 567.61 264.323L564.236 262.175C560.096 268.681 555.752 275.093 551.363 281.32L554.632 283.624ZM579.454 244.272C583.266 237.217 586.679 230.138 589.496 223.144L585.786 221.65C583.036 228.476 579.691 235.418 575.935 242.37L579.454 244.272ZM596.351 200.64C597.933 192.404 598.294 184.422 597.022 176.927L593.079 177.597C594.252 184.511 593.938 191.996 592.423 199.886L596.351 200.64ZM587.11 155.206C582.49 149.677 576.273 144.831 568.255 140.79L566.454 144.362C574.064 148.197 579.823 152.724 584.041 157.771L587.11 155.206ZM546.145 132.865C539.245 131.152 531.551 129.79 523.005 128.811L522.549 132.785C530.951 133.747 538.472 135.082 545.181 136.748L546.145 132.865ZM499.913 127.184C496.077 127.062 492.107 127 488 127L488 131C492.067 131 495.994 131.061 499.786 131.182L499.913 127.184Z" fill="black"/>
</svg>
