<svg width="332" height="127" viewBox="0 0 332 127" fill="none" xmlns="http://www.w3.org/2000/svg">
<path d="M-1.78295e-07 122.359L-5.34849e-06 4.07871C17.6741 2.71917 54.3818 7.39168e-05 59.8199 7.36791e-05C80.2131 7.27877e-05 120.999 4.07871 142.752 20.3932C160.154 33.4449 172.662 47.5841 176.741 53.0223L179.46 57.1009L305.897 57.1009C309.523 47.5841 317.59 26.919 320.852 20.3932C324.115 13.8674 329.463 9.51688 331.729 8.15733L331.729 116.921C324.618 111.588 319.131 104.382 315.881 96.1095L305.897 70.6964L179.46 70.6964L156.869 92.4508C147.524 101.45 136.736 108.817 124.953 114.246L122.058 115.581C111.106 120.627 99.4278 123.905 87.4576 125.296C86.8562 125.365 86.2541 125.43 85.6513 125.491L54.3818 126.438L-1.78295e-07 122.359Z" fill="#FA4821"/>
<path d="M65.2588 12.2357L65.2588 115.561C73.8692 114.655 85.652 115.561 121 103.325C150.661 93.0579 160.427 69.3365 160.427 66.6174C160.427 50.3029 161.786 55.7411 156.348 46.2243C149.551 34.3283 137.315 28.5502 123.719 23.112C112.843 18.7615 76.5883 12.6888 65.2588 12.2357Z" fill="black"/>
</svg>
